<svg width="69" height="88" viewBox="0 0 69 88" fill="none" xmlns="http://www.w3.org/2000/svg">
<path fill-rule="evenodd" clip-rule="evenodd" d="M34.2222 0C53.1227 0 68.4444 13.7891 68.4444 30.8C68.4444 58.5762 34.2222 88 34.2222 88C34.2222 88 0 58.8231 0 30.8C0 13.7891 15.3218 0 34.2222 0Z" fill="#00A3D4"/>
<path fill-rule="evenodd" clip-rule="evenodd" d="M54 18.4475C47.2908 17.32 40.3409 17.3905 33.3428 17.7017C40.2285 17.9502 47.1142 18.1988 54 18.4475Z" fill="white"/>
<path fill-rule="evenodd" clip-rule="evenodd" d="M34.748 23.4739C36.9146 18.7557 39.6917 14.4133 43.9735 11C40.8982 15.158 37.8231 19.3159 34.748 23.4739Z" fill="white"/>
<path fill-rule="evenodd" clip-rule="evenodd" d="M41.3668 32.7033C40.0604 28.4971 37.8321 25.6468 34.9883 23.702C37.1145 26.7024 39.2404 29.7029 41.3668 32.7033Z" fill="white"/>
<path fill-rule="evenodd" clip-rule="evenodd" d="M41.4868 32.3773C45.2832 29.085 48.5634 25.2354 50.2438 19.6585C47.3248 23.8979 44.4058 28.1375 41.4868 32.3773Z" fill="white"/>
<path fill-rule="evenodd" clip-rule="evenodd" d="M43.9734 11C47.1114 12.8936 49.1716 15.8079 50.2437 19.6585C48.1536 16.772 46.0633 13.8861 43.9734 11Z" fill="white"/>
<path fill-rule="evenodd" clip-rule="evenodd" d="M30.604 19.5606C37.0109 20.5399 43.5963 20.3104 50.2438 19.6585C43.6971 19.6255 37.1506 19.5931 30.604 19.5606Z" fill="white"/>
<path fill-rule="evenodd" clip-rule="evenodd" d="M23.9731 24.7948C29.7083 26.359 35.5355 26.1334 41.4148 24.8924C35.601 24.86 29.7871 24.8272 23.9731 24.7948Z" fill="white"/>
<path fill-rule="evenodd" clip-rule="evenodd" d="M30.3515 20.0005C26.6814 23.1973 23.7861 27.6461 21.1262 32.4751C24.2013 28.3168 27.2764 24.1588 30.3515 20.0005Z" fill="white"/>
<path fill-rule="evenodd" clip-rule="evenodd" d="M21.1262 32.4752C27.7345 33.8935 34.614 33.7956 41.1263 32.4752C34.4596 32.4752 27.7929 32.4752 21.1262 32.4752C22.3442 30.3369 23.4704 28.1284 23.5767 25.1373C22.8112 27.4292 21.8916 30.1827 21.1262 32.4752Z" fill="white"/>
<path fill-rule="evenodd" clip-rule="evenodd" d="M21.1263 32.4752C20.0698 28.8351 18.1706 25.9233 15 24.1098C17.042 26.8985 19.0842 29.6863 21.1263 32.4752Z" fill="white"/>
<path fill-rule="evenodd" clip-rule="evenodd" d="M24.5137 11.8801C27.1764 13.7796 29.1906 16.3565 30.604 19.5607C28.5739 17.0003 26.5438 14.4404 24.5137 11.8801Z" fill="white"/>
<path fill-rule="evenodd" clip-rule="evenodd" d="M50.2438 19.6585C49.1075 26.4258 49.457 32.0677 50.3879 37.2692C50.3399 31.3986 50.2917 25.5285 50.2438 19.6585Z" fill="white"/>
<path fill-rule="evenodd" clip-rule="evenodd" d="M15.2883 23.9631C17.2582 18.4499 20.2916 14.4499 24.2794 11.8067C21.2823 15.8589 18.2854 19.9109 15.2883 23.9631Z" fill="white"/>
<path fill-rule="evenodd" clip-rule="evenodd" d="M33.1443 17.8484C32.091 18.0075 31.3828 18.6076 30.874 19.4626C31.6308 18.9245 32.3876 18.3862 33.1443 17.8484Z" fill="white"/>
<path fill-rule="evenodd" clip-rule="evenodd" d="M21.1263 32.4752C22.4603 38.1256 22.5511 43.8926 21.0986 49.8042C21.108 44.0279 21.1171 38.2515 21.1263 32.4752Z" fill="white"/>
<path fill-rule="evenodd" clip-rule="evenodd" d="M40.7026 49.9999C34.2634 48.1779 27.8744 48.2352 21.5312 49.9999C27.9217 49.9999 34.312 49.9999 40.7026 49.9999Z" fill="white"/>
<path fill-rule="evenodd" clip-rule="evenodd" d="M41.207 49.9999C43.4486 43.8398 46.3408 39.4463 50.2162 37.7213C47.2132 41.8144 44.21 45.907 41.207 49.9999Z" fill="white"/>
<path fill-rule="evenodd" clip-rule="evenodd" d="M41.1708 33.0253C41.17 33.1231 41.1692 33.221 41.1684 33.3186C39.8433 39.3243 39.9493 44.6304 41.0266 49.462C41.0748 43.9832 41.1228 38.5041 41.1708 33.0253Z" fill="white"/>
<path fill-rule="evenodd" clip-rule="evenodd" d="M50.2437 19.6585C51.202 18.9209 51.8347 17.8151 53.9998 18.4475C52.7478 18.851 51.4957 19.2546 50.2437 19.6585Z" fill="white"/>
<path fill-rule="evenodd" clip-rule="evenodd" d="M30.3515 20.0005C30.017 22.0919 30.0911 24.1835 30.3974 26.2744C30.3821 24.1835 30.3669 22.0919 30.3515 20.0005Z" fill="white"/>
</svg>
