<svg width="335" height="205" viewBox="0 0 335 205" fill="none" xmlns="http://www.w3.org/2000/svg">
<path d="M37.7843 188.316L37.8194 188.446H26.5819L26.6209 188.349C26.5156 187.958 26.44 187.676 26.3932 187.503C26.1476 186.593 25.4543 185.943 24.3266 185.552C23.199 185.162 21.456 184.967 19.1103 184.967C15.9449 184.967 13.9095 185.325 12.9839 186.04C12.2165 186.669 11.8554 188.001 11.8874 190.038L12.0176 194.07C12.0161 195.022 12.1011 195.814 12.2711 196.443C12.5456 197.461 13.1976 198.16 14.2246 198.54C15.254 198.919 17.0367 199.108 19.5774 199.108C22.3755 199.108 24.3017 198.822 25.3521 198.247C26.4025 197.672 26.9009 196.649 26.847 195.175H38.3442C38.4159 198.317 37.1908 200.598 34.6673 202.018C32.1453 203.437 27.9123 204.147 21.9707 204.147H17.7081C12.1541 204.147 8.06466 203.633 5.43973 202.603C2.81636 201.573 1.17245 199.834 0.511928 197.385C0.284216 196.541 0.159452 195.597 0.136057 194.557L0.00504453 189.518C-0.0877562 185.986 1.11553 183.505 3.61413 182.073C6.11273 180.643 10.5913 179.929 17.0507 179.929H20.5382C26.0922 179.929 30.1676 180.389 32.7613 181.311C35.3574 182.232 36.9553 183.808 37.5574 186.04C37.6689 186.452 37.7359 186.783 37.7507 187.032C37.764 187.281 37.7726 187.708 37.7843 188.316Z" fill="white"/>
<path d="M83.4244 203.855H71.3478L69.1003 199.596H53.2766L51.2623 203.855H39.1841L51.667 180.221H70.0072L83.4244 203.855ZM67.1109 195.338L61.8837 184.577H60.0105L55.163 195.338H67.1109Z" fill="white"/>
<path d="M122.78 186.528L122.863 188.51C122.925 191.609 120.12 193.343 114.45 193.712L114.4 194.004C116.998 194.221 119.008 194.687 120.428 195.403C121.848 196.117 122.719 197.072 123.04 198.263C123.082 198.415 123.125 198.578 123.172 198.751C123.219 198.924 123.257 199.064 123.286 199.173L123.376 203.855H111.697L111.698 199.79C111.651 199.617 111.601 199.433 111.549 199.238C111.496 199.043 111.461 198.913 111.443 198.848C111.227 198.046 110.681 197.498 109.806 197.206C108.931 196.914 107.482 196.767 105.458 196.767H97.8366L98.005 203.855H86.702L86.0735 180.221H104.351C110.422 180.221 114.747 180.535 117.329 181.164C120.326 181.901 122.083 183.222 122.597 185.13C122.714 185.563 122.774 186.029 122.78 186.528ZM111.485 187.99C111.456 187.882 111.418 187.741 111.371 187.567C111.325 187.395 111.278 187.222 111.231 187.047C111.021 186.268 110.465 185.726 109.565 185.423C108.665 185.119 107.204 184.967 105.18 184.967H97.4942L97.7009 191.956H105.45C107.797 191.956 109.389 191.75 110.235 191.339C111.084 190.928 111.502 190.126 111.481 188.934L111.485 187.99Z" fill="white"/>
<path d="M160.912 180.221L161.031 184.967H149.017L149.529 203.855H138.096L137.586 184.967H125.509L125.391 180.221H160.912Z" fill="white"/>
<path d="M204.157 189.518L204.29 194.557C204.382 198.09 203.179 200.572 200.679 202.002C198.181 203.432 193.68 204.147 187.178 204.147H180.979C175.425 204.147 171.335 203.633 168.711 202.603C166.087 201.573 164.443 199.834 163.783 197.385C163.555 196.541 163.43 195.597 163.407 194.557L163.276 189.518C163.183 185.986 164.386 183.505 166.885 182.073C169.384 180.643 173.862 179.929 180.322 179.929H186.521C192.032 179.929 196.122 180.443 198.789 181.473C201.457 182.501 203.118 184.231 203.773 186.657C204.007 187.524 204.134 188.479 204.157 189.518ZM192.608 190.038C192.549 189.344 192.513 188.852 192.499 188.56C192.485 188.268 192.44 187.98 192.364 187.697C192.078 186.636 191.398 185.915 190.328 185.537C189.255 185.157 187.385 184.967 184.716 184.967H182.392C179.076 184.967 176.977 185.287 176.094 185.926C175.213 186.566 174.796 187.937 174.847 190.038L174.966 194.07C174.965 195.022 175.05 195.814 175.219 196.443C175.494 197.461 176.166 198.16 177.237 198.54C178.309 198.919 180.158 199.108 182.783 199.108H185.109C188.468 199.108 190.588 198.789 191.47 198.149C192.353 197.51 192.772 196.149 192.726 194.07L192.608 190.038Z" fill="white"/>
<path d="M325.758 194.419L335 203.855H322.003L319.621 201.055L325.758 194.419Z" fill="white"/>
<path d="M333.336 180.193L324.78 189.55L316.995 197.969L313.668 194.059L305.385 203.855H292.581L304.329 191.552L293.633 180.193H306.307L313.692 189.112L320.597 180.193H333.336Z" fill="white"/>
<path d="M245.688 185.519L245.73 187.113C245.843 189.605 243.462 190.992 238.586 191.274L238.6 191.566C240.99 191.805 242.879 192.304 244.268 193.061C245.656 193.82 246.503 194.763 246.807 195.89C246.883 196.172 246.942 196.389 246.982 196.541L246.981 197.97C247.041 200.268 245.808 201.838 243.269 202.684C240.938 203.464 236.771 203.855 230.775 203.855H209.623L208.995 180.221H230.437C235.389 180.221 239.036 180.529 241.376 181.147C243.718 181.764 245.1 182.865 245.528 184.447L245.633 184.837C245.674 184.989 245.692 185.217 245.688 185.519ZM234.376 186.918C234.394 186.83 234.392 186.744 234.369 186.657C234.346 186.571 234.328 186.506 234.317 186.462C234.17 185.92 233.754 185.53 233.065 185.292C232.377 185.054 231.321 184.935 229.901 184.935H220.342L220.522 189.909H230.081C233.007 189.909 234.441 189.236 234.38 187.892L234.376 186.918ZM235.402 195.988C235.373 195.88 235.332 195.728 235.28 195.532C234.981 194.427 233.432 193.875 230.634 193.875H220.624L220.744 199.108H230.797C233.908 199.108 235.451 198.404 235.416 196.995L235.402 195.988Z" fill="white"/>
<path d="M291.249 189.518L291.381 194.557C291.473 198.09 290.27 200.572 287.771 202.002C285.272 203.432 280.772 204.147 274.269 204.147H268.07C262.516 204.147 258.427 203.633 255.802 202.603C253.179 201.573 251.535 199.834 250.874 197.385C250.646 196.541 250.522 195.597 250.498 194.557L250.367 189.518C250.275 185.986 251.478 183.505 253.976 182.073C256.475 180.643 260.954 179.929 267.413 179.929H273.613C279.124 179.929 283.213 180.443 285.88 181.473C288.549 182.501 290.209 184.231 290.864 186.657C291.098 187.524 291.225 188.479 291.249 189.518ZM279.699 190.038C279.641 189.344 279.604 188.852 279.59 188.56C279.577 188.268 279.532 187.98 279.455 187.697C279.169 186.636 278.49 185.915 277.419 185.537C276.347 185.157 274.477 184.967 271.807 184.967H269.484C266.168 184.967 264.068 185.287 263.186 185.926C262.304 186.566 261.887 187.937 261.939 190.038L262.058 194.07C262.056 195.022 262.141 195.814 262.311 196.443C262.586 197.461 263.257 198.16 264.328 198.54C265.4 198.919 267.249 199.108 269.875 199.108H272.2C275.559 199.108 277.68 198.789 278.562 198.149C279.444 197.51 279.863 196.149 279.818 194.07L279.699 190.038Z" fill="white"/>
<path fill-rule="evenodd" clip-rule="evenodd" d="M271.901 29.8516C235.972 25.4034 198.753 25.6819 161.276 26.9093C198.151 27.8896 235.026 28.8706 271.901 29.8516Z" fill="white"/>
<path fill-rule="evenodd" clip-rule="evenodd" d="M168.802 49.681C180.405 31.0678 195.277 13.9371 218.207 0.47168C201.738 16.8748 185.27 33.2779 168.802 49.681Z" fill="white"/>
<path fill-rule="evenodd" clip-rule="evenodd" d="M204.248 86.091C197.252 69.4976 185.319 58.2531 170.089 50.5811C181.476 62.4174 192.861 74.2546 204.248 86.091Z" fill="white"/>
<path fill-rule="evenodd" clip-rule="evenodd" d="M204.89 84.805C225.221 71.8168 242.787 56.6302 251.786 34.6294C236.154 51.3538 220.522 68.079 204.89 84.805Z" fill="white"/>
<path fill-rule="evenodd" clip-rule="evenodd" d="M218.207 0.47168C235.012 7.94175 246.045 19.4389 251.786 34.6294C240.593 23.2422 229.399 11.8573 218.207 0.47168Z" fill="white"/>
<path fill-rule="evenodd" clip-rule="evenodd" d="M146.61 34.2437C180.92 38.107 216.187 37.2016 251.786 34.6297C216.727 34.4994 181.668 34.3715 146.61 34.2437Z" fill="white"/>
<path fill-rule="evenodd" clip-rule="evenodd" d="M111.1 54.8916C141.813 61.0625 173.019 60.1727 204.504 55.2768C173.37 55.149 142.235 55.0195 111.1 54.8916Z" fill="white"/>
<path fill-rule="evenodd" clip-rule="evenodd" d="M145.258 35.978C125.604 48.5896 110.1 66.1398 95.855 85.1905C112.323 68.7858 128.791 52.3827 145.258 35.978Z" fill="white"/>
<path fill-rule="evenodd" clip-rule="evenodd" d="M95.855 85.1912C131.244 90.7866 168.085 90.4006 202.96 85.1912C167.258 85.1912 131.557 85.1912 95.855 85.1912C102.378 76.7557 108.409 68.0434 108.978 56.2437C104.878 65.2851 99.9538 76.1475 95.855 85.1912Z" fill="white"/>
<path fill-rule="evenodd" clip-rule="evenodd" d="M95.855 85.1906C90.1972 70.8307 80.0266 59.3437 63.0472 52.1895C73.9828 63.1906 84.9193 74.1887 95.855 85.1906Z" fill="white"/>
<path fill-rule="evenodd" clip-rule="evenodd" d="M113.995 3.94385C128.254 11.4373 139.041 21.6033 146.61 34.2437C135.738 24.1432 124.866 14.0443 113.995 3.94385Z" fill="white"/>
<path fill-rule="evenodd" clip-rule="evenodd" d="M251.786 34.6294C245.701 61.3264 247.573 83.5837 252.558 104.104C252.301 80.944 252.043 57.7867 251.786 34.6294Z" fill="white"/>
<path fill-rule="evenodd" clip-rule="evenodd" d="M64.5912 51.6112C75.14 29.8615 91.3848 14.0815 112.741 3.6543C96.6901 19.6402 80.641 35.6253 64.5912 51.6112Z" fill="white"/>
<path fill-rule="evenodd" clip-rule="evenodd" d="M160.213 27.4883C154.573 28.1161 150.78 30.4836 148.056 33.8564C152.109 31.7337 156.161 29.6102 160.213 27.4883Z" fill="white"/>
<path fill-rule="evenodd" clip-rule="evenodd" d="M95.8549 85.1909C102.999 107.482 103.485 130.233 95.7068 153.554C95.7567 130.766 95.8058 107.979 95.8549 85.1909Z" fill="white"/>
<path fill-rule="evenodd" clip-rule="evenodd" d="M200.69 154.326C166.206 147.138 131.992 147.364 98.0229 154.326C132.245 154.326 166.467 154.326 200.69 154.326Z" fill="white"/>
<path fill-rule="evenodd" clip-rule="evenodd" d="M203.391 154.326C215.396 130.024 230.884 112.692 251.638 105.887C235.556 122.034 219.473 138.179 203.391 154.326Z" fill="white"/>
<path fill-rule="evenodd" clip-rule="evenodd" d="M203.198 87.3613C203.194 87.7473 203.19 88.1334 203.186 88.5186C196.089 112.211 196.657 133.143 202.426 152.204C202.684 130.59 202.942 108.975 203.198 87.3613Z" fill="white"/>
<path fill-rule="evenodd" clip-rule="evenodd" d="M251.786 34.6291C256.918 31.7196 260.306 27.3571 271.901 29.8518C265.196 31.4435 258.491 33.0359 251.786 34.6291Z" fill="white"/>
<path fill-rule="evenodd" clip-rule="evenodd" d="M145.258 35.978C143.467 44.2287 143.864 52.4802 145.504 60.7285C145.422 52.4802 145.341 44.2287 145.258 35.978Z" fill="white"/>
</svg>
