<svg width="100" height="123" viewBox="0 0 100 123" fill="none" xmlns="http://www.w3.org/2000/svg">
<path d="M59.1933 0C34.7095 0 26.0608 38.5651 18.0214 69.64C15.098 66.6688 6.14493 57.5691 6.14493 57.6311C4.31778 55.8358 2.24701 56.3929 1.02891 57.6929C-0.250094 58.9928 -0.432808 61.4072 1.02891 62.831C1.08982 62.8927 13.149 75.0877 17.3515 79.2968C18.5087 80.4113 20.1531 81.0921 21.8584 80.1017C23.5638 79.0493 23.8074 77.1305 23.8683 77.1305C38.12 12.1329 50.9101 7.30448 59.1933 7.30448C66.1974 7.30448 74.2368 12.5043 74.2368 22.9658C84.6514 22.9658 91.1685 36.8318 82.7635 45.3744C89.7066 48.779 92.8128 52.9884 92.8128 58.2502C92.8128 63.5738 88.4277 68.9592 82.0327 68.9592C75.6984 68.9592 72.4706 64.8118 67.5372 64.8118C65.2838 64.8118 63.9439 66.6688 63.9439 68.4641V81.5874H54.5644V68.5259C54.5644 66.483 53.0418 64.8738 51.2146 64.8738C51.2146 64.8738 50.4228 64.8738 50.4228 64.9355L37.9373 66.483C36.4146 66.7308 35.014 68.4021 35.014 70.0734C35.014 72.0544 36.6584 73.7257 38.8508 73.7257C39.1554 73.7257 39.5209 73.7257 39.4599 73.6639L47.3775 72.6115V85.6111C47.3775 87.2203 49.2047 88.8298 50.8493 88.8298H67.4762C69.4254 88.8298 71.0698 87.1586 71.0698 85.1778V73.3544C74.5413 75.521 79.3527 76.3256 81.8499 76.3256C91.1685 76.3256 100.06 68.8974 99.9997 58.0024C99.9387 48.1601 92.5083 43.2079 92.5083 43.2079C96.8934 31.3845 89.8283 19.9945 80.6318 16.8374C77.4038 4.70457 67.1717 0 59.1933 0Z" fill="white"/>
<path d="M59.1933 0C34.7095 0 26.0608 38.5651 18.0214 69.64C15.098 66.6688 6.14493 57.5691 6.14493 57.6311C4.31778 55.8358 2.24701 56.3929 1.02891 57.6929C-0.250094 58.9928 -0.432808 61.4072 1.02891 62.831C1.08982 62.8927 13.149 75.0877 17.3515 79.2968C18.5087 80.4113 20.1531 81.0921 21.8584 80.1017C23.5638 79.0493 23.8074 77.1305 23.8683 77.1305C38.12 12.1329 50.9101 7.30448 59.1933 7.30448C66.1974 7.30448 74.2368 12.5043 74.2368 22.9658C84.6514 22.9658 91.1685 36.8318 82.7635 45.3744C89.7066 48.779 92.8128 52.9884 92.8128 58.2502C92.8128 63.5738 88.4277 68.9592 82.0327 68.9592C75.6984 68.9592 72.4706 64.8118 67.5372 64.8118C65.2838 64.8118 63.9439 66.6688 63.9439 68.4641V81.5874H54.5644V68.5259C54.5644 66.483 53.0418 64.8738 51.2146 64.8738C51.2146 64.8738 50.4228 64.8738 50.4228 64.9355L37.9373 66.483C36.4146 66.7308 35.014 68.4021 35.014 70.0734C35.014 72.0544 36.6584 73.7257 38.8508 73.7257C39.1554 73.7257 39.5209 73.7257 39.4599 73.6639L47.3775 72.6115V85.6111C47.3775 87.2203 49.2047 88.8298 50.8493 88.8298H67.4762C69.4254 88.8298 71.0698 87.1586 71.0698 85.1778V73.3544C74.5413 75.521 79.3527 76.3256 81.8499 76.3256C91.1685 76.3256 100.06 68.8974 99.9997 58.0024C99.9387 48.1601 92.5083 43.2079 92.5083 43.2079C96.8934 31.3845 89.8283 19.9945 80.6318 16.8374C77.4038 4.70457 67.1717 0 59.1933 0Z" fill="white"/>
<path d="M48.7784 103.315C48.7784 106.348 52.1282 108.205 57.6707 110.867C62.0558 112.972 64.553 115.139 64.553 116.934C64.553 119.781 61.5077 120.833 58.645 120.833C54.2599 120.833 51.6409 119.038 50.1793 115.076L50.0575 114.767H49.692C48.9002 114.767 48.2911 114.829 47.9866 115.2C47.6821 115.634 47.7431 116.129 47.8648 116.686L48.8394 120.772C49.0829 121.762 49.4485 121.948 51.0319 122.257C51.7019 122.381 55.2952 123 58.2797 123C66.6847 123 70.4607 119.533 70.4607 116.067C70.4607 113.591 68.0245 111.177 62.7258 108.515L60.3504 107.339C56.7571 105.605 54.5644 104.553 54.5644 102.696C54.5644 100.901 56.8178 99.6628 60.0459 99.6628C64.2485 99.6628 65.4056 102.077 65.8928 104.12L66.0146 104.491H66.4409C67.3545 104.491 67.9635 104.429 68.329 104.058C68.5118 103.81 68.6336 103.563 68.5726 103.191L68.268 99.6628C68.1463 98.5486 67.2937 98.3628 66.1364 98.1153C64.7355 97.8675 63.0304 97.5582 60.4721 97.5582C53.1028 97.4962 48.7784 99.6628 48.7784 103.315Z" fill="white"/>
<path d="M73.0187 110.496C73.0187 116.686 78.3174 122.938 88.4277 122.938C93.5437 122.938 96.4061 121.762 98.5378 120.586L99.0861 120.276L98.1725 119.224L98.2333 119.286C97.9898 118.976 97.807 118.914 97.5025 118.914L97.0152 119.1C96.2234 119.472 93.9092 120.586 89.6458 120.586C84.4079 120.586 78.8047 117.119 78.8047 109.505C78.8047 102.263 84.8952 99.7248 90.1329 99.7248C93.9092 99.7248 95.8581 101.087 96.2844 103.872L96.3454 104.306H96.8324C97.259 104.306 98.4771 104.306 98.4771 103.377V99.1675C98.4771 98.1153 97.3197 97.9915 96.8324 97.9295L96.3454 97.8675C95.1273 97.682 93.9699 97.5582 90.9247 97.5582C80.5101 97.4962 73.0187 102.944 73.0187 110.496Z" fill="white"/>
<path d="M34.892 97.8058L25.7562 97.8678L19.6659 97.7437H18.7523C18.2041 97.7437 17.8387 98.1153 17.8387 98.7341C17.8387 98.9819 17.8387 99.8486 18.8741 99.8486C22.5284 99.8486 22.7111 100.158 22.7111 101.582L22.772 102.51L22.8329 106.286V114.457C22.8329 115.819 22.772 117.986 22.7111 119.719C22.7111 120.214 22.6502 120.71 19.4222 120.71C18.5087 120.71 17.9605 120.895 17.9605 121.824C17.9605 122.071 17.9605 122.814 18.8132 122.814H18.9959C19.3613 122.814 20.3967 122.752 25.5127 122.752C30.9332 122.752 32.0295 122.814 32.395 122.814H32.5778C33.3086 122.814 33.9177 122.752 33.9177 121.824C33.9177 120.833 33.1259 120.71 31.725 120.71C28.497 120.71 28.4362 120.214 28.4362 119.719C28.3752 118.11 28.3145 115.943 28.3145 114.457V111.486H31.0552C35.2575 111.486 35.6838 111.61 36.2929 114.891C36.4756 115.572 37.0237 115.696 37.511 115.696C38.4856 115.696 38.6073 115.139 38.6073 114.891L38.5463 113.653C38.4856 112.972 38.4245 112.105 38.4245 110.867V105.853C38.4245 105.11 37.511 105.11 37.0237 105.11C36.2321 105.11 36.0494 105.605 35.5621 108.02C35.3185 108.948 33.6131 109.443 30.8114 109.443H28.3752V102.077C28.3752 100.096 28.7407 100.034 29.167 100.034C30.7507 99.9724 34.6485 99.8486 35.8056 99.8486C36.9019 99.8486 37.9373 100.096 38.6073 100.529C40.678 101.829 41.7136 102.696 42.3834 103.253C42.9924 103.748 43.358 104.058 43.8453 104.058C44.1498 104.058 45.0024 104.058 45.0024 103.315C45.0024 103.129 44.9413 102.944 44.6368 102.325C44.3323 101.582 43.7232 100.344 42.9924 98.4249C42.8097 97.8058 42.0789 97.8058 40.8 97.8058H34.892Z" fill="white"/>
<path d="M86.0978 6.91584V4.22958H87.4123C87.5822 4.22958 87.7375 4.26477 87.8783 4.33514C88.0215 4.40551 88.1344 4.50743 88.217 4.64089C88.3019 4.77193 88.3444 4.93208 88.3444 5.12136C88.3444 5.31064 88.3007 5.47201 88.2133 5.60547C88.1259 5.73893 88.0094 5.84085 87.8638 5.91122C87.7181 5.97917 87.5567 6.01314 87.3795 6.01314H86.4801V5.50719H87.2339C87.3358 5.50719 87.4232 5.47443 87.496 5.40891C87.5713 5.34339 87.6089 5.24633 87.6089 5.11772C87.6089 4.98426 87.5713 4.88962 87.496 4.83381C87.4232 4.77557 87.337 4.74645 87.2375 4.74645H86.7969V6.91584H86.0978ZM87.8128 5.67463L88.4245 6.91584H87.6599L87.0882 5.67463H87.8128ZM87.1501 8.5174C86.7472 8.5174 86.3697 8.44218 86.0177 8.29173C85.6657 8.14128 85.3562 7.93259 85.0892 7.66566C84.8222 7.39873 84.6135 7.08934 84.463 6.73748C84.3125 6.38562 84.2372 6.00829 84.2372 5.60547C84.2372 5.20265 84.3125 4.82531 84.463 4.47345C84.6135 4.1216 84.8222 3.8122 85.0892 3.54528C85.3562 3.27835 85.6657 3.06966 86.0177 2.91921C86.3697 2.76876 86.7472 2.69354 87.1501 2.69354C87.5531 2.69354 87.9305 2.76876 88.2825 2.91921C88.6345 3.06966 88.944 3.27835 89.211 3.54528C89.478 3.8122 89.6867 4.1216 89.8372 4.47345C89.9877 4.82531 90.063 5.20265 90.063 5.60547C90.063 6.00829 89.9877 6.38562 89.8372 6.73748C89.6867 7.08934 89.478 7.39873 89.211 7.66566C88.944 7.93259 88.6345 8.14128 88.2825 8.29173C87.9305 8.44218 87.5531 8.5174 87.1501 8.5174ZM87.1501 7.74938C87.5482 7.74938 87.9087 7.65353 88.2315 7.46183C88.5568 7.2677 88.8153 7.00926 89.0071 6.68652C89.1988 6.36136 89.2947 6.00101 89.2947 5.60547C89.2947 5.20993 89.1976 4.85079 89.0034 4.52805C88.8117 4.20289 88.5531 3.94445 88.2279 3.75275C87.905 3.55862 87.5458 3.46156 87.1501 3.46156C86.7569 3.46156 86.3976 3.55862 86.0723 3.75275C85.7471 3.94445 85.4885 4.20289 85.2968 4.52805C85.105 4.85079 85.0091 5.20993 85.0091 5.60547C85.0091 6.00101 85.105 6.36136 85.2968 6.68652C85.4885 7.00926 85.7471 7.2677 86.0723 7.46183C86.3976 7.65353 86.7569 7.74938 87.1501 7.74938Z" fill="white"/>
</svg>
