<svg width="399" height="112" viewBox="0 0 399 112" fill="none" xmlns="http://www.w3.org/2000/svg">
<g clip-path="url(#clip0_290_421)">
<path d="M356.087 41.2505C358.796 46.9152 362.546 50.3424 369.517 55.7165C364.361 55.8078 359.335 54.0954 355.305 50.8749L355.184 50.7781L352.465 47.2368C341.118 32.4457 351.652 11.0666 370.27 11.0666C370.42 11.0666 370.563 11.0072 370.668 10.9015C370.774 10.7958 370.833 10.6524 370.833 10.5029V4.05322L371.203 4.26072C376.498 7.25882 380.803 11.7368 383.593 17.1463C381.817 22.3711 378.272 26.8104 373.571 29.6964L370.837 31.3702V25.8888C370.836 25.7094 370.788 25.5333 370.698 25.3779C370.609 25.2224 370.48 25.0929 370.326 25.002C370.171 24.911 369.995 24.8618 369.816 24.859C369.637 24.8562 369.46 24.9001 369.302 24.9862C366.334 26.6497 364.008 28.2093 361.941 30.2497C359.874 32.2901 358.088 34.787 356.18 38.311C355.934 38.7591 355.798 39.2589 355.782 39.7696C355.766 40.2803 355.87 40.7877 356.087 41.2505Z" fill="white"/>
<path d="M369.143 56.0657C364.042 56.0577 359.094 54.3179 355.108 51.1307L354.929 50.9751L352.209 47.4338C349.621 44.0563 348.028 40.022 347.61 35.7865C347.193 31.551 347.967 27.283 349.845 23.4645C351.724 19.646 354.632 16.4292 358.241 14.1773C361.85 11.9254 366.017 10.7281 370.27 10.7206C370.299 10.7206 370.327 10.715 370.353 10.7041C370.38 10.6931 370.404 10.6771 370.424 10.6568C370.444 10.6366 370.46 10.6126 370.471 10.5862C370.482 10.5597 370.488 10.5314 370.488 10.5028V3.45825L371.373 3.9597C376.728 6.98735 381.083 11.5155 383.901 16.9871L383.966 17.1185L383.921 17.2568C382.115 22.5572 378.517 27.0606 373.747 29.9902L370.488 31.9891V25.8887C370.488 25.7673 370.456 25.6482 370.395 25.5431C370.334 25.4381 370.247 25.3508 370.142 25.2902C370.037 25.2296 369.918 25.1977 369.796 25.1977C369.675 25.1978 369.556 25.2297 369.451 25.2904C366.195 27.1129 364.015 28.6691 362.162 30.4951C360.113 32.5217 358.361 34.9909 356.463 38.4768C356.245 38.8774 356.124 39.3235 356.11 39.7794C356.095 40.2353 356.188 40.6882 356.38 41.1017C359.021 46.6142 362.625 49.9826 369.71 55.4432L370.491 56.0449L369.506 56.0622L369.143 56.0657ZM355.433 50.5324L355.52 50.6016C359.216 53.5553 363.769 55.2298 368.497 55.374C361.851 50.1866 358.371 46.8355 355.775 41.4095C355.535 40.8982 355.418 40.3373 355.435 39.7725C355.452 39.2077 355.602 38.6547 355.872 38.1587C357.797 34.6001 359.594 32.0894 361.696 30.011C363.593 28.14 365.819 26.5527 369.13 24.6956C369.339 24.5799 369.576 24.5208 369.815 24.524C370.055 24.5273 370.29 24.5928 370.496 24.7142C370.703 24.8355 370.875 25.0085 370.994 25.2163C371.114 25.424 371.178 25.6593 371.179 25.8991V30.7545L373.387 29.3988C377.975 26.5807 381.448 22.2616 383.216 17.1738C380.485 11.9307 376.307 7.58213 371.179 4.64444V10.5028C371.179 10.744 371.083 10.9753 370.913 11.1459C370.742 11.3165 370.511 11.4123 370.27 11.4123C366.144 11.4162 362.102 12.5747 358.599 14.757C355.097 16.9393 352.275 20.0582 350.451 23.7615C348.627 27.4647 347.875 31.6046 348.279 35.7132C348.683 39.8219 350.227 43.7355 352.738 47.0119L355.433 50.5324Z" fill="white"/>
<path d="M370.833 56.37C363.363 56.37 356.199 53.4006 350.916 48.1148C345.634 42.8291 342.667 35.6602 342.667 28.185C342.667 20.7099 345.634 13.5409 350.916 8.2552C356.199 2.96949 363.363 0 370.833 0L374.808 0.276663C381.86 1.28533 388.269 4.93054 392.744 10.4782C397.218 16.0259 399.425 23.064 398.922 30.1751C398.418 37.2863 395.24 43.9423 390.028 48.8028C384.816 53.6633 377.958 56.3672 370.833 56.37ZM370.799 0.691657C363.692 0.709182 356.868 3.48529 351.766 8.43557C346.663 13.3858 343.678 20.1241 343.441 27.232C343.203 34.3398 345.73 41.2626 350.491 46.5432C355.252 51.8238 361.874 55.0501 368.964 55.5431C376.054 56.036 383.059 53.7571 388.504 49.1861C393.948 44.6151 397.408 38.1085 398.155 31.0361C398.902 23.9636 396.878 16.8771 392.508 11.2682C388.139 5.65938 381.765 1.96574 374.728 0.964861L370.799 0.691657Z" fill="white"/>
<path d="M398.654 28.1849C398.655 35.5088 395.771 42.5379 390.628 47.7489C385.485 52.96 378.497 55.9331 371.179 56.0241V47.6896C385.625 46.0712 392.865 34.6415 392.876 23.3537C392.876 14.4867 388.431 5.67149 379.508 1.72559C385.077 3.55661 389.926 7.10038 393.365 11.8516C396.803 16.6028 398.654 22.3189 398.654 28.1849Z" fill="white"/>
<path d="M370.833 56.3701V47.3786L371.141 47.3474C385.901 45.6944 392.52 34.1057 392.53 23.3539C392.53 13.8021 387.495 5.63707 379.369 2.04046L379.615 1.39722C385.965 3.46907 391.373 7.73127 394.873 13.4232C398.374 19.1152 399.739 25.8667 398.726 32.4728C397.713 39.0789 394.387 45.1099 389.342 49.4896C384.297 53.8693 377.861 56.3128 371.182 56.3839L370.833 56.3701ZM371.524 47.9941V55.6785C377.532 55.5256 383.323 53.4069 388.013 49.6468C392.702 45.8866 396.031 40.6923 397.49 34.8589C398.948 29.0255 398.456 22.8746 396.088 17.3477C393.721 11.8209 389.608 7.22275 384.381 4.25722C389.941 8.62503 393.228 15.5451 393.221 23.3608C393.255 29.1726 391.304 34.8217 387.692 39.3726C383.793 44.2004 378.208 47.178 371.524 47.9976V47.9941Z" fill="white"/>
<path d="M5.59529 42.5126C4.23882 42.5127 2.89393 42.263 1.62775 41.776L0.787932 41.4544C0.703062 41.4217 0.625458 41.3726 0.559553 41.3099C0.493648 41.2472 0.440732 41.1721 0.403826 41.0889C0.366919 41.0058 0.346746 40.9161 0.344458 40.8252C0.342169 40.7342 0.35781 40.6436 0.390487 40.5587C0.423165 40.4738 0.472239 40.3961 0.534908 40.3302C0.597576 40.2642 0.672612 40.2113 0.755731 40.1744C0.83885 40.1374 0.928425 40.1172 1.01934 40.115C1.11026 40.1127 1.20073 40.1283 1.2856 40.161L2.12542 40.4861C4.32184 41.3335 6.75231 41.3471 8.95801 40.5241C9.48362 40.3275 9.92671 39.9578 10.2144 39.4757C10.5021 38.9936 10.6172 38.4279 10.5409 37.8716L10.4614 37.3114C10.3627 36.6133 10.0335 35.9682 9.52627 35.4788C9.01903 34.9894 8.36281 34.6837 7.662 34.6105L7.31639 34.5724L4.00551 33.9603C3.25597 33.8188 2.55479 33.4886 1.96803 33.0009C1.38127 32.5132 0.928249 31.8841 0.651654 31.1728C0.375059 30.4615 0.283996 29.6914 0.387046 28.9351C0.490095 28.1789 0.783865 27.4613 1.24067 26.8501L1.32707 26.7325C1.71934 26.2184 2.22437 25.8014 2.80322 25.5136C3.38207 25.2258 4.01925 25.0749 4.66561 25.0725C6.09617 25.0709 7.52152 25.2451 8.90963 25.5913L10.3646 25.9371C10.5424 25.983 10.6948 26.0976 10.7881 26.2559C10.8814 26.4141 10.9081 26.603 10.8623 26.7809C10.8165 26.9588 10.7019 27.1113 10.5437 27.2047C10.3856 27.2981 10.1968 27.3248 10.019 27.2789L8.56748 26.9331C7.29119 26.6153 5.98082 26.455 4.66561 26.4558C4.23233 26.4564 3.80503 26.5572 3.41713 26.7503C3.02923 26.9435 2.69123 27.2238 2.42955 27.5694L2.34315 27.6835C2.0281 28.106 1.82543 28.6016 1.75416 29.1239C1.68289 29.6462 1.74535 30.178 1.93568 30.6695C2.12602 31.1611 2.43798 31.5961 2.84233 31.934C3.24668 32.2719 3.73016 32.5015 4.24743 32.6012L7.53067 33.1995L7.80024 33.2272C8.80705 33.3327 9.74975 33.7719 10.4786 34.4749C11.2075 35.1779 11.6807 36.1044 11.8231 37.1074L11.9026 37.6676C12.0239 38.5365 11.8459 39.4209 11.3981 40.1751C10.9502 40.9294 10.2591 41.5086 9.43841 41.8175C8.20911 42.277 6.90752 42.5124 5.59529 42.5126Z" fill="white"/>
<path d="M37.46 42.824C36.9024 42.8237 36.3467 42.7575 35.8046 42.6268L35.5488 42.5646C34.1347 42.2245 32.8762 41.4179 31.9759 40.2749C31.0756 39.1319 30.586 37.7189 30.5859 36.2636V32.6082C30.5852 31.3991 30.8806 30.2083 31.4464 29.14C32.0121 28.0717 32.8309 27.1584 33.8312 26.4801L34.239 26.2035C35.0839 25.6298 36.0619 25.2831 37.0792 25.1965C38.0965 25.1099 39.119 25.2864 40.0486 25.7089L41.0854 26.1723C41.168 26.21 41.2424 26.2636 41.3043 26.3301C41.3662 26.3965 41.4144 26.4745 41.4461 26.5596C41.4779 26.6447 41.4926 26.7353 41.4894 26.8261C41.4862 26.9168 41.4652 27.0061 41.4275 27.0888C41.3899 27.1714 41.3363 27.2459 41.2699 27.3078C41.2035 27.3697 41.1255 27.418 41.0405 27.4498C40.9554 27.4816 40.865 27.4963 40.7742 27.4931C40.6835 27.4899 40.5943 27.4688 40.5117 27.4311L39.4783 26.9747C38.9705 26.7436 38.4246 26.6076 37.8678 26.5735C36.8563 26.513 35.853 26.7877 35.0131 27.3551L34.6053 27.6317C33.7932 28.1828 33.1283 28.9245 32.6686 29.7919C32.2089 30.6594 31.9685 31.6263 31.9684 32.6082V36.2636C31.9674 37.4088 32.3523 38.5209 33.0609 39.4201C33.7696 40.3194 34.7605 40.9533 35.8737 41.2193L36.1294 41.2816C37.1243 41.5207 38.165 41.4885 39.1431 41.1882L39.6753 41.0222L41.1925 40.3305C41.2756 40.2938 41.3651 40.2737 41.4559 40.2715C41.5467 40.2693 41.637 40.2851 41.7217 40.3178C41.8065 40.3506 41.8839 40.3997 41.9497 40.4624C42.0154 40.5251 42.0682 40.6002 42.1049 40.6833C42.1417 40.7664 42.1617 40.8559 42.1639 40.9468C42.1661 41.0377 42.1504 41.1281 42.1176 41.2128C42.0849 41.2976 42.0358 41.3751 41.9731 41.4409C41.9105 41.5067 41.8355 41.5595 41.7524 41.5963L40.1212 42.3156L39.5509 42.492C38.8742 42.7054 38.1695 42.8173 37.46 42.824Z" fill="white"/>
<path d="M56.3024 42.6165C55.7561 42.6165 55.2115 42.5573 54.678 42.4401L53.8589 42.2637C52.6027 41.9887 51.478 41.2927 50.671 40.2908C49.8641 39.289 49.4232 38.0414 49.4214 36.7547V31.5672C49.4214 29.8934 50.0859 28.288 51.2687 27.1044C52.4516 25.9208 54.0559 25.2559 55.7287 25.2559C57.4015 25.2559 59.0057 25.9208 60.1886 27.1044C61.3714 28.288 62.0359 29.8934 62.0359 31.5672V34.0641H50.8038V36.7547C50.8047 37.725 51.1375 38.6658 51.7467 39.4208C52.3559 40.1757 53.2049 40.6993 54.1527 40.9046L54.9718 41.081C55.6652 41.2323 56.3791 41.265 57.0834 41.1778L57.4774 41.1259C58.2077 41.0368 58.9233 40.8531 59.6063 40.5795L61.089 39.9847C61.2595 39.9168 61.4499 39.9195 61.6184 39.9921C61.787 40.0648 61.9197 40.2014 61.9876 40.372C62.0554 40.5426 62.0527 40.7332 61.9801 40.9018C61.9075 41.0704 61.771 41.2033 61.6005 41.2712L60.1213 41.8625C59.3287 42.181 58.498 42.3949 57.6502 42.4989L57.2562 42.5507C56.9399 42.5916 56.6213 42.6135 56.3024 42.6165ZM50.8038 32.6808H60.6535V31.5638C60.6535 30.2568 60.1347 29.0033 59.2111 28.0791C58.2875 27.1549 57.0348 26.6357 55.7287 26.6357C54.4225 26.6357 53.1698 27.1549 52.2463 28.0791C51.3227 29.0033 50.8038 30.2568 50.8038 31.5638V32.6808Z" fill="white"/>
<path d="M118.511 42.6165C117.965 42.6165 117.421 42.5573 116.887 42.4401L116.068 42.2637C114.812 41.9887 113.687 41.2927 112.88 40.2908C112.073 39.289 111.632 38.0414 111.63 36.7547V31.5672C111.63 29.8934 112.295 28.288 113.478 27.1044C114.661 25.9208 116.265 25.2559 117.938 25.2559C119.61 25.2559 121.215 25.9208 122.398 27.1044C123.58 28.288 124.245 29.8934 124.245 31.5672V34.0641H113.013V36.7547C113.014 37.725 113.346 38.6658 113.956 39.4208C114.565 40.1757 115.414 40.6993 116.362 40.9046L117.181 41.081C117.874 41.2323 118.588 41.265 119.292 41.1778L119.686 41.1259C120.417 41.0368 121.132 40.8531 121.815 40.5795L123.298 39.9847C123.468 39.9168 123.659 39.9195 123.827 39.9921C123.996 40.0648 124.129 40.2014 124.197 40.372C124.264 40.5426 124.262 40.7332 124.189 40.9018C124.117 41.0704 123.98 41.2033 123.809 41.2712L122.33 41.8625C121.538 42.181 120.707 42.3949 119.859 42.4989L119.465 42.5507C119.149 42.5916 118.83 42.6135 118.511 42.6165ZM113.013 32.6808H122.863V31.5638C122.863 30.2568 122.344 29.0033 121.42 28.0791C120.496 27.1549 119.244 26.6357 117.938 26.6357C116.631 26.6357 115.379 27.1549 114.455 28.0791C113.532 29.0033 113.013 30.2568 113.013 31.5638V32.6808Z" fill="white"/>
<path d="M93.0989 42.9139C92.8339 42.9121 92.5741 42.8406 92.3455 42.7064C91.751 42.3606 91.3363 41.669 91.0736 41.0603C89.9 41.8314 88.5716 42.3355 87.1822 42.537C85.1535 42.8102 83.7952 42.6926 83.2457 42.5093H83.2077C82.0534 41.9807 81.0755 41.1307 80.391 40.0609C80.1082 39.5042 79.929 38.9007 79.8623 38.2798C79.4441 35.6308 80.8991 33.3933 83.384 32.8365C83.7491 32.7434 84.1235 32.6912 84.5003 32.6809H90.7937C90.7937 31.3356 90.7626 30.3673 90.7211 29.7898C90.7014 29.496 90.6337 29.2074 90.5207 28.9356C89.9159 27.4485 88.0427 26.7084 84.991 26.7257C84.5201 26.7169 84.049 26.7388 83.581 26.7914C83.0176 26.8883 82.1467 27.5453 81.7078 27.9811C81.5755 28.0944 81.4055 28.1536 81.2315 28.1469C81.0575 28.1401 80.8925 28.068 80.7694 27.9448C80.6463 27.8216 80.5742 27.6565 80.5675 27.4824C80.5608 27.3084 80.6199 27.1382 80.7332 27.0058C80.8714 26.864 82.1156 25.6225 83.3529 25.4289C83.8929 25.3632 84.4367 25.3343 84.9806 25.3424C88.6613 25.3147 90.9665 26.3488 91.8063 28.4134C91.9705 28.8222 92.0719 29.2537 92.107 29.6929C92.1554 30.3846 92.183 31.633 92.183 33.3725C92.183 35.5755 92.145 38.145 92.1105 39.8568C92.3282 40.6176 92.7222 41.3301 93.0298 41.503C93.0885 41.5375 93.1093 41.5306 93.1265 41.5272C93.2153 41.4966 93.3093 41.4844 93.4029 41.4914C93.4964 41.4983 93.5876 41.5243 93.6708 41.5677C93.7541 41.611 93.8276 41.6709 93.887 41.7436C93.9463 41.8163 93.9903 41.9004 94.0161 41.9907C94.042 42.0809 94.0492 42.1755 94.0373 42.2687C94.0254 42.3618 93.9947 42.4515 93.947 42.5324C93.8994 42.6133 93.8358 42.6836 93.7601 42.7391C93.6843 42.7946 93.5981 42.8341 93.5067 42.8552C93.3742 42.8936 93.2369 42.9134 93.0989 42.9139ZM83.6985 41.1848C83.9611 41.2609 85.0601 41.4096 87.0024 41.1502C88.3487 40.9479 89.6253 40.4196 90.7211 39.6113C90.7522 38.145 90.7833 36.0008 90.7903 34.078H84.5003C84.2256 34.0822 83.9522 34.1159 83.6846 34.1783C81.9117 34.576 80.9198 36.1323 81.2308 38.0551C81.2715 38.5005 81.3884 38.9357 81.5764 39.3415C82.1014 40.1417 82.8353 40.7827 83.6985 41.1952V41.1848Z" fill="white"/>
<path fill-rule="evenodd" clip-rule="evenodd" d="M31.7956 89.981V79.952C31.7978 77.0772 31.0215 74.2555 29.5492 71.787L29.1102 71.0573C27.8774 69.001 26.1327 67.2997 24.0465 66.1196C21.9604 64.9394 19.6041 64.3208 17.2076 64.324H11.2321C8.25319 64.324 5.39625 65.5081 3.28982 67.6159C1.18338 69.7237 5.07159e-07 72.5825 5.07159e-07 75.5634V106.429C-0.000471562 107.535 0.328621 108.616 0.945244 109.534C1.56187 110.453 2.43803 111.166 3.46182 111.584C4.48561 112.001 5.61056 112.104 6.69297 111.879C7.77539 111.654 8.76614 111.111 9.53867 110.319L9.75986 110.094C10.8129 109.018 11.4033 107.572 11.4049 106.065V102.666C11.4049 102.65 11.4082 102.633 11.4148 102.618C11.4213 102.603 11.4309 102.59 11.4429 102.579C11.455 102.568 11.4692 102.559 11.4847 102.554C11.5001 102.549 11.5165 102.547 11.5328 102.548L15.3345 102.894C18.8918 103.232 22.4553 102.317 25.411 100.308C28.3666 98.2983 30.5292 95.3202 31.526 91.8865C31.7052 91.2672 31.796 90.6257 31.7956 89.981ZM15.0338 74.353C14.0255 74.353 13.0586 74.7538 12.3456 75.4672C11.6327 76.1806 11.2321 77.1482 11.2321 78.1571V89.2236C11.2321 90.2325 11.6327 91.2001 12.3456 91.9135C13.0586 92.627 14.0255 93.0277 15.0338 93.0277H16.7618C17.7701 93.0277 18.737 92.627 19.45 91.9135C20.1629 91.2001 20.5634 90.2325 20.5634 89.2236V78.1571C20.5634 77.1482 20.1629 76.1806 19.45 75.4672C18.737 74.7538 17.7701 74.353 16.7618 74.353H15.0338Z" fill="white"/>
<path fill-rule="evenodd" clip-rule="evenodd" d="M50.6311 64.324C46.7814 64.324 43.0893 65.8543 40.3672 68.5782C37.645 71.3021 36.1157 74.9966 36.1157 78.8488V88.532C36.1157 92.3842 37.645 96.0786 40.3672 98.8026C43.0893 101.526 46.7814 103.057 50.6311 103.057H53.3959C57.2456 103.057 60.9377 101.526 63.6599 98.8026C66.382 96.0786 67.9113 92.3842 67.9113 88.532V78.8488C67.9113 74.9966 66.382 71.3021 63.6599 68.5782C60.9377 65.8543 57.2456 64.324 53.3959 64.324H50.6311ZM52.1863 74.353C51.5735 74.3525 50.9666 74.473 50.4003 74.7075C49.834 74.9419 49.3195 75.2858 48.8862 75.7194C48.4528 76.153 48.1092 76.6679 47.8749 77.2345C47.6406 77.8012 47.5202 78.4085 47.5207 79.0217V88.3591C47.5207 89.5973 48.0122 90.7848 48.8872 91.6603C49.7622 92.5359 50.9489 93.0277 52.1863 93.0277C53.4237 93.0277 54.6105 92.5359 55.4854 91.6603C56.3604 90.7848 56.852 89.5973 56.852 88.3591V79.0217C56.8524 78.4085 56.7321 77.8012 56.4977 77.2345C56.2634 76.6679 55.9198 76.153 55.4864 75.7194C55.0531 75.2858 54.5386 74.9419 53.9723 74.7075C53.4061 74.473 52.7991 74.3525 52.1863 74.353Z" fill="white"/>
<path fill-rule="evenodd" clip-rule="evenodd" d="M151.202 64.324C147.352 64.324 143.66 65.8543 140.938 68.5782C138.216 71.3021 136.687 74.9966 136.687 78.8488V88.532C136.687 92.3842 138.216 96.0786 140.938 98.8026C143.66 101.526 147.352 103.057 151.202 103.057H153.967C157.816 103.057 161.508 101.526 164.231 98.8026C166.953 96.0786 168.482 92.3842 168.482 88.532V78.8488C168.482 74.9966 166.953 71.3021 164.231 68.5782C161.508 65.8543 157.816 64.324 153.967 64.324H151.202ZM152.757 74.353C152.144 74.3525 151.537 74.473 150.971 74.7075C150.405 74.9419 149.89 75.2858 149.457 75.7194C149.024 76.153 148.68 76.6679 148.446 77.2345C148.211 77.8012 148.091 78.4085 148.091 79.0217V88.3591C148.091 89.5973 148.583 90.7848 149.458 91.6603C150.333 92.5359 151.52 93.0277 152.757 93.0277C153.995 93.0277 155.181 92.5359 156.056 91.6603C156.931 90.7848 157.423 89.5973 157.423 88.3591V79.0217C157.423 78.4085 157.303 77.8012 157.069 77.2345C156.834 76.6679 156.491 76.153 156.057 75.7194C155.624 75.2858 155.109 74.9419 154.543 74.7075C153.977 74.473 153.37 74.3525 152.757 74.353Z" fill="white"/>
<path d="M84.8456 79.7999V98.2153C84.8434 99.2164 84.5577 100.196 84.0214 101.042C83.4852 101.887 82.7205 102.562 81.8161 102.99C80.9116 103.418 79.9044 103.581 78.9114 103.459C77.9183 103.338 76.9801 102.937 76.2055 102.303L76.0051 102.137C75.3697 101.613 74.8581 100.955 74.5067 100.21C74.1554 99.4652 73.9731 98.6517 73.9729 97.828V77.4656C73.9728 75.812 73.3367 74.222 72.1965 73.0251L71.6332 72.4372C71.038 71.8139 70.6354 71.0318 70.4739 70.1851C70.3123 69.3383 70.3986 68.4628 70.7224 67.6639C71.0462 66.865 71.5937 66.1768 72.2991 65.6818C73.0045 65.1869 73.8378 64.9063 74.6987 64.874L76.5753 64.8048C77.5348 64.7692 78.4894 64.9571 79.3639 65.3538C80.2383 65.7505 81.0087 66.3451 81.6142 67.0907C81.8858 67.4249 82.2704 67.6478 82.6953 67.7173C83.1201 67.7868 83.5556 67.6979 83.9194 67.4677L85.2465 66.6204C87.2416 65.3482 89.5578 64.6716 91.9236 64.6699H95.6181C98.2604 64.6708 100.794 65.7216 102.663 67.5911C104.531 69.4607 105.581 71.9962 105.582 74.6402V97.9006C105.582 98.7035 105.407 99.4968 105.07 100.225C104.733 100.954 104.241 101.6 103.629 102.12L103.512 102.22C102.733 102.881 101.781 103.305 100.769 103.443C99.7569 103.58 98.7266 103.425 97.7997 102.996C96.8728 102.567 96.088 101.881 95.5379 101.02C94.9879 100.158 94.6955 99.1578 94.6953 98.1357V79.8068C94.6953 78.4998 94.1765 77.2464 93.2529 76.3222C92.3293 75.398 91.0766 74.8788 89.7705 74.8788C88.4643 74.8788 87.2117 75.398 86.2881 76.3222C85.3645 77.2464 84.8456 78.4998 84.8456 79.8068V79.7999Z" fill="white"/>
<path d="M112.667 94.9299V74.0073C106.968 73.1081 107.417 64.6699 113.185 64.6699V60.7793C113.185 59.3347 113.759 57.9493 114.779 56.9278C115.8 55.9064 117.185 55.3325 118.628 55.3325C120.072 55.3325 121.457 55.9064 122.477 56.9278C123.498 57.9493 124.072 59.3347 124.072 60.7793V64.6699H128.046C129.284 64.6699 130.47 65.1618 131.345 66.0373C132.22 66.9129 132.712 68.1004 132.712 69.3386C132.712 70.5768 132.22 71.7643 131.345 72.6398C130.47 73.5154 129.284 74.0073 128.046 74.0073H124.072V90.32C124.071 90.511 124.093 90.7013 124.137 90.8871C124.266 91.4458 124.58 91.9444 125.028 92.3017C125.476 92.659 126.032 92.854 126.605 92.8549H128.219C129.548 92.8549 130.823 93.3832 131.762 94.3236C132.702 95.264 133.23 96.5395 133.23 97.8694C133.23 99.1994 132.702 100.475 131.762 101.415C130.823 102.356 129.548 102.884 128.219 102.884H123.035L121.48 102.711C119.395 102.462 117.436 101.584 115.862 100.195C114.287 98.8047 113.173 96.9685 112.667 94.9299Z" fill="white"/>
<path d="M183.222 98.1912L173.79 71.6177C173.553 70.9748 173.446 70.2909 173.476 69.6062C173.506 68.9214 173.672 68.2495 173.965 67.6299C174.258 67.0102 174.671 66.4552 175.181 65.9974C175.691 65.5395 176.287 65.1881 176.934 64.9635C177.581 64.739 178.266 64.6459 178.95 64.6898C179.634 64.7336 180.302 64.9134 180.915 65.2188C181.528 65.5241 182.074 65.9488 182.521 66.468C182.969 66.9872 183.308 67.5904 183.519 68.2424L190.407 88.6463C190.422 88.6882 190.449 88.7245 190.485 88.7502C190.521 88.7759 190.565 88.7897 190.609 88.7897C190.654 88.7897 190.697 88.7759 190.733 88.7502C190.769 88.7245 190.797 88.6882 190.811 88.6463L198.529 67.8274C198.765 67.1751 199.128 66.5762 199.597 66.0656C200.067 65.5551 200.633 65.1431 201.263 64.8536C201.893 64.564 202.575 64.4028 203.268 64.3792C203.961 64.3557 204.651 64.4703 205.3 64.7163C205.948 64.9623 206.541 65.335 207.044 65.8124C207.547 66.2899 207.95 66.8627 208.23 67.4976C208.51 68.1324 208.66 68.8166 208.673 69.5102C208.686 70.2039 208.561 70.8933 208.306 71.5382L197.896 98.3952C197.318 99.8856 196.299 101.163 194.974 102.057C193.649 102.951 192.083 103.417 190.486 103.394C188.888 103.371 187.336 102.86 186.038 101.929C184.739 100.997 183.757 99.6907 183.222 98.1843V98.1912Z" fill="white"/>
<path fill-rule="evenodd" clip-rule="evenodd" d="M237.603 87.4945C238.581 87.3804 240.644 86.4571 241.059 83.6904C241.18 82.8777 241.246 81.0033 241.273 78.7174C241.37 70.4175 234.779 64.1511 226.502 64.1511C222.205 64.1511 218.084 65.8592 215.046 68.8996C212.007 71.9401 210.3 76.0638 210.3 80.3636V91.8174C210.588 94.7932 211.939 97.5654 214.104 99.6254C216.269 101.685 219.104 102.895 222.089 103.033L226.371 103.23L232.765 102.621C233.348 102.567 233.923 102.44 234.475 102.244L236.677 101.469C237.625 101.137 238.43 100.487 238.955 99.6297C239.479 98.772 239.692 97.7591 239.556 96.7627L239.531 96.5933C239.387 95.5353 238.845 94.5724 238.015 93.9013C237.185 93.2302 236.13 92.9016 235.066 92.9828C234.693 93.015 234.325 93.0928 233.971 93.2146C225.21 96.1887 221.83 93.1039 221.529 91.1396V87.4945H237.603ZM221.532 77.552V79.0217H230.345V77.552C230.345 76.3826 229.881 75.261 229.055 74.4341C228.228 73.6072 227.108 73.1427 225.939 73.1427C224.77 73.1427 223.649 73.6072 222.823 74.4341C221.997 75.261 221.532 76.3826 221.532 77.552Z" fill="white"/>
<path fill-rule="evenodd" clip-rule="evenodd" d="M338.865 87.4945C339.843 87.3804 341.906 86.4571 342.321 83.6904C342.442 82.8777 342.507 81.0033 342.535 78.7174C342.632 70.4175 336.041 64.1511 327.764 64.1511C323.467 64.1511 319.346 65.8592 316.307 68.8996C313.269 71.9401 311.562 76.0638 311.562 80.3636V91.8174C311.85 94.7932 313.2 97.5654 315.366 99.6254C317.531 101.685 320.366 102.895 323.351 103.033L327.633 103.23L334.026 102.621C334.61 102.567 335.185 102.44 335.737 102.244L337.939 101.469C338.887 101.137 339.692 100.487 340.217 99.6297C340.741 98.772 340.953 97.7591 340.817 96.7627L340.793 96.5933C340.649 95.5353 340.107 94.5724 339.277 93.9013C338.447 93.2302 337.392 92.9016 336.328 92.9828C335.955 93.015 335.587 93.0928 335.232 93.2146C326.471 96.1887 323.091 93.1039 322.791 91.1396V87.4945H338.865ZM322.794 77.552V79.0217H331.607V77.552C331.607 76.3826 331.143 75.261 330.316 74.4341C329.49 73.6072 328.369 73.1427 327.201 73.1427C326.032 73.1427 324.911 73.6072 324.085 74.4341C323.258 75.261 322.794 76.3826 322.794 77.552Z" fill="white"/>
<path d="M257.821 78.3301V98.2153C257.821 99.6828 257.238 101.09 256.201 102.128C255.164 103.166 253.757 103.749 252.291 103.749C250.824 103.749 249.418 103.166 248.381 102.128C247.344 101.09 246.761 99.6828 246.761 98.2153V75.3906L244.342 72.7C243.677 71.9599 243.258 71.032 243.142 70.0438C243.026 69.0556 243.218 68.0556 243.693 67.1813C244.167 66.3069 244.901 65.601 245.792 65.1606C246.684 64.7202 247.69 64.5669 248.672 64.7218L250.556 65.0157L254.416 67.7063C254.965 68.0884 255.612 68.3033 256.28 68.3248C256.948 68.3462 257.608 68.1735 258.18 67.8273L262.832 65.0157H267.325C268.7 65.0157 270.018 65.5623 270.99 66.5351C271.963 67.5079 272.509 68.8274 272.509 70.2032C272.509 71.579 271.963 72.8984 270.99 73.8712C270.018 74.8441 268.7 75.3906 267.325 75.3906H261.971C261.061 75.3909 260.172 75.6737 259.429 76.2002C258.686 76.7266 258.124 77.4708 257.821 78.3301Z" fill="white"/>
<path fill-rule="evenodd" clip-rule="evenodd" d="M288.752 63.6323C284.719 63.6323 280.852 65.2355 278 68.0891C275.148 70.9428 273.546 74.8131 273.546 78.8488V87.8403C273.546 91.876 275.148 95.7463 278 98.6C280.852 101.454 284.719 103.057 288.752 103.057H290.481C294.514 103.057 298.381 101.454 301.233 98.6C304.085 95.7463 305.687 91.876 305.687 87.8403V78.8488C305.687 74.8131 304.085 70.9428 301.233 68.0891C298.381 65.2355 294.514 63.6323 290.481 63.6323H288.752ZM292.146 74.353C290.238 74.353 288.408 75.1116 287.058 76.4619C285.709 77.8122 284.951 79.6436 284.951 81.5532V86.1734C284.951 88.083 285.709 89.9144 287.058 91.2647C288.408 92.615 290.238 93.3736 292.146 93.3736C292.988 93.3736 293.795 93.0391 294.39 92.4437C294.985 91.8484 295.319 91.0409 295.319 90.1989V77.5277C295.319 76.6857 294.985 75.8782 294.39 75.2829C293.795 74.6875 292.988 74.353 292.146 74.353Z" fill="white"/>
<path d="M300.676 55.3325C302.005 55.3325 303.28 55.8608 304.219 56.8012C305.159 57.7416 305.687 59.0171 305.687 60.347V89.7425C305.687 91.0724 305.159 92.3478 304.219 93.2882C303.28 94.2287 302.005 94.757 300.676 94.757C299.347 94.757 298.072 94.2287 297.132 93.2882C296.193 92.3478 295.665 91.0724 295.665 89.7425V60.347C295.665 59.0171 296.193 57.7416 297.132 56.8012C298.072 55.8608 299.347 55.3325 300.676 55.3325Z" fill="white"/>
<path d="M305.687 89.2236L289.443 103.057H296.639C299.002 103.057 301.271 102.125 302.953 100.464C304.635 98.8021 305.595 96.5442 305.625 94.1794L305.687 89.2236Z" fill="white"/>
<path d="M20.3906 43.2284C18.6041 43.2257 16.8916 42.5143 15.6283 41.2502C14.365 39.9862 13.6541 38.2725 13.6514 36.4848V31.989C13.6514 30.2005 14.3614 28.4852 15.6253 27.2205C16.8891 25.9559 18.6033 25.2454 20.3906 25.2454C22.178 25.2454 23.8922 25.9559 25.156 27.2205C26.4199 28.4852 27.1299 30.2005 27.1299 31.989V36.4848C27.1272 38.2725 26.4163 39.9862 25.153 41.2502C23.8897 42.5143 22.1772 43.2257 20.3906 43.2284ZM20.3906 26.6287C18.9702 26.6296 17.6082 27.1946 16.6038 28.1997C15.5994 29.2048 15.0347 30.5676 15.0338 31.989V36.4848C15.0338 37.9064 15.5982 39.2699 16.6028 40.2751C17.6074 41.2804 18.9699 41.8451 20.3906 41.8451C21.8114 41.8451 23.1739 41.2804 24.1785 40.2751C25.1831 39.2699 25.7475 37.9064 25.7475 36.4848V31.989C25.7466 30.5676 25.1819 29.2048 24.1775 28.1997C23.1731 27.1946 21.8111 26.6296 20.3906 26.6287Z" fill="white"/>
<path d="M70.1577 43.2284C68.3712 43.2257 66.6586 42.5143 65.3954 41.2502C64.1321 39.9862 63.4212 38.2725 63.4185 36.4848V31.989C63.4185 30.2005 64.1285 28.4852 65.3923 27.2205C66.6562 25.9559 68.3704 25.2454 70.1577 25.2454C71.9451 25.2454 73.6593 25.9559 74.9231 27.2205C76.187 28.4852 76.897 30.2005 76.897 31.989V36.4848C76.8943 38.2725 76.1834 39.9862 74.9201 41.2502C73.6568 42.5143 71.9443 43.2257 70.1577 43.2284ZM70.1577 26.6287C68.7373 26.6296 67.3753 27.1946 66.3709 28.1997C65.3665 29.2048 64.8018 30.5676 64.8009 31.989V36.4848C64.8009 37.9064 65.3653 39.2699 66.3699 40.2751C67.3745 41.2804 68.737 41.8451 70.1577 41.8451C71.5785 41.8451 72.941 41.2804 73.9456 40.2751C74.9502 39.2699 75.5146 37.9064 75.5146 36.4848V31.989C75.5137 30.5676 74.949 29.2048 73.9446 28.1997C72.9402 27.1946 71.5782 26.6296 70.1577 26.6287Z" fill="white"/>
<path d="M76.8971 20.7498C76.8971 20.5663 76.8242 20.3904 76.6946 20.2607C76.565 20.131 76.3892 20.0581 76.2059 20.0581C76.0225 20.0581 75.8467 20.131 75.7171 20.2607C75.5875 20.3904 75.5146 20.5663 75.5146 20.7498H76.8971ZM76.8971 31.8163V20.7498H75.5146V31.8163H76.8971Z" fill="white"/>
<path d="M101.607 43.2284C99.8209 43.2257 98.1083 42.5143 96.8451 41.2502C95.5818 39.9862 94.8709 38.2725 94.8682 36.4848V31.989C94.8682 30.2005 95.5782 28.4852 96.8421 27.2205C98.1059 25.9559 99.8201 25.2454 101.607 25.2454C103.395 25.2454 105.109 25.9559 106.373 27.2205C107.637 28.4852 108.347 30.2005 108.347 31.989V36.4848C108.344 38.2725 107.633 39.9862 106.37 41.2502C105.107 42.5143 103.394 43.2257 101.607 43.2284ZM101.607 26.6287C100.187 26.6296 98.825 27.1946 97.8206 28.1997C96.8162 29.2048 96.2515 30.5676 96.2506 31.989V36.4848C96.2506 37.9064 96.815 39.2699 97.8196 40.2751C98.8242 41.2804 100.187 41.8451 101.607 41.8451C103.028 41.8451 104.391 41.2804 105.395 40.2751C106.4 39.2699 106.964 37.9064 106.964 36.4848V31.989C106.963 30.5676 106.399 29.2048 105.394 28.1997C104.39 27.1946 103.028 26.6296 101.607 26.6287Z" fill="white"/>
<path d="M108.347 20.7498C108.347 20.5663 108.274 20.3904 108.144 20.2607C108.015 20.131 107.839 20.0581 107.656 20.0581C107.472 20.0581 107.296 20.131 107.167 20.2607C107.037 20.3904 106.964 20.5663 106.964 20.7498H108.347ZM108.347 31.8163V20.7498H106.964V31.8163H108.347Z" fill="white"/>
<path d="M44.41 43.2287C44.2266 43.2287 44.0508 43.1558 43.9212 43.0261C43.7916 42.8964 43.7188 42.7205 43.7188 42.537V25.1003C43.7188 24.9169 43.7916 24.741 43.9212 24.6113C44.0508 24.4816 44.2266 24.4087 44.41 24.4087C44.5933 24.4087 44.7691 24.4816 44.8987 24.6113C45.0283 24.741 45.1012 24.9169 45.1012 25.1003V42.537C45.1012 42.7205 45.0283 42.8964 44.8987 43.0261C44.7691 43.1558 44.5933 43.2287 44.41 43.2287Z" fill="white"/>
<path d="M44.3688 20.4038H44.4517C44.8074 20.4038 45.1484 20.5452 45.3999 20.7968C45.6514 21.0485 45.7927 21.3898 45.7927 21.7456C45.7927 22.1015 45.6514 22.4428 45.3999 22.6944C45.1484 22.9461 44.8074 23.0874 44.4517 23.0874H44.3688C44.0131 23.0874 43.6721 22.9461 43.4206 22.6944C43.1691 22.4428 43.0278 22.1015 43.0278 21.7456C43.0278 21.3898 43.1691 21.0485 43.4206 20.7968C43.6721 20.5452 44.0131 20.4038 44.3688 20.4038Z" fill="white"/>
</g>
<defs>
<clipPath id="clip0_290_421">
<rect width="399" height="112" fill="white"/>
</clipPath>
</defs>
</svg>
