<svg width="1000" height="667" viewBox="0 0 1000 667" fill="none" xmlns="http://www.w3.org/2000/svg">
<g clip-path="url(#clip0_329_429)">
<path d="M1000 666.667H0V0.000365257H1000V666.667Z" fill="#A6EAFF"/>
<mask id="mask0_329_429" style="mask-type:luminance" maskUnits="userSpaceOnUse" x="800" y="336" width="140" height="140">
<path d="M939.37 406.047C939.37 444.3 908.36 475.311 870.105 475.311C831.852 475.311 800.84 444.3 800.84 406.047C800.84 367.792 831.852 336.781 870.105 336.781C908.36 336.781 939.37 367.792 939.37 406.047Z" fill="white"/>
</mask>
<g mask="url(#mask0_329_429)">
<path d="M810.185 337.883C810.185 339.235 809.089 340.33 807.739 340.33C806.387 340.33 805.292 339.235 805.292 337.883C805.292 336.533 806.387 335.437 807.739 335.437C809.089 335.437 810.185 336.533 810.185 337.883Z" fill="white"/>
<path d="M810.185 355.923C810.185 357.274 809.089 358.37 807.739 358.37C806.387 358.37 805.292 357.274 805.292 355.923C805.292 354.573 806.387 353.477 807.739 353.477C809.089 353.477 810.185 354.573 810.185 355.923Z" fill="white"/>
<path d="M810.185 373.963C810.185 375.314 809.089 376.41 807.739 376.41C806.387 376.41 805.292 375.314 805.292 373.963C805.292 372.611 806.387 371.517 807.739 371.517C809.089 371.517 810.185 372.611 810.185 373.963Z" fill="white"/>
<path d="M810.185 392.004C810.185 393.354 809.089 394.45 807.739 394.45C806.387 394.45 805.292 393.354 805.292 392.004C805.292 390.652 806.387 389.557 807.739 389.557C809.089 389.557 810.185 390.652 810.185 392.004Z" fill="white"/>
<path d="M810.185 410.044C810.185 411.394 809.089 412.49 807.739 412.49C806.387 412.49 805.292 411.394 805.292 410.044C805.292 408.692 806.387 407.596 807.739 407.596C809.089 407.596 810.185 408.692 810.185 410.044Z" fill="white"/>
<path d="M810.185 428.083C810.185 429.435 809.089 430.529 807.739 430.529C806.387 430.529 805.292 429.435 805.292 428.083C805.292 426.732 806.387 425.636 807.739 425.636C809.089 425.636 810.185 426.732 810.185 428.083Z" fill="white"/>
<path d="M810.185 446.123C810.185 447.475 809.089 448.569 807.739 448.569C806.387 448.569 805.292 447.475 805.292 446.123C805.292 444.772 806.387 443.676 807.739 443.676C809.089 443.676 810.185 444.772 810.185 446.123Z" fill="white"/>
<path d="M810.185 464.163C810.185 465.513 809.089 466.609 807.739 466.609C806.387 466.609 805.292 465.513 805.292 464.163C805.292 462.812 806.387 461.716 807.739 461.716C809.089 461.716 810.185 462.812 810.185 464.163Z" fill="white"/>
<path d="M824.044 347.929C824.044 349.28 822.949 350.376 821.597 350.376C820.246 350.376 819.15 349.28 819.15 347.929C819.15 346.579 820.246 345.483 821.597 345.483C822.949 345.483 824.044 346.579 824.044 347.929Z" fill="white"/>
<path d="M824.044 365.969C824.044 367.32 822.949 368.416 821.597 368.416C820.246 368.416 819.15 367.32 819.15 365.969C819.15 364.617 820.246 363.523 821.597 363.523C822.949 363.523 824.044 364.617 824.044 365.969Z" fill="white"/>
<path d="M824.044 384.009C824.044 385.36 822.949 386.456 821.597 386.456C820.246 386.456 819.15 385.36 819.15 384.009C819.15 382.657 820.246 381.563 821.597 381.563C822.949 381.563 824.044 382.657 824.044 384.009Z" fill="white"/>
<path d="M824.044 402.048C824.044 403.4 822.949 404.496 821.597 404.496C820.246 404.496 819.15 403.4 819.15 402.048C819.15 400.697 820.246 399.601 821.597 399.601C822.949 399.601 824.044 400.697 824.044 402.048Z" fill="white"/>
<path d="M824.044 420.088C824.044 421.44 822.949 422.534 821.597 422.534C820.246 422.534 819.15 421.44 819.15 420.088C819.15 418.737 820.246 417.641 821.597 417.641C822.949 417.641 824.044 418.737 824.044 420.088Z" fill="white"/>
<path d="M824.044 438.128C824.044 439.48 822.949 440.574 821.597 440.574C820.246 440.574 819.15 439.48 819.15 438.128C819.15 436.777 820.246 435.681 821.597 435.681C822.949 435.681 824.044 436.777 824.044 438.128Z" fill="white"/>
<path d="M824.044 456.168C824.044 457.518 822.949 458.614 821.597 458.614C820.246 458.614 819.15 457.518 819.15 456.168C819.15 454.817 820.246 453.721 821.597 453.721C822.949 453.721 824.044 454.817 824.044 456.168Z" fill="white"/>
<path d="M824.044 474.208C824.044 475.558 822.949 476.654 821.597 476.654C820.246 476.654 819.15 475.558 819.15 474.208C819.15 472.856 820.246 471.761 821.597 471.761C822.949 471.761 824.044 472.856 824.044 474.208Z" fill="white"/>
<path d="M837.904 337.883C837.904 339.235 836.808 340.33 835.457 340.33C834.105 340.33 833.011 339.235 833.011 337.883C833.011 336.533 834.105 335.437 835.457 335.437C836.808 335.437 837.904 336.533 837.904 337.883Z" fill="white"/>
<path d="M837.904 355.923C837.904 357.274 836.808 358.37 835.457 358.37C834.105 358.37 833.011 357.274 833.011 355.923C833.011 354.573 834.105 353.477 835.457 353.477C836.808 353.477 837.904 354.573 837.904 355.923Z" fill="white"/>
<path d="M837.904 373.963C837.904 375.314 836.808 376.41 835.457 376.41C834.105 376.41 833.011 375.314 833.011 373.963C833.011 372.611 834.105 371.517 835.457 371.517C836.808 371.517 837.904 372.611 837.904 373.963Z" fill="white"/>
<path d="M837.904 392.004C837.904 393.354 836.808 394.45 835.457 394.45C834.105 394.45 833.011 393.354 833.011 392.004C833.011 390.652 834.105 389.557 835.457 389.557C836.808 389.557 837.904 390.652 837.904 392.004Z" fill="white"/>
<path d="M837.904 410.044C837.904 411.394 836.808 412.49 835.457 412.49C834.105 412.49 833.011 411.394 833.011 410.044C833.011 408.692 834.105 407.596 835.457 407.596C836.808 407.596 837.904 408.692 837.904 410.044Z" fill="white"/>
<path d="M837.904 428.083C837.904 429.435 836.808 430.529 835.457 430.529C834.105 430.529 833.011 429.435 833.011 428.083C833.011 426.732 834.105 425.636 835.457 425.636C836.808 425.636 837.904 426.732 837.904 428.083Z" fill="white"/>
<path d="M837.904 446.123C837.904 447.475 836.808 448.569 835.457 448.569C834.105 448.569 833.011 447.475 833.011 446.123C833.011 444.772 834.105 443.676 835.457 443.676C836.808 443.676 837.904 444.772 837.904 446.123Z" fill="white"/>
<path d="M837.904 464.163C837.904 465.513 836.808 466.609 835.457 466.609C834.105 466.609 833.011 465.513 833.011 464.163C833.011 462.812 834.105 461.716 835.457 461.716C836.808 461.716 837.904 462.812 837.904 464.163Z" fill="white"/>
<path d="M851.762 347.929C851.762 349.28 850.668 350.376 849.316 350.376C847.965 350.376 846.869 349.28 846.869 347.929C846.869 346.579 847.965 345.483 849.316 345.483C850.668 345.483 851.762 346.579 851.762 347.929Z" fill="white"/>
<path d="M851.762 365.969C851.762 367.32 850.668 368.416 849.316 368.416C847.965 368.416 846.869 367.32 846.869 365.969C846.869 364.617 847.965 363.523 849.316 363.523C850.668 363.523 851.762 364.617 851.762 365.969Z" fill="white"/>
<path d="M851.762 384.009C851.762 385.36 850.668 386.456 849.316 386.456C847.965 386.456 846.869 385.36 846.869 384.009C846.869 382.657 847.965 381.563 849.316 381.563C850.668 381.563 851.762 382.657 851.762 384.009Z" fill="white"/>
<path d="M851.762 402.048C851.762 403.4 850.668 404.496 849.316 404.496C847.965 404.496 846.869 403.4 846.869 402.048C846.869 400.697 847.965 399.601 849.316 399.601C850.668 399.601 851.762 400.697 851.762 402.048Z" fill="white"/>
<path d="M851.762 420.088C851.762 421.44 850.668 422.534 849.316 422.534C847.965 422.534 846.869 421.44 846.869 420.088C846.869 418.737 847.965 417.641 849.316 417.641C850.668 417.641 851.762 418.737 851.762 420.088Z" fill="white"/>
<path d="M851.762 438.128C851.762 439.48 850.668 440.574 849.316 440.574C847.965 440.574 846.869 439.48 846.869 438.128C846.869 436.777 847.965 435.681 849.316 435.681C850.668 435.681 851.762 436.777 851.762 438.128Z" fill="white"/>
<path d="M851.762 456.168C851.762 457.518 850.668 458.614 849.316 458.614C847.965 458.614 846.869 457.518 846.869 456.168C846.869 454.817 847.965 453.721 849.316 453.721C850.668 453.721 851.762 454.817 851.762 456.168Z" fill="white"/>
<path d="M851.762 474.208C851.762 475.558 850.668 476.654 849.316 476.654C847.965 476.654 846.869 475.558 846.869 474.208C846.869 472.856 847.965 471.761 849.316 471.761C850.668 471.761 851.762 472.856 851.762 474.208Z" fill="white"/>
<path d="M865.623 337.883C865.623 339.235 864.527 340.33 863.176 340.33C861.824 340.33 860.729 339.235 860.729 337.883C860.729 336.533 861.824 335.437 863.176 335.437C864.527 335.437 865.623 336.533 865.623 337.883Z" fill="white"/>
<path d="M865.623 355.923C865.623 357.274 864.527 358.37 863.176 358.37C861.824 358.37 860.729 357.274 860.729 355.923C860.729 354.573 861.824 353.477 863.176 353.477C864.527 353.477 865.623 354.573 865.623 355.923Z" fill="white"/>
<path d="M865.623 373.963C865.623 375.314 864.527 376.41 863.176 376.41C861.824 376.41 860.729 375.314 860.729 373.963C860.729 372.611 861.824 371.517 863.176 371.517C864.527 371.517 865.623 372.611 865.623 373.963Z" fill="white"/>
<path d="M865.623 392.004C865.623 393.354 864.527 394.45 863.176 394.45C861.824 394.45 860.729 393.354 860.729 392.004C860.729 390.652 861.824 389.557 863.176 389.557C864.527 389.557 865.623 390.652 865.623 392.004Z" fill="white"/>
<path d="M865.623 410.044C865.623 411.394 864.527 412.49 863.176 412.49C861.824 412.49 860.729 411.394 860.729 410.044C860.729 408.692 861.824 407.596 863.176 407.596C864.527 407.596 865.623 408.692 865.623 410.044Z" fill="white"/>
<path d="M865.623 428.083C865.623 429.435 864.527 430.529 863.176 430.529C861.824 430.529 860.729 429.435 860.729 428.083C860.729 426.732 861.824 425.636 863.176 425.636C864.527 425.636 865.623 426.732 865.623 428.083Z" fill="white"/>
<path d="M865.623 446.123C865.623 447.475 864.527 448.569 863.176 448.569C861.824 448.569 860.729 447.475 860.729 446.123C860.729 444.772 861.824 443.676 863.176 443.676C864.527 443.676 865.623 444.772 865.623 446.123Z" fill="white"/>
<path d="M865.623 464.163C865.623 465.513 864.527 466.609 863.176 466.609C861.824 466.609 860.729 465.513 860.729 464.163C860.729 462.812 861.824 461.716 863.176 461.716C864.527 461.716 865.623 462.812 865.623 464.163Z" fill="white"/>
<path d="M879.481 347.929C879.481 349.28 878.387 350.376 877.035 350.376C875.684 350.376 874.588 349.28 874.588 347.929C874.588 346.579 875.684 345.483 877.035 345.483C878.387 345.483 879.481 346.579 879.481 347.929Z" fill="white"/>
<path d="M879.481 365.969C879.481 367.32 878.387 368.416 877.035 368.416C875.684 368.416 874.588 367.32 874.588 365.969C874.588 364.617 875.684 363.523 877.035 363.523C878.387 363.523 879.481 364.617 879.481 365.969Z" fill="white"/>
<path d="M879.481 384.009C879.481 385.36 878.387 386.456 877.035 386.456C875.684 386.456 874.588 385.36 874.588 384.009C874.588 382.657 875.684 381.563 877.035 381.563C878.387 381.563 879.481 382.657 879.481 384.009Z" fill="white"/>
<path d="M879.481 402.048C879.481 403.4 878.387 404.496 877.035 404.496C875.684 404.496 874.588 403.4 874.588 402.048C874.588 400.697 875.684 399.601 877.035 399.601C878.387 399.601 879.481 400.697 879.481 402.048Z" fill="white"/>
<path d="M879.481 420.088C879.481 421.44 878.387 422.534 877.035 422.534C875.684 422.534 874.588 421.44 874.588 420.088C874.588 418.737 875.684 417.641 877.035 417.641C878.387 417.641 879.481 418.737 879.481 420.088Z" fill="white"/>
<path d="M879.481 438.128C879.481 439.48 878.387 440.574 877.035 440.574C875.684 440.574 874.588 439.48 874.588 438.128C874.588 436.777 875.684 435.681 877.035 435.681C878.387 435.681 879.481 436.777 879.481 438.128Z" fill="white"/>
<path d="M879.481 456.168C879.481 457.518 878.387 458.614 877.035 458.614C875.684 458.614 874.588 457.518 874.588 456.168C874.588 454.817 875.684 453.721 877.035 453.721C878.387 453.721 879.481 454.817 879.481 456.168Z" fill="white"/>
<path d="M879.481 474.208C879.481 475.558 878.387 476.654 877.035 476.654C875.684 476.654 874.588 475.558 874.588 474.208C874.588 472.856 875.684 471.761 877.035 471.761C878.387 471.761 879.481 472.856 879.481 474.208Z" fill="white"/>
<path d="M893.342 337.883C893.342 339.235 892.246 340.33 890.895 340.33C889.543 340.33 888.448 339.235 888.448 337.883C888.448 336.533 889.543 335.437 890.895 335.437C892.246 335.437 893.342 336.533 893.342 337.883Z" fill="white"/>
<path d="M893.342 355.923C893.342 357.274 892.246 358.37 890.895 358.37C889.543 358.37 888.448 357.274 888.448 355.923C888.448 354.573 889.543 353.477 890.895 353.477C892.246 353.477 893.342 354.573 893.342 355.923Z" fill="white"/>
<path d="M893.342 373.963C893.342 375.314 892.246 376.41 890.895 376.41C889.543 376.41 888.448 375.314 888.448 373.963C888.448 372.611 889.543 371.517 890.895 371.517C892.246 371.517 893.342 372.611 893.342 373.963Z" fill="white"/>
<path d="M893.342 392.004C893.342 393.354 892.246 394.45 890.895 394.45C889.543 394.45 888.448 393.354 888.448 392.004C888.448 390.652 889.543 389.557 890.895 389.557C892.246 389.557 893.342 390.652 893.342 392.004Z" fill="white"/>
<path d="M893.342 410.044C893.342 411.394 892.246 412.49 890.895 412.49C889.543 412.49 888.448 411.394 888.448 410.044C888.448 408.692 889.543 407.596 890.895 407.596C892.246 407.596 893.342 408.692 893.342 410.044Z" fill="white"/>
<path d="M893.342 428.083C893.342 429.435 892.246 430.529 890.895 430.529C889.543 430.529 888.448 429.435 888.448 428.083C888.448 426.732 889.543 425.636 890.895 425.636C892.246 425.636 893.342 426.732 893.342 428.083Z" fill="white"/>
<path d="M893.342 446.123C893.342 447.475 892.246 448.569 890.895 448.569C889.543 448.569 888.448 447.475 888.448 446.123C888.448 444.772 889.543 443.676 890.895 443.676C892.246 443.676 893.342 444.772 893.342 446.123Z" fill="white"/>
<path d="M893.342 464.163C893.342 465.513 892.246 466.609 890.895 466.609C889.543 466.609 888.448 465.513 888.448 464.163C888.448 462.812 889.543 461.716 890.895 461.716C892.246 461.716 893.342 462.812 893.342 464.163Z" fill="white"/>
<path d="M907.2 347.929C907.2 349.28 906.105 350.376 904.753 350.376C903.403 350.376 902.307 349.28 902.307 347.929C902.307 346.579 903.403 345.483 904.753 345.483C906.105 345.483 907.2 346.579 907.2 347.929Z" fill="white"/>
<path d="M907.2 365.969C907.2 367.32 906.105 368.416 904.753 368.416C903.403 368.416 902.307 367.32 902.307 365.969C902.307 364.617 903.403 363.523 904.753 363.523C906.105 363.523 907.2 364.617 907.2 365.969Z" fill="white"/>
<path d="M907.2 384.009C907.2 385.36 906.105 386.456 904.753 386.456C903.403 386.456 902.307 385.36 902.307 384.009C902.307 382.657 903.403 381.563 904.753 381.563C906.105 381.563 907.2 382.657 907.2 384.009Z" fill="white"/>
<path d="M907.2 402.048C907.2 403.4 906.105 404.496 904.753 404.496C903.403 404.496 902.307 403.4 902.307 402.048C902.307 400.697 903.403 399.601 904.753 399.601C906.105 399.601 907.2 400.697 907.2 402.048Z" fill="white"/>
<path d="M907.2 420.088C907.2 421.44 906.105 422.534 904.753 422.534C903.403 422.534 902.307 421.44 902.307 420.088C902.307 418.737 903.403 417.641 904.753 417.641C906.105 417.641 907.2 418.737 907.2 420.088Z" fill="white"/>
<path d="M907.2 438.128C907.2 439.48 906.105 440.574 904.753 440.574C903.403 440.574 902.307 439.48 902.307 438.128C902.307 436.777 903.403 435.681 904.753 435.681C906.105 435.681 907.2 436.777 907.2 438.128Z" fill="white"/>
<path d="M907.2 456.168C907.2 457.518 906.105 458.614 904.753 458.614C903.403 458.614 902.307 457.518 902.307 456.168C902.307 454.817 903.403 453.721 904.753 453.721C906.105 453.721 907.2 454.817 907.2 456.168Z" fill="white"/>
<path d="M907.2 474.208C907.2 475.558 906.105 476.654 904.753 476.654C903.403 476.654 902.307 475.558 902.307 474.208C902.307 472.856 903.403 471.761 904.753 471.761C906.105 471.761 907.2 472.856 907.2 474.208Z" fill="white"/>
<path d="M921.06 337.883C921.06 339.235 919.964 340.33 918.613 340.33C917.261 340.33 916.167 339.235 916.167 337.883C916.167 336.533 917.261 335.437 918.613 335.437C919.964 335.437 921.06 336.533 921.06 337.883Z" fill="white"/>
<path d="M921.06 355.923C921.06 357.274 919.964 358.37 918.613 358.37C917.261 358.37 916.167 357.274 916.167 355.923C916.167 354.573 917.261 353.477 918.613 353.477C919.964 353.477 921.06 354.573 921.06 355.923Z" fill="white"/>
<path d="M921.06 373.963C921.06 375.314 919.964 376.41 918.613 376.41C917.261 376.41 916.167 375.314 916.167 373.963C916.167 372.611 917.261 371.517 918.613 371.517C919.964 371.517 921.06 372.611 921.06 373.963Z" fill="white"/>
<path d="M921.06 392.004C921.06 393.354 919.964 394.45 918.613 394.45C917.261 394.45 916.167 393.354 916.167 392.004C916.167 390.652 917.261 389.557 918.613 389.557C919.964 389.557 921.06 390.652 921.06 392.004Z" fill="white"/>
<path d="M921.06 410.044C921.06 411.394 919.964 412.49 918.613 412.49C917.261 412.49 916.167 411.394 916.167 410.044C916.167 408.692 917.261 407.596 918.613 407.596C919.964 407.596 921.06 408.692 921.06 410.044Z" fill="white"/>
<path d="M921.06 428.083C921.06 429.435 919.964 430.529 918.613 430.529C917.261 430.529 916.167 429.435 916.167 428.083C916.167 426.732 917.261 425.636 918.613 425.636C919.964 425.636 921.06 426.732 921.06 428.083Z" fill="white"/>
<path d="M921.06 446.123C921.06 447.475 919.964 448.569 918.613 448.569C917.261 448.569 916.167 447.475 916.167 446.123C916.167 444.772 917.261 443.676 918.613 443.676C919.964 443.676 921.06 444.772 921.06 446.123Z" fill="white"/>
<path d="M921.06 464.163C921.06 465.513 919.964 466.609 918.613 466.609C917.261 466.609 916.167 465.513 916.167 464.163C916.167 462.812 917.261 461.716 918.613 461.716C919.964 461.716 921.06 462.812 921.06 464.163Z" fill="white"/>
<path d="M934.919 347.929C934.919 349.28 933.824 350.376 932.472 350.376C931.121 350.376 930.025 349.28 930.025 347.929C930.025 346.579 931.121 345.483 932.472 345.483C933.824 345.483 934.919 346.579 934.919 347.929Z" fill="white"/>
<path d="M934.919 365.969C934.919 367.32 933.824 368.416 932.472 368.416C931.121 368.416 930.025 367.32 930.025 365.969C930.025 364.617 931.121 363.523 932.472 363.523C933.824 363.523 934.919 364.617 934.919 365.969Z" fill="white"/>
<path d="M934.919 384.009C934.919 385.36 933.824 386.456 932.472 386.456C931.121 386.456 930.025 385.36 930.025 384.009C930.025 382.657 931.121 381.563 932.472 381.563C933.824 381.563 934.919 382.657 934.919 384.009Z" fill="white"/>
<path d="M934.919 402.048C934.919 403.4 933.824 404.496 932.472 404.496C931.121 404.496 930.025 403.4 930.025 402.048C930.025 400.697 931.121 399.601 932.472 399.601C933.824 399.601 934.919 400.697 934.919 402.048Z" fill="white"/>
<path d="M934.919 420.088C934.919 421.44 933.824 422.534 932.472 422.534C931.121 422.534 930.025 421.44 930.025 420.088C930.025 418.737 931.121 417.641 932.472 417.641C933.824 417.641 934.919 418.737 934.919 420.088Z" fill="white"/>
<path d="M934.919 438.128C934.919 439.48 933.824 440.574 932.472 440.574C931.121 440.574 930.025 439.48 930.025 438.128C930.025 436.777 931.121 435.681 932.472 435.681C933.824 435.681 934.919 436.777 934.919 438.128Z" fill="white"/>
<path d="M934.919 456.168C934.919 457.518 933.824 458.614 932.472 458.614C931.121 458.614 930.025 457.518 930.025 456.168C930.025 454.817 931.121 453.721 932.472 453.721C933.824 453.721 934.919 454.817 934.919 456.168Z" fill="white"/>
<path d="M934.919 474.208C934.919 475.558 933.824 476.654 932.472 476.654C931.121 476.654 930.025 475.558 930.025 474.208C930.025 472.856 931.121 471.761 932.472 471.761C933.824 471.761 934.919 472.856 934.919 474.208Z" fill="white"/>
</g>
<mask id="mask1_329_429" style="mask-type:luminance" maskUnits="userSpaceOnUse" x="133" y="32" width="95" height="95">
<path d="M227.37 79.8353C227.37 105.723 206.384 126.71 180.496 126.71C154.608 126.71 133.621 105.723 133.621 79.8353C133.621 53.9473 154.608 32.9607 180.496 32.9607C206.384 32.9607 227.37 53.9473 227.37 79.8353Z" fill="white"/>
</mask>
<g mask="url(#mask1_329_429)">
<path d="M139.945 33.7076C139.945 34.6223 139.204 35.3623 138.29 35.3623C137.376 35.3623 136.634 34.6223 136.634 33.7076C136.634 32.793 137.376 32.0516 138.29 32.0516C139.204 32.0516 139.945 32.793 139.945 33.7076Z" fill="white"/>
<path d="M139.945 33.7076C139.945 34.6223 139.204 35.3623 138.29 35.3623C137.376 35.3623 136.634 34.6223 136.634 33.7076C136.634 32.793 137.376 32.0516 138.29 32.0516C139.204 32.0516 139.945 32.793 139.945 33.7076Z" stroke="white" stroke-miterlimit="10" stroke-linejoin="round"/>
<path d="M139.945 45.9153C139.945 46.83 139.204 47.5713 138.29 47.5713C137.376 47.5713 136.634 46.83 136.634 45.9153C136.634 45.0006 137.376 44.2593 138.29 44.2593C139.204 44.2593 139.945 45.0006 139.945 45.9153Z" fill="white"/>
<path d="M139.945 45.9153C139.945 46.83 139.204 47.5713 138.29 47.5713C137.376 47.5713 136.634 46.83 136.634 45.9153C136.634 45.0006 137.376 44.2593 138.29 44.2593C139.204 44.2593 139.945 45.0006 139.945 45.9153Z" stroke="white" stroke-miterlimit="10" stroke-linejoin="round"/>
<path d="M139.945 58.1233C139.945 59.038 139.204 59.7793 138.29 59.7793C137.376 59.7793 136.634 59.038 136.634 58.1233C136.634 57.2086 137.376 56.4673 138.29 56.4673C139.204 56.4673 139.945 57.2086 139.945 58.1233Z" fill="white"/>
<path d="M139.945 58.1233C139.945 59.038 139.204 59.7793 138.29 59.7793C137.376 59.7793 136.634 59.038 136.634 58.1233C136.634 57.2086 137.376 56.4673 138.29 56.4673C139.204 56.4673 139.945 57.2086 139.945 58.1233Z" stroke="white" stroke-miterlimit="10" stroke-linejoin="round"/>
<path d="M139.945 70.3313C139.945 71.246 139.204 71.9873 138.29 71.9873C137.376 71.9873 136.634 71.246 136.634 70.3313C136.634 69.4166 137.376 68.6766 138.29 68.6766C139.204 68.6766 139.945 69.4166 139.945 70.3313Z" fill="white"/>
<path d="M139.945 70.3313C139.945 71.246 139.204 71.9873 138.29 71.9873C137.376 71.9873 136.634 71.246 136.634 70.3313C136.634 69.4166 137.376 68.6766 138.29 68.6766C139.204 68.6766 139.945 69.4166 139.945 70.3313Z" stroke="white" stroke-miterlimit="10" stroke-linejoin="round"/>
<path d="M139.945 82.5393C139.945 83.454 139.204 84.1953 138.29 84.1953C137.376 84.1953 136.634 83.454 136.634 82.5393C136.634 81.626 137.376 80.8833 138.29 80.8833C139.204 80.8833 139.945 81.626 139.945 82.5393Z" fill="white"/>
<path d="M139.945 82.5393C139.945 83.454 139.204 84.1953 138.29 84.1953C137.376 84.1953 136.634 83.454 136.634 82.5393C136.634 81.626 137.376 80.8833 138.29 80.8833C139.204 80.8833 139.945 81.626 139.945 82.5393Z" stroke="white" stroke-miterlimit="10" stroke-linejoin="round"/>
<path d="M139.945 94.7486C139.945 95.662 139.204 96.4033 138.29 96.4033C137.376 96.4033 136.634 95.662 136.634 94.7486C136.634 93.834 137.376 93.0926 138.29 93.0926C139.204 93.0926 139.945 93.834 139.945 94.7486Z" fill="white"/>
<path d="M139.945 94.7486C139.945 95.662 139.204 96.4033 138.29 96.4033C137.376 96.4033 136.634 95.662 136.634 94.7486C136.634 93.834 137.376 93.0926 138.29 93.0926C139.204 93.0926 139.945 93.834 139.945 94.7486Z" stroke="white" stroke-miterlimit="10" stroke-linejoin="round"/>
<path d="M139.945 106.957C139.945 107.872 139.204 108.613 138.29 108.613C137.376 108.613 136.634 107.872 136.634 106.957C136.634 106.043 137.376 105.301 138.29 105.301C139.204 105.301 139.945 106.043 139.945 106.957Z" fill="white"/>
<path d="M139.945 106.957C139.945 107.872 139.204 108.613 138.29 108.613C137.376 108.613 136.634 107.872 136.634 106.957C136.634 106.043 137.376 105.301 138.29 105.301C139.204 105.301 139.945 106.043 139.945 106.957Z" stroke="white" stroke-miterlimit="10" stroke-linejoin="round"/>
<path d="M139.945 119.165C139.945 120.08 139.204 120.821 138.29 120.821C137.376 120.821 136.634 120.08 136.634 119.165C136.634 118.251 137.376 117.509 138.29 117.509C139.204 117.509 139.945 118.251 139.945 119.165Z" fill="white"/>
<path d="M139.945 119.165C139.945 120.08 139.204 120.821 138.29 120.821C137.376 120.821 136.634 120.08 136.634 119.165C136.634 118.251 137.376 117.509 138.29 117.509C139.204 117.509 139.945 118.251 139.945 119.165Z" stroke="white" stroke-miterlimit="10" stroke-linejoin="round"/>
<path d="M149.325 40.5051C149.325 41.4197 148.583 42.1611 147.669 42.1611C146.754 42.1611 146.013 41.4197 146.013 40.5051C146.013 39.5904 146.754 38.8491 147.669 38.8491C148.583 38.8491 149.325 39.5904 149.325 40.5051Z" fill="white"/>
<path d="M149.325 40.5051C149.325 41.4197 148.583 42.1611 147.669 42.1611C146.754 42.1611 146.013 41.4197 146.013 40.5051C146.013 39.5904 146.754 38.8491 147.669 38.8491C148.583 38.8491 149.325 39.5904 149.325 40.5051Z" stroke="white" stroke-miterlimit="10" stroke-linejoin="round"/>
<path d="M149.325 52.7132C149.325 53.6278 148.583 54.3691 147.669 54.3691C146.754 54.3691 146.013 53.6278 146.013 52.7132C146.013 51.7985 146.754 51.0585 147.669 51.0585C148.583 51.0585 149.325 51.7985 149.325 52.7132Z" fill="white"/>
<path d="M149.325 52.7132C149.325 53.6278 148.583 54.3691 147.669 54.3691C146.754 54.3691 146.013 53.6278 146.013 52.7132C146.013 51.7985 146.754 51.0585 147.669 51.0585C148.583 51.0585 149.325 51.7985 149.325 52.7132Z" stroke="white" stroke-miterlimit="10" stroke-linejoin="round"/>
<path d="M149.325 64.9225C149.325 65.8372 148.583 66.5771 147.669 66.5771C146.754 66.5771 146.013 65.8372 146.013 64.9225C146.013 64.0079 146.754 63.2665 147.669 63.2665C148.583 63.2665 149.325 64.0079 149.325 64.9225Z" fill="white"/>
<path d="M149.325 64.9225C149.325 65.8372 148.583 66.5771 147.669 66.5771C146.754 66.5771 146.013 65.8372 146.013 64.9225C146.013 64.0079 146.754 63.2665 147.669 63.2665C148.583 63.2665 149.325 64.0079 149.325 64.9225Z" stroke="white" stroke-miterlimit="10" stroke-linejoin="round"/>
<path d="M149.325 77.1301C149.325 78.0435 148.583 78.7861 147.669 78.7861C146.754 78.7861 146.013 78.0435 146.013 77.1301C146.013 76.2155 146.754 75.4741 147.669 75.4741C148.583 75.4741 149.325 76.2155 149.325 77.1301Z" fill="white"/>
<path d="M149.325 77.1301C149.325 78.0435 148.583 78.7861 147.669 78.7861C146.754 78.7861 146.013 78.0435 146.013 77.1301C146.013 76.2155 146.754 75.4741 147.669 75.4741C148.583 75.4741 149.325 76.2155 149.325 77.1301Z" stroke="white" stroke-miterlimit="10" stroke-linejoin="round"/>
<path d="M149.325 89.3381C149.325 90.2528 148.583 90.9941 147.669 90.9941C146.754 90.9941 146.013 90.2528 146.013 89.3381C146.013 88.4234 146.754 87.6821 147.669 87.6821C148.583 87.6821 149.325 88.4234 149.325 89.3381Z" fill="white"/>
<path d="M149.325 89.3381C149.325 90.2528 148.583 90.9941 147.669 90.9941C146.754 90.9941 146.013 90.2528 146.013 89.3381C146.013 88.4234 146.754 87.6821 147.669 87.6821C148.583 87.6821 149.325 88.4234 149.325 89.3381Z" stroke="white" stroke-miterlimit="10" stroke-linejoin="round"/>
<path d="M149.325 101.546C149.325 102.461 148.583 103.202 147.669 103.202C146.754 103.202 146.013 102.461 146.013 101.546C146.013 100.631 146.754 99.8902 147.669 99.8902C148.583 99.8902 149.325 100.631 149.325 101.546Z" fill="white"/>
<path d="M149.325 101.546C149.325 102.461 148.583 103.202 147.669 103.202C146.754 103.202 146.013 102.461 146.013 101.546C146.013 100.631 146.754 99.8902 147.669 99.8902C148.583 99.8902 149.325 100.631 149.325 101.546Z" stroke="white" stroke-miterlimit="10" stroke-linejoin="round"/>
<path d="M149.325 113.754C149.325 114.669 148.583 115.41 147.669 115.41C146.754 115.41 146.013 114.669 146.013 113.754C146.013 112.839 146.754 112.098 147.669 112.098C148.583 112.098 149.325 112.839 149.325 113.754Z" fill="white"/>
<path d="M149.325 113.754C149.325 114.669 148.583 115.41 147.669 115.41C146.754 115.41 146.013 114.669 146.013 113.754C146.013 112.839 146.754 112.098 147.669 112.098C148.583 112.098 149.325 112.839 149.325 113.754Z" stroke="white" stroke-miterlimit="10" stroke-linejoin="round"/>
<path d="M149.325 125.962C149.325 126.877 148.583 127.618 147.669 127.618C146.754 127.618 146.013 126.877 146.013 125.962C146.013 125.049 146.754 124.308 147.669 124.308C148.583 124.308 149.325 125.049 149.325 125.962Z" fill="white"/>
<path d="M149.325 125.962C149.325 126.877 148.583 127.618 147.669 127.618C146.754 127.618 146.013 126.877 146.013 125.962C146.013 125.049 146.754 124.308 147.669 124.308C148.583 124.308 149.325 125.049 149.325 125.962Z" stroke="white" stroke-miterlimit="10" stroke-linejoin="round"/>
<path d="M158.704 33.7076C158.704 34.6223 157.962 35.3623 157.048 35.3623C156.133 35.3623 155.393 34.6223 155.393 33.7076C155.393 32.793 156.133 32.0516 157.048 32.0516C157.962 32.0516 158.704 32.793 158.704 33.7076Z" fill="white"/>
<path d="M158.704 33.7076C158.704 34.6223 157.962 35.3623 157.048 35.3623C156.133 35.3623 155.393 34.6223 155.393 33.7076C155.393 32.793 156.133 32.0516 157.048 32.0516C157.962 32.0516 158.704 32.793 158.704 33.7076Z" stroke="white" stroke-miterlimit="10" stroke-linejoin="round"/>
<path d="M158.704 45.9153C158.704 46.83 157.962 47.5713 157.048 47.5713C156.133 47.5713 155.393 46.83 155.393 45.9153C155.393 45.0006 156.133 44.2593 157.048 44.2593C157.962 44.2593 158.704 45.0006 158.704 45.9153Z" fill="white"/>
<path d="M158.704 45.9153C158.704 46.83 157.962 47.5713 157.048 47.5713C156.133 47.5713 155.393 46.83 155.393 45.9153C155.393 45.0006 156.133 44.2593 157.048 44.2593C157.962 44.2593 158.704 45.0006 158.704 45.9153Z" stroke="white" stroke-miterlimit="10" stroke-linejoin="round"/>
<path d="M158.704 58.1233C158.704 59.038 157.962 59.7793 157.048 59.7793C156.133 59.7793 155.393 59.038 155.393 58.1233C155.393 57.2086 156.133 56.4673 157.048 56.4673C157.962 56.4673 158.704 57.2086 158.704 58.1233Z" fill="white"/>
<path d="M158.704 58.1233C158.704 59.038 157.962 59.7793 157.048 59.7793C156.133 59.7793 155.393 59.038 155.393 58.1233C155.393 57.2086 156.133 56.4673 157.048 56.4673C157.962 56.4673 158.704 57.2086 158.704 58.1233Z" stroke="white" stroke-miterlimit="10" stroke-linejoin="round"/>
<path d="M158.704 70.3313C158.704 71.246 157.962 71.9873 157.048 71.9873C156.133 71.9873 155.393 71.246 155.393 70.3313C155.393 69.4166 156.133 68.6766 157.048 68.6766C157.962 68.6766 158.704 69.4166 158.704 70.3313Z" fill="white"/>
<path d="M158.704 70.3313C158.704 71.246 157.962 71.9873 157.048 71.9873C156.133 71.9873 155.393 71.246 155.393 70.3313C155.393 69.4166 156.133 68.6766 157.048 68.6766C157.962 68.6766 158.704 69.4166 158.704 70.3313Z" stroke="white" stroke-miterlimit="10" stroke-linejoin="round"/>
<path d="M158.704 82.5393C158.704 83.454 157.962 84.1953 157.048 84.1953C156.133 84.1953 155.393 83.454 155.393 82.5393C155.393 81.626 156.133 80.8833 157.048 80.8833C157.962 80.8833 158.704 81.626 158.704 82.5393Z" fill="white"/>
<path d="M158.704 82.5393C158.704 83.454 157.962 84.1953 157.048 84.1953C156.133 84.1953 155.393 83.454 155.393 82.5393C155.393 81.626 156.133 80.8833 157.048 80.8833C157.962 80.8833 158.704 81.626 158.704 82.5393Z" stroke="white" stroke-miterlimit="10" stroke-linejoin="round"/>
<path d="M158.704 94.7486C158.704 95.662 157.962 96.4033 157.048 96.4033C156.133 96.4033 155.393 95.662 155.393 94.7486C155.393 93.834 156.133 93.0926 157.048 93.0926C157.962 93.0926 158.704 93.834 158.704 94.7486Z" fill="white"/>
<path d="M158.704 94.7486C158.704 95.662 157.962 96.4033 157.048 96.4033C156.133 96.4033 155.393 95.662 155.393 94.7486C155.393 93.834 156.133 93.0926 157.048 93.0926C157.962 93.0926 158.704 93.834 158.704 94.7486Z" stroke="white" stroke-miterlimit="10" stroke-linejoin="round"/>
<path d="M158.704 106.957C158.704 107.872 157.962 108.613 157.048 108.613C156.133 108.613 155.393 107.872 155.393 106.957C155.393 106.043 156.133 105.301 157.048 105.301C157.962 105.301 158.704 106.043 158.704 106.957Z" fill="white"/>
<path d="M158.704 106.957C158.704 107.872 157.962 108.613 157.048 108.613C156.133 108.613 155.393 107.872 155.393 106.957C155.393 106.043 156.133 105.301 157.048 105.301C157.962 105.301 158.704 106.043 158.704 106.957Z" stroke="white" stroke-miterlimit="10" stroke-linejoin="round"/>
<path d="M158.704 119.165C158.704 120.08 157.962 120.821 157.048 120.821C156.133 120.821 155.393 120.08 155.393 119.165C155.393 118.251 156.133 117.509 157.048 117.509C157.962 117.509 158.704 118.251 158.704 119.165Z" fill="white"/>
<path d="M158.704 119.165C158.704 120.08 157.962 120.821 157.048 120.821C156.133 120.821 155.393 120.08 155.393 119.165C155.393 118.251 156.133 117.509 157.048 117.509C157.962 117.509 158.704 118.251 158.704 119.165Z" stroke="white" stroke-miterlimit="10" stroke-linejoin="round"/>
<path d="M168.083 40.5051C168.083 41.4197 167.342 42.1611 166.427 42.1611C165.513 42.1611 164.771 41.4197 164.771 40.5051C164.771 39.5904 165.513 38.8491 166.427 38.8491C167.342 38.8491 168.083 39.5904 168.083 40.5051Z" fill="white"/>
<path d="M168.083 40.5051C168.083 41.4197 167.342 42.1611 166.427 42.1611C165.513 42.1611 164.771 41.4197 164.771 40.5051C164.771 39.5904 165.513 38.8491 166.427 38.8491C167.342 38.8491 168.083 39.5904 168.083 40.5051Z" stroke="white" stroke-miterlimit="10" stroke-linejoin="round"/>
<path d="M168.083 52.7132C168.083 53.6278 167.342 54.3691 166.427 54.3691C165.513 54.3691 164.771 53.6278 164.771 52.7132C164.771 51.7985 165.513 51.0585 166.427 51.0585C167.342 51.0585 168.083 51.7985 168.083 52.7132Z" fill="white"/>
<path d="M168.083 52.7132C168.083 53.6278 167.342 54.3691 166.427 54.3691C165.513 54.3691 164.771 53.6278 164.771 52.7132C164.771 51.7985 165.513 51.0585 166.427 51.0585C167.342 51.0585 168.083 51.7985 168.083 52.7132Z" stroke="white" stroke-miterlimit="10" stroke-linejoin="round"/>
<path d="M168.083 64.9225C168.083 65.8372 167.342 66.5771 166.427 66.5771C165.513 66.5771 164.771 65.8372 164.771 64.9225C164.771 64.0079 165.513 63.2665 166.427 63.2665C167.342 63.2665 168.083 64.0079 168.083 64.9225Z" fill="white"/>
<path d="M168.083 64.9225C168.083 65.8372 167.342 66.5771 166.427 66.5771C165.513 66.5771 164.771 65.8372 164.771 64.9225C164.771 64.0079 165.513 63.2665 166.427 63.2665C167.342 63.2665 168.083 64.0079 168.083 64.9225Z" stroke="white" stroke-miterlimit="10" stroke-linejoin="round"/>
<path d="M168.083 77.1301C168.083 78.0435 167.342 78.7861 166.427 78.7861C165.513 78.7861 164.771 78.0435 164.771 77.1301C164.771 76.2155 165.513 75.4741 166.427 75.4741C167.342 75.4741 168.083 76.2155 168.083 77.1301Z" fill="white"/>
<path d="M168.083 77.1301C168.083 78.0435 167.342 78.7861 166.427 78.7861C165.513 78.7861 164.771 78.0435 164.771 77.1301C164.771 76.2155 165.513 75.4741 166.427 75.4741C167.342 75.4741 168.083 76.2155 168.083 77.1301Z" stroke="white" stroke-miterlimit="10" stroke-linejoin="round"/>
<path d="M168.083 89.3381C168.083 90.2528 167.342 90.9941 166.427 90.9941C165.513 90.9941 164.771 90.2528 164.771 89.3381C164.771 88.4234 165.513 87.6821 166.427 87.6821C167.342 87.6821 168.083 88.4234 168.083 89.3381Z" fill="white"/>
<path d="M168.083 89.3381C168.083 90.2528 167.342 90.9941 166.427 90.9941C165.513 90.9941 164.771 90.2528 164.771 89.3381C164.771 88.4234 165.513 87.6821 166.427 87.6821C167.342 87.6821 168.083 88.4234 168.083 89.3381Z" stroke="white" stroke-miterlimit="10" stroke-linejoin="round"/>
<path d="M168.083 101.546C168.083 102.461 167.342 103.202 166.427 103.202C165.513 103.202 164.771 102.461 164.771 101.546C164.771 100.631 165.513 99.8902 166.427 99.8902C167.342 99.8902 168.083 100.631 168.083 101.546Z" fill="white"/>
<path d="M168.083 101.546C168.083 102.461 167.342 103.202 166.427 103.202C165.513 103.202 164.771 102.461 164.771 101.546C164.771 100.631 165.513 99.8902 166.427 99.8902C167.342 99.8902 168.083 100.631 168.083 101.546Z" stroke="white" stroke-miterlimit="10" stroke-linejoin="round"/>
<path d="M168.083 113.754C168.083 114.669 167.342 115.41 166.427 115.41C165.513 115.41 164.771 114.669 164.771 113.754C164.771 112.839 165.513 112.098 166.427 112.098C167.342 112.098 168.083 112.839 168.083 113.754Z" fill="white"/>
<path d="M168.083 113.754C168.083 114.669 167.342 115.41 166.427 115.41C165.513 115.41 164.771 114.669 164.771 113.754C164.771 112.839 165.513 112.098 166.427 112.098C167.342 112.098 168.083 112.839 168.083 113.754Z" stroke="white" stroke-miterlimit="10" stroke-linejoin="round"/>
<path d="M168.083 125.962C168.083 126.877 167.342 127.618 166.427 127.618C165.513 127.618 164.771 126.877 164.771 125.962C164.771 125.049 165.513 124.308 166.427 124.308C167.342 124.308 168.083 125.049 168.083 125.962Z" fill="white"/>
<path d="M168.083 125.962C168.083 126.877 167.342 127.618 166.427 127.618C165.513 127.618 164.771 126.877 164.771 125.962C164.771 125.049 165.513 124.308 166.427 124.308C167.342 124.308 168.083 125.049 168.083 125.962Z" stroke="white" stroke-miterlimit="10" stroke-linejoin="round"/>
<path d="M177.462 33.7076C177.462 34.6223 176.721 35.3623 175.806 35.3623C174.892 35.3623 174.15 34.6223 174.15 33.7076C174.15 32.793 174.892 32.0516 175.806 32.0516C176.721 32.0516 177.462 32.793 177.462 33.7076Z" fill="white"/>
<path d="M177.462 33.7076C177.462 34.6223 176.721 35.3623 175.806 35.3623C174.892 35.3623 174.15 34.6223 174.15 33.7076C174.15 32.793 174.892 32.0516 175.806 32.0516C176.721 32.0516 177.462 32.793 177.462 33.7076Z" stroke="white" stroke-miterlimit="10" stroke-linejoin="round"/>
<path d="M177.462 45.9153C177.462 46.83 176.721 47.5713 175.806 47.5713C174.892 47.5713 174.15 46.83 174.15 45.9153C174.15 45.0006 174.892 44.2593 175.806 44.2593C176.721 44.2593 177.462 45.0006 177.462 45.9153Z" fill="white"/>
<path d="M177.462 45.9153C177.462 46.83 176.721 47.5713 175.806 47.5713C174.892 47.5713 174.15 46.83 174.15 45.9153C174.15 45.0006 174.892 44.2593 175.806 44.2593C176.721 44.2593 177.462 45.0006 177.462 45.9153Z" stroke="white" stroke-miterlimit="10" stroke-linejoin="round"/>
<path d="M177.462 58.1233C177.462 59.038 176.721 59.7793 175.806 59.7793C174.892 59.7793 174.15 59.038 174.15 58.1233C174.15 57.2086 174.892 56.4673 175.806 56.4673C176.721 56.4673 177.462 57.2086 177.462 58.1233Z" fill="white"/>
<path d="M177.462 58.1233C177.462 59.038 176.721 59.7793 175.806 59.7793C174.892 59.7793 174.15 59.038 174.15 58.1233C174.15 57.2086 174.892 56.4673 175.806 56.4673C176.721 56.4673 177.462 57.2086 177.462 58.1233Z" stroke="white" stroke-miterlimit="10" stroke-linejoin="round"/>
<path d="M177.462 70.3313C177.462 71.246 176.721 71.9873 175.806 71.9873C174.892 71.9873 174.15 71.246 174.15 70.3313C174.15 69.4166 174.892 68.6766 175.806 68.6766C176.721 68.6766 177.462 69.4166 177.462 70.3313Z" fill="white"/>
<path d="M177.462 70.3313C177.462 71.246 176.721 71.9873 175.806 71.9873C174.892 71.9873 174.15 71.246 174.15 70.3313C174.15 69.4166 174.892 68.6766 175.806 68.6766C176.721 68.6766 177.462 69.4166 177.462 70.3313Z" stroke="white" stroke-miterlimit="10" stroke-linejoin="round"/>
<path d="M177.462 82.5393C177.462 83.454 176.721 84.1953 175.806 84.1953C174.892 84.1953 174.15 83.454 174.15 82.5393C174.15 81.626 174.892 80.8833 175.806 80.8833C176.721 80.8833 177.462 81.626 177.462 82.5393Z" fill="white"/>
<path d="M177.462 82.5393C177.462 83.454 176.721 84.1953 175.806 84.1953C174.892 84.1953 174.15 83.454 174.15 82.5393C174.15 81.626 174.892 80.8833 175.806 80.8833C176.721 80.8833 177.462 81.626 177.462 82.5393Z" stroke="white" stroke-miterlimit="10" stroke-linejoin="round"/>
<path d="M177.462 94.7486C177.462 95.662 176.721 96.4033 175.806 96.4033C174.892 96.4033 174.15 95.662 174.15 94.7486C174.15 93.834 174.892 93.0926 175.806 93.0926C176.721 93.0926 177.462 93.834 177.462 94.7486Z" fill="white"/>
<path d="M177.462 94.7486C177.462 95.662 176.721 96.4033 175.806 96.4033C174.892 96.4033 174.15 95.662 174.15 94.7486C174.15 93.834 174.892 93.0926 175.806 93.0926C176.721 93.0926 177.462 93.834 177.462 94.7486Z" stroke="white" stroke-miterlimit="10" stroke-linejoin="round"/>
<path d="M177.462 106.957C177.462 107.872 176.721 108.613 175.806 108.613C174.892 108.613 174.15 107.872 174.15 106.957C174.15 106.043 174.892 105.301 175.806 105.301C176.721 105.301 177.462 106.043 177.462 106.957Z" fill="white"/>
<path d="M177.462 106.957C177.462 107.872 176.721 108.613 175.806 108.613C174.892 108.613 174.15 107.872 174.15 106.957C174.15 106.043 174.892 105.301 175.806 105.301C176.721 105.301 177.462 106.043 177.462 106.957Z" stroke="white" stroke-miterlimit="10" stroke-linejoin="round"/>
<path d="M177.462 119.165C177.462 120.08 176.721 120.821 175.806 120.821C174.892 120.821 174.15 120.08 174.15 119.165C174.15 118.251 174.892 117.509 175.806 117.509C176.721 117.509 177.462 118.251 177.462 119.165Z" fill="white"/>
<path d="M177.462 119.165C177.462 120.08 176.721 120.821 175.806 120.821C174.892 120.821 174.15 120.08 174.15 119.165C174.15 118.251 174.892 117.509 175.806 117.509C176.721 117.509 177.462 118.251 177.462 119.165Z" stroke="white" stroke-miterlimit="10" stroke-linejoin="round"/>
<path d="M186.841 40.5051C186.841 41.4197 186.1 42.1611 185.185 42.1611C184.272 42.1611 183.53 41.4197 183.53 40.5051C183.53 39.5904 184.272 38.8491 185.185 38.8491C186.1 38.8491 186.841 39.5904 186.841 40.5051Z" fill="white"/>
<path d="M186.841 40.5051C186.841 41.4197 186.1 42.1611 185.185 42.1611C184.272 42.1611 183.53 41.4197 183.53 40.5051C183.53 39.5904 184.272 38.8491 185.185 38.8491C186.1 38.8491 186.841 39.5904 186.841 40.5051Z" stroke="white" stroke-miterlimit="10" stroke-linejoin="round"/>
<path d="M186.841 52.7132C186.841 53.6278 186.1 54.3691 185.185 54.3691C184.272 54.3691 183.53 53.6278 183.53 52.7132C183.53 51.7985 184.272 51.0585 185.185 51.0585C186.1 51.0585 186.841 51.7985 186.841 52.7132Z" fill="white"/>
<path d="M186.841 52.7132C186.841 53.6278 186.1 54.3691 185.185 54.3691C184.272 54.3691 183.53 53.6278 183.53 52.7132C183.53 51.7985 184.272 51.0585 185.185 51.0585C186.1 51.0585 186.841 51.7985 186.841 52.7132Z" stroke="white" stroke-miterlimit="10" stroke-linejoin="round"/>
<path d="M186.841 64.9225C186.841 65.8372 186.1 66.5771 185.185 66.5771C184.272 66.5771 183.53 65.8372 183.53 64.9225C183.53 64.0079 184.272 63.2665 185.185 63.2665C186.1 63.2665 186.841 64.0079 186.841 64.9225Z" fill="white"/>
<path d="M186.841 64.9225C186.841 65.8372 186.1 66.5771 185.185 66.5771C184.272 66.5771 183.53 65.8372 183.53 64.9225C183.53 64.0079 184.272 63.2665 185.185 63.2665C186.1 63.2665 186.841 64.0079 186.841 64.9225Z" stroke="white" stroke-miterlimit="10" stroke-linejoin="round"/>
<path d="M186.841 77.1301C186.841 78.0435 186.1 78.7861 185.185 78.7861C184.272 78.7861 183.53 78.0435 183.53 77.1301C183.53 76.2155 184.272 75.4741 185.185 75.4741C186.1 75.4741 186.841 76.2155 186.841 77.1301Z" fill="white"/>
<path d="M186.841 77.1301C186.841 78.0435 186.1 78.7861 185.185 78.7861C184.272 78.7861 183.53 78.0435 183.53 77.1301C183.53 76.2155 184.272 75.4741 185.185 75.4741C186.1 75.4741 186.841 76.2155 186.841 77.1301Z" stroke="white" stroke-miterlimit="10" stroke-linejoin="round"/>
<path d="M186.841 89.3381C186.841 90.2528 186.1 90.9941 185.185 90.9941C184.272 90.9941 183.53 90.2528 183.53 89.3381C183.53 88.4234 184.272 87.6821 185.185 87.6821C186.1 87.6821 186.841 88.4234 186.841 89.3381Z" fill="white"/>
<path d="M186.841 89.3381C186.841 90.2528 186.1 90.9941 185.185 90.9941C184.272 90.9941 183.53 90.2528 183.53 89.3381C183.53 88.4234 184.272 87.6821 185.185 87.6821C186.1 87.6821 186.841 88.4234 186.841 89.3381Z" stroke="white" stroke-miterlimit="10" stroke-linejoin="round"/>
<path d="M186.841 101.546C186.841 102.461 186.1 103.202 185.185 103.202C184.272 103.202 183.53 102.461 183.53 101.546C183.53 100.631 184.272 99.8902 185.185 99.8902C186.1 99.8902 186.841 100.631 186.841 101.546Z" fill="white"/>
<path d="M186.841 101.546C186.841 102.461 186.1 103.202 185.185 103.202C184.272 103.202 183.53 102.461 183.53 101.546C183.53 100.631 184.272 99.8902 185.185 99.8902C186.1 99.8902 186.841 100.631 186.841 101.546Z" stroke="white" stroke-miterlimit="10" stroke-linejoin="round"/>
<path d="M186.841 113.754C186.841 114.669 186.1 115.41 185.185 115.41C184.272 115.41 183.53 114.669 183.53 113.754C183.53 112.839 184.272 112.098 185.185 112.098C186.1 112.098 186.841 112.839 186.841 113.754Z" fill="white"/>
<path d="M186.841 113.754C186.841 114.669 186.1 115.41 185.185 115.41C184.272 115.41 183.53 114.669 183.53 113.754C183.53 112.839 184.272 112.098 185.185 112.098C186.1 112.098 186.841 112.839 186.841 113.754Z" stroke="white" stroke-miterlimit="10" stroke-linejoin="round"/>
<path d="M186.841 125.962C186.841 126.877 186.1 127.618 185.185 127.618C184.272 127.618 183.53 126.877 183.53 125.962C183.53 125.049 184.272 124.308 185.185 124.308C186.1 124.308 186.841 125.049 186.841 125.962Z" fill="white"/>
<path d="M186.841 125.962C186.841 126.877 186.1 127.618 185.185 127.618C184.272 127.618 183.53 126.877 183.53 125.962C183.53 125.049 184.272 124.308 185.185 124.308C186.1 124.308 186.841 125.049 186.841 125.962Z" stroke="white" stroke-miterlimit="10" stroke-linejoin="round"/>
<path d="M196.221 33.7076C196.221 34.6223 195.48 35.3623 194.565 35.3623C193.651 35.3623 192.909 34.6223 192.909 33.7076C192.909 32.793 193.651 32.0516 194.565 32.0516C195.48 32.0516 196.221 32.793 196.221 33.7076Z" fill="white"/>
<path d="M196.221 33.7076C196.221 34.6223 195.48 35.3623 194.565 35.3623C193.651 35.3623 192.909 34.6223 192.909 33.7076C192.909 32.793 193.651 32.0516 194.565 32.0516C195.48 32.0516 196.221 32.793 196.221 33.7076Z" stroke="white" stroke-miterlimit="10" stroke-linejoin="round"/>
<path d="M196.221 45.9153C196.221 46.83 195.48 47.5713 194.565 47.5713C193.651 47.5713 192.909 46.83 192.909 45.9153C192.909 45.0006 193.651 44.2593 194.565 44.2593C195.48 44.2593 196.221 45.0006 196.221 45.9153Z" fill="white"/>
<path d="M196.221 45.9153C196.221 46.83 195.48 47.5713 194.565 47.5713C193.651 47.5713 192.909 46.83 192.909 45.9153C192.909 45.0006 193.651 44.2593 194.565 44.2593C195.48 44.2593 196.221 45.0006 196.221 45.9153Z" stroke="white" stroke-miterlimit="10" stroke-linejoin="round"/>
<path d="M196.221 58.1233C196.221 59.038 195.48 59.7793 194.565 59.7793C193.651 59.7793 192.909 59.038 192.909 58.1233C192.909 57.2086 193.651 56.4673 194.565 56.4673C195.48 56.4673 196.221 57.2086 196.221 58.1233Z" fill="white"/>
<path d="M196.221 58.1233C196.221 59.038 195.48 59.7793 194.565 59.7793C193.651 59.7793 192.909 59.038 192.909 58.1233C192.909 57.2086 193.651 56.4673 194.565 56.4673C195.48 56.4673 196.221 57.2086 196.221 58.1233Z" stroke="white" stroke-miterlimit="10" stroke-linejoin="round"/>
<path d="M196.221 70.3313C196.221 71.246 195.48 71.9873 194.565 71.9873C193.651 71.9873 192.909 71.246 192.909 70.3313C192.909 69.4166 193.651 68.6766 194.565 68.6766C195.48 68.6766 196.221 69.4166 196.221 70.3313Z" fill="white"/>
<path d="M196.221 70.3313C196.221 71.246 195.48 71.9873 194.565 71.9873C193.651 71.9873 192.909 71.246 192.909 70.3313C192.909 69.4166 193.651 68.6766 194.565 68.6766C195.48 68.6766 196.221 69.4166 196.221 70.3313Z" stroke="white" stroke-miterlimit="10" stroke-linejoin="round"/>
<path d="M196.221 82.5393C196.221 83.454 195.48 84.1953 194.565 84.1953C193.651 84.1953 192.909 83.454 192.909 82.5393C192.909 81.626 193.651 80.8833 194.565 80.8833C195.48 80.8833 196.221 81.626 196.221 82.5393Z" fill="white"/>
<path d="M196.221 82.5393C196.221 83.454 195.48 84.1953 194.565 84.1953C193.651 84.1953 192.909 83.454 192.909 82.5393C192.909 81.626 193.651 80.8833 194.565 80.8833C195.48 80.8833 196.221 81.626 196.221 82.5393Z" stroke="white" stroke-miterlimit="10" stroke-linejoin="round"/>
<path d="M196.221 94.7486C196.221 95.662 195.48 96.4033 194.565 96.4033C193.651 96.4033 192.909 95.662 192.909 94.7486C192.909 93.834 193.651 93.0926 194.565 93.0926C195.48 93.0926 196.221 93.834 196.221 94.7486Z" fill="white"/>
<path d="M196.221 94.7486C196.221 95.662 195.48 96.4033 194.565 96.4033C193.651 96.4033 192.909 95.662 192.909 94.7486C192.909 93.834 193.651 93.0926 194.565 93.0926C195.48 93.0926 196.221 93.834 196.221 94.7486Z" stroke="white" stroke-miterlimit="10" stroke-linejoin="round"/>
<path d="M196.221 106.957C196.221 107.872 195.48 108.613 194.565 108.613C193.651 108.613 192.909 107.872 192.909 106.957C192.909 106.043 193.651 105.301 194.565 105.301C195.48 105.301 196.221 106.043 196.221 106.957Z" fill="white"/>
<path d="M196.221 106.957C196.221 107.872 195.48 108.613 194.565 108.613C193.651 108.613 192.909 107.872 192.909 106.957C192.909 106.043 193.651 105.301 194.565 105.301C195.48 105.301 196.221 106.043 196.221 106.957Z" stroke="white" stroke-miterlimit="10" stroke-linejoin="round"/>
<path d="M196.221 119.165C196.221 120.08 195.48 120.821 194.565 120.821C193.651 120.821 192.909 120.08 192.909 119.165C192.909 118.251 193.651 117.509 194.565 117.509C195.48 117.509 196.221 118.251 196.221 119.165Z" fill="white"/>
<path d="M196.221 119.165C196.221 120.08 195.48 120.821 194.565 120.821C193.651 120.821 192.909 120.08 192.909 119.165C192.909 118.251 193.651 117.509 194.565 117.509C195.48 117.509 196.221 118.251 196.221 119.165Z" stroke="white" stroke-miterlimit="10" stroke-linejoin="round"/>
<path d="M205.6 40.5051C205.6 41.4197 204.858 42.1611 203.944 42.1611C203.029 42.1611 202.288 41.4197 202.288 40.5051C202.288 39.5904 203.029 38.8491 203.944 38.8491C204.858 38.8491 205.6 39.5904 205.6 40.5051Z" fill="white"/>
<path d="M205.6 40.5051C205.6 41.4197 204.858 42.1611 203.944 42.1611C203.029 42.1611 202.288 41.4197 202.288 40.5051C202.288 39.5904 203.029 38.8491 203.944 38.8491C204.858 38.8491 205.6 39.5904 205.6 40.5051Z" stroke="white" stroke-miterlimit="10" stroke-linejoin="round"/>
<path d="M205.6 52.7132C205.6 53.6278 204.858 54.3691 203.944 54.3691C203.029 54.3691 202.288 53.6278 202.288 52.7132C202.288 51.7985 203.029 51.0585 203.944 51.0585C204.858 51.0585 205.6 51.7985 205.6 52.7132Z" fill="white"/>
<path d="M205.6 52.7132C205.6 53.6278 204.858 54.3691 203.944 54.3691C203.029 54.3691 202.288 53.6278 202.288 52.7132C202.288 51.7985 203.029 51.0585 203.944 51.0585C204.858 51.0585 205.6 51.7985 205.6 52.7132Z" stroke="white" stroke-miterlimit="10" stroke-linejoin="round"/>
<path d="M205.6 64.9225C205.6 65.8372 204.858 66.5771 203.944 66.5771C203.029 66.5771 202.288 65.8372 202.288 64.9225C202.288 64.0079 203.029 63.2665 203.944 63.2665C204.858 63.2665 205.6 64.0079 205.6 64.9225Z" fill="white"/>
<path d="M205.6 64.9225C205.6 65.8372 204.858 66.5771 203.944 66.5771C203.029 66.5771 202.288 65.8372 202.288 64.9225C202.288 64.0079 203.029 63.2665 203.944 63.2665C204.858 63.2665 205.6 64.0079 205.6 64.9225Z" stroke="white" stroke-miterlimit="10" stroke-linejoin="round"/>
<path d="M205.6 77.1301C205.6 78.0435 204.858 78.7861 203.944 78.7861C203.029 78.7861 202.288 78.0435 202.288 77.1301C202.288 76.2155 203.029 75.4741 203.944 75.4741C204.858 75.4741 205.6 76.2155 205.6 77.1301Z" fill="white"/>
<path d="M205.6 77.1301C205.6 78.0435 204.858 78.7861 203.944 78.7861C203.029 78.7861 202.288 78.0435 202.288 77.1301C202.288 76.2155 203.029 75.4741 203.944 75.4741C204.858 75.4741 205.6 76.2155 205.6 77.1301Z" stroke="white" stroke-miterlimit="10" stroke-linejoin="round"/>
<path d="M205.6 89.3381C205.6 90.2528 204.858 90.9941 203.944 90.9941C203.029 90.9941 202.288 90.2528 202.288 89.3381C202.288 88.4234 203.029 87.6821 203.944 87.6821C204.858 87.6821 205.6 88.4234 205.6 89.3381Z" fill="white"/>
<path d="M205.6 89.3381C205.6 90.2528 204.858 90.9941 203.944 90.9941C203.029 90.9941 202.288 90.2528 202.288 89.3381C202.288 88.4234 203.029 87.6821 203.944 87.6821C204.858 87.6821 205.6 88.4234 205.6 89.3381Z" stroke="white" stroke-miterlimit="10" stroke-linejoin="round"/>
<path d="M205.6 101.546C205.6 102.461 204.858 103.202 203.944 103.202C203.029 103.202 202.288 102.461 202.288 101.546C202.288 100.631 203.029 99.8902 203.944 99.8902C204.858 99.8902 205.6 100.631 205.6 101.546Z" fill="white"/>
<path d="M205.6 101.546C205.6 102.461 204.858 103.202 203.944 103.202C203.029 103.202 202.288 102.461 202.288 101.546C202.288 100.631 203.029 99.8902 203.944 99.8902C204.858 99.8902 205.6 100.631 205.6 101.546Z" stroke="white" stroke-miterlimit="10" stroke-linejoin="round"/>
<path d="M205.6 113.754C205.6 114.669 204.858 115.41 203.944 115.41C203.029 115.41 202.288 114.669 202.288 113.754C202.288 112.839 203.029 112.098 203.944 112.098C204.858 112.098 205.6 112.839 205.6 113.754Z" fill="white"/>
<path d="M205.6 113.754C205.6 114.669 204.858 115.41 203.944 115.41C203.029 115.41 202.288 114.669 202.288 113.754C202.288 112.839 203.029 112.098 203.944 112.098C204.858 112.098 205.6 112.839 205.6 113.754Z" stroke="white" stroke-miterlimit="10" stroke-linejoin="round"/>
<path d="M205.6 125.962C205.6 126.877 204.858 127.618 203.944 127.618C203.029 127.618 202.288 126.877 202.288 125.962C202.288 125.049 203.029 124.308 203.944 124.308C204.858 124.308 205.6 125.049 205.6 125.962Z" fill="white"/>
<path d="M205.6 125.962C205.6 126.877 204.858 127.618 203.944 127.618C203.029 127.618 202.288 126.877 202.288 125.962C202.288 125.049 203.029 124.308 203.944 124.308C204.858 124.308 205.6 125.049 205.6 125.962Z" stroke="white" stroke-miterlimit="10" stroke-linejoin="round"/>
<path d="M214.978 33.7076C214.978 34.6223 214.237 35.3623 213.323 35.3623C212.409 35.3623 211.667 34.6223 211.667 33.7076C211.667 32.793 212.409 32.0516 213.323 32.0516C214.237 32.0516 214.978 32.793 214.978 33.7076Z" fill="white"/>
<path d="M214.978 33.7076C214.978 34.6223 214.237 35.3623 213.323 35.3623C212.409 35.3623 211.667 34.6223 211.667 33.7076C211.667 32.793 212.409 32.0516 213.323 32.0516C214.237 32.0516 214.978 32.793 214.978 33.7076Z" stroke="white" stroke-miterlimit="10" stroke-linejoin="round"/>
<path d="M214.978 45.9153C214.978 46.83 214.237 47.5713 213.323 47.5713C212.409 47.5713 211.667 46.83 211.667 45.9153C211.667 45.0006 212.409 44.2593 213.323 44.2593C214.237 44.2593 214.978 45.0006 214.978 45.9153Z" fill="white"/>
<path d="M214.978 45.9153C214.978 46.83 214.237 47.5713 213.323 47.5713C212.409 47.5713 211.667 46.83 211.667 45.9153C211.667 45.0006 212.409 44.2593 213.323 44.2593C214.237 44.2593 214.978 45.0006 214.978 45.9153Z" stroke="white" stroke-miterlimit="10" stroke-linejoin="round"/>
<path d="M214.978 58.1233C214.978 59.038 214.237 59.7793 213.323 59.7793C212.409 59.7793 211.667 59.038 211.667 58.1233C211.667 57.2086 212.409 56.4673 213.323 56.4673C214.237 56.4673 214.978 57.2086 214.978 58.1233Z" fill="white"/>
<path d="M214.978 58.1233C214.978 59.038 214.237 59.7793 213.323 59.7793C212.409 59.7793 211.667 59.038 211.667 58.1233C211.667 57.2086 212.409 56.4673 213.323 56.4673C214.237 56.4673 214.978 57.2086 214.978 58.1233Z" stroke="white" stroke-miterlimit="10" stroke-linejoin="round"/>
<path d="M214.978 70.3313C214.978 71.246 214.237 71.9873 213.323 71.9873C212.409 71.9873 211.667 71.246 211.667 70.3313C211.667 69.4166 212.409 68.6766 213.323 68.6766C214.237 68.6766 214.978 69.4166 214.978 70.3313Z" fill="white"/>
<path d="M214.978 70.3313C214.978 71.246 214.237 71.9873 213.323 71.9873C212.409 71.9873 211.667 71.246 211.667 70.3313C211.667 69.4166 212.409 68.6766 213.323 68.6766C214.237 68.6766 214.978 69.4166 214.978 70.3313Z" stroke="white" stroke-miterlimit="10" stroke-linejoin="round"/>
<path d="M214.978 82.5393C214.978 83.454 214.237 84.1953 213.323 84.1953C212.409 84.1953 211.667 83.454 211.667 82.5393C211.667 81.626 212.409 80.8833 213.323 80.8833C214.237 80.8833 214.978 81.626 214.978 82.5393Z" fill="white"/>
<path d="M214.978 82.5393C214.978 83.454 214.237 84.1953 213.323 84.1953C212.409 84.1953 211.667 83.454 211.667 82.5393C211.667 81.626 212.409 80.8833 213.323 80.8833C214.237 80.8833 214.978 81.626 214.978 82.5393Z" stroke="white" stroke-miterlimit="10" stroke-linejoin="round"/>
<path d="M214.978 94.7486C214.978 95.662 214.237 96.4033 213.323 96.4033C212.409 96.4033 211.667 95.662 211.667 94.7486C211.667 93.834 212.409 93.0926 213.323 93.0926C214.237 93.0926 214.978 93.834 214.978 94.7486Z" fill="white"/>
<path d="M214.978 94.7486C214.978 95.662 214.237 96.4033 213.323 96.4033C212.409 96.4033 211.667 95.662 211.667 94.7486C211.667 93.834 212.409 93.0926 213.323 93.0926C214.237 93.0926 214.978 93.834 214.978 94.7486Z" stroke="white" stroke-miterlimit="10" stroke-linejoin="round"/>
<path d="M214.978 106.957C214.978 107.872 214.237 108.613 213.323 108.613C212.409 108.613 211.667 107.872 211.667 106.957C211.667 106.043 212.409 105.301 213.323 105.301C214.237 105.301 214.978 106.043 214.978 106.957Z" fill="white"/>
<path d="M214.978 106.957C214.978 107.872 214.237 108.613 213.323 108.613C212.409 108.613 211.667 107.872 211.667 106.957C211.667 106.043 212.409 105.301 213.323 105.301C214.237 105.301 214.978 106.043 214.978 106.957Z" stroke="white" stroke-miterlimit="10" stroke-linejoin="round"/>
<path d="M214.978 119.165C214.978 120.08 214.237 120.821 213.323 120.821C212.409 120.821 211.667 120.08 211.667 119.165C211.667 118.251 212.409 117.509 213.323 117.509C214.237 117.509 214.978 118.251 214.978 119.165Z" fill="white"/>
<path d="M214.978 119.165C214.978 120.08 214.237 120.821 213.323 120.821C212.409 120.821 211.667 120.08 211.667 119.165C211.667 118.251 212.409 117.509 213.323 117.509C214.237 117.509 214.978 118.251 214.978 119.165Z" stroke="white" stroke-miterlimit="10" stroke-linejoin="round"/>
<path d="M224.358 40.5051C224.358 41.4197 223.617 42.1611 222.702 42.1611C221.788 42.1611 221.046 41.4197 221.046 40.5051C221.046 39.5904 221.788 38.8491 222.702 38.8491C223.617 38.8491 224.358 39.5904 224.358 40.5051Z" fill="white"/>
<path d="M224.358 40.5051C224.358 41.4197 223.617 42.1611 222.702 42.1611C221.788 42.1611 221.046 41.4197 221.046 40.5051C221.046 39.5904 221.788 38.8491 222.702 38.8491C223.617 38.8491 224.358 39.5904 224.358 40.5051Z" stroke="white" stroke-miterlimit="10" stroke-linejoin="round"/>
<path d="M224.358 52.7132C224.358 53.6278 223.617 54.3691 222.702 54.3691C221.788 54.3691 221.046 53.6278 221.046 52.7132C221.046 51.7985 221.788 51.0585 222.702 51.0585C223.617 51.0585 224.358 51.7985 224.358 52.7132Z" fill="white"/>
<path d="M224.358 52.7132C224.358 53.6278 223.617 54.3691 222.702 54.3691C221.788 54.3691 221.046 53.6278 221.046 52.7132C221.046 51.7985 221.788 51.0585 222.702 51.0585C223.617 51.0585 224.358 51.7985 224.358 52.7132Z" stroke="white" stroke-miterlimit="10" stroke-linejoin="round"/>
<path d="M224.358 64.9225C224.358 65.8372 223.617 66.5771 222.702 66.5771C221.788 66.5771 221.046 65.8372 221.046 64.9225C221.046 64.0079 221.788 63.2665 222.702 63.2665C223.617 63.2665 224.358 64.0079 224.358 64.9225Z" fill="white"/>
<path d="M224.358 64.9225C224.358 65.8372 223.617 66.5771 222.702 66.5771C221.788 66.5771 221.046 65.8372 221.046 64.9225C221.046 64.0079 221.788 63.2665 222.702 63.2665C223.617 63.2665 224.358 64.0079 224.358 64.9225Z" stroke="white" stroke-miterlimit="10" stroke-linejoin="round"/>
<path d="M224.358 77.1301C224.358 78.0435 223.617 78.7861 222.702 78.7861C221.788 78.7861 221.046 78.0435 221.046 77.1301C221.046 76.2155 221.788 75.4741 222.702 75.4741C223.617 75.4741 224.358 76.2155 224.358 77.1301Z" fill="white"/>
<path d="M224.358 77.1301C224.358 78.0435 223.617 78.7861 222.702 78.7861C221.788 78.7861 221.046 78.0435 221.046 77.1301C221.046 76.2155 221.788 75.4741 222.702 75.4741C223.617 75.4741 224.358 76.2155 224.358 77.1301Z" stroke="white" stroke-miterlimit="10" stroke-linejoin="round"/>
<path d="M224.358 89.3381C224.358 90.2528 223.617 90.9941 222.702 90.9941C221.788 90.9941 221.046 90.2528 221.046 89.3381C221.046 88.4234 221.788 87.6821 222.702 87.6821C223.617 87.6821 224.358 88.4234 224.358 89.3381Z" fill="white"/>
<path d="M224.358 89.3381C224.358 90.2528 223.617 90.9941 222.702 90.9941C221.788 90.9941 221.046 90.2528 221.046 89.3381C221.046 88.4234 221.788 87.6821 222.702 87.6821C223.617 87.6821 224.358 88.4234 224.358 89.3381Z" stroke="white" stroke-miterlimit="10" stroke-linejoin="round"/>
<path d="M224.358 101.546C224.358 102.461 223.617 103.202 222.702 103.202C221.788 103.202 221.046 102.461 221.046 101.546C221.046 100.631 221.788 99.8902 222.702 99.8902C223.617 99.8902 224.358 100.631 224.358 101.546Z" fill="white"/>
<path d="M224.358 101.546C224.358 102.461 223.617 103.202 222.702 103.202C221.788 103.202 221.046 102.461 221.046 101.546C221.046 100.631 221.788 99.8902 222.702 99.8902C223.617 99.8902 224.358 100.631 224.358 101.546Z" stroke="white" stroke-miterlimit="10" stroke-linejoin="round"/>
<path d="M224.358 113.754C224.358 114.669 223.617 115.41 222.702 115.41C221.788 115.41 221.046 114.669 221.046 113.754C221.046 112.839 221.788 112.098 222.702 112.098C223.617 112.098 224.358 112.839 224.358 113.754Z" fill="white"/>
<path d="M224.358 113.754C224.358 114.669 223.617 115.41 222.702 115.41C221.788 115.41 221.046 114.669 221.046 113.754C221.046 112.839 221.788 112.098 222.702 112.098C223.617 112.098 224.358 112.839 224.358 113.754Z" stroke="white" stroke-miterlimit="10" stroke-linejoin="round"/>
<path d="M224.358 125.962C224.358 126.877 223.617 127.618 222.702 127.618C221.788 127.618 221.046 126.877 221.046 125.962C221.046 125.049 221.788 124.308 222.702 124.308C223.617 124.308 224.358 125.049 224.358 125.962Z" fill="white"/>
<path d="M224.358 125.962C224.358 126.877 223.617 127.618 222.702 127.618C221.788 127.618 221.046 126.877 221.046 125.962C221.046 125.049 221.788 124.308 222.702 124.308C223.617 124.308 224.358 125.049 224.358 125.962Z" stroke="white" stroke-miterlimit="10" stroke-linejoin="round"/>
</g>
<path d="M179.588 63.8385L192.751 73.1719L205.913 63.8385L219.077 73.1719L232.237 63.8385L245.403 73.1719L258.564 63.8385L271.735 73.1719L284.904 63.8385" stroke="#F68349" stroke-width="2.66667" stroke-miterlimit="10" stroke-linejoin="round"/>
<path d="M204.72 77.236L217.883 86.5693L231.046 77.236L244.21 86.5693L257.37 77.236L270.535 86.5693L283.696 77.236L296.867 86.5693L310.036 77.236" stroke="#F68349" stroke-width="2.66667" stroke-miterlimit="10" stroke-linejoin="round"/>
<path d="M783.944 115.344L797.105 124.678L810.269 115.344L823.433 124.678L836.593 115.344L849.758 124.678" stroke="#F68349" stroke-width="2.66667" stroke-miterlimit="10" stroke-linejoin="round"/>
<path d="M809.076 128.74L822.237 138.073L835.4 128.74L848.566 138.073L861.726 128.74L874.891 138.073" stroke="#F68349" stroke-width="2.66667" stroke-miterlimit="10" stroke-linejoin="round"/>
<path d="M433.42 62.0137C433.42 72.8511 424.634 81.6377 413.795 81.6377C402.958 81.6377 394.171 72.8511 394.171 62.0137C394.171 51.1751 402.958 42.3884 413.795 42.3884C424.634 42.3884 433.42 51.1751 433.42 62.0137Z" stroke="#F7F8AC" stroke-width="2.66667" stroke-miterlimit="10" stroke-linejoin="round"/>
<path d="M105.595 375.123C105.595 386.997 95.9694 396.624 84.0943 396.624C72.2194 396.624 62.5933 386.997 62.5933 375.123C62.5933 363.248 72.2194 353.621 84.0943 353.621C95.9694 353.621 105.595 363.248 105.595 375.123Z" stroke="#F68349" stroke-width="2.66667" stroke-miterlimit="10" stroke-linejoin="round"/>
<path d="M65.3965 318.119C65.3965 323.004 61.437 326.963 56.5528 326.963C51.6684 326.963 47.7085 323.004 47.7085 318.119C47.7085 313.235 51.6684 309.275 56.5528 309.275C61.437 309.275 65.3965 313.235 65.3965 318.119Z" fill="white"/>
<path d="M507.194 93.4161C507.194 99.1214 502.568 103.748 496.863 103.748C491.158 103.748 486.532 99.1214 486.532 93.4161C486.532 87.7107 491.158 83.0854 496.863 83.0854C502.568 83.0854 507.194 87.7107 507.194 93.4161Z" fill="white"/>
<path d="M968.594 498.367C968.594 510.246 958.965 519.874 947.088 519.874C935.209 519.874 925.581 510.246 925.581 498.367C925.581 486.49 935.209 476.861 947.088 476.861C958.965 476.861 968.594 486.49 968.594 498.367Z" stroke="#F68349" stroke-width="2.66667" stroke-miterlimit="10" stroke-linejoin="round"/>
<path d="M764.107 277.563L732.449 303.475L771.405 320.113L764.107 277.563Z" fill="#F7F8AC"/>
<path d="M337.242 155.933L321.566 166.674L338.938 175.914L337.242 155.933Z" fill="white"/>
<path d="M646.521 68.6661L641.619 85.3848L659.313 81.8728L646.521 68.6661Z" fill="white"/>
<path d="M949.92 475.8C949.92 481.039 945.673 485.284 940.435 485.284C935.197 485.284 930.951 481.039 930.951 475.8C930.951 470.563 935.197 466.316 940.435 466.316C945.673 466.316 949.92 470.563 949.92 475.8Z" fill="#F7F8AC"/>
<path d="M853.326 607.27H626.898V515.828H853.326V607.27Z" fill="#F4A787"/>
<path d="M853.327 607.27H916.911V515.828H853.327V607.27Z" fill="#FABD97"/>
<path d="M853.327 515.828V607.27" stroke="#B06C4F" stroke-width="2" stroke-miterlimit="10" stroke-linejoin="round"/>
<path d="M883.061 515.828H777.481V373.479H883.061V515.828Z" fill="#FBC2A6"/>
<path d="M777.481 515.828H711.025V373.479H777.481V515.828Z" fill="#FABD97"/>
<path d="M769.465 403.445H736.412V389.051H769.465V403.445Z" fill="white"/>
<path d="M801.369 404.863H792.982V373.479H801.369V404.863Z" fill="#F4A787"/>
<path d="M876.159 404.863H867.773V373.479H876.159V404.863Z" fill="#F4A787"/>
<path d="M883.061 502.904H777.481V493.831H883.061V502.904Z" fill="#F4A787"/>
<path d="M883.061 391.466H777.481V382.392H883.061V391.466Z" fill="#F4A787"/>
<path d="M711.025 502.904H777.481V493.831H711.025V502.904Z" fill="#DE9778"/>
<path d="M711.025 391.466H777.481V382.392H711.025V391.466Z" fill="#DE9778"/>
<path d="M777.481 373.479V515.828" stroke="#B06C4F" stroke-width="2" stroke-miterlimit="10" stroke-linejoin="round"/>
<path d="M454.059 327.272C494.072 335.655 537 361.18 548.096 391.359C556.845 415.152 562.181 440.495 567.235 465.403C569.389 476.02 571.423 486.671 573.239 497.36L479.255 500.232L460.26 410.032" fill="#3B2B79"/>
<path d="M634.61 458.38C634.61 458.38 640.285 441.101 645.928 426.507C649.762 416.587 652.49 412.691 657.098 408C665.394 399.553 663.122 384.371 664.133 373.276C665.201 361.568 668.385 350.208 671.553 338.935L623.582 306.957L595.67 363.22L567.508 417.884L634.61 458.38Z" fill="#F79879"/>
<path d="M603.686 325.165C608.632 315.427 616.192 306.527 623.572 300.381C626.227 298.169 629.076 296.106 632.311 295.079C637.595 293.405 641.807 294.449 645.928 298.331C650.048 302.215 650.043 307.769 649.086 313.522C653.062 313.491 658.779 314.147 661.378 317.334C663.978 320.522 664.663 323.831 664.055 327.993C667.35 327.718 672.038 330.793 673.316 334.019C674.595 337.247 674.767 338.541 674.767 342.291C676.535 341.87 678.412 345.102 679.178 346.429C682.235 351.731 682.382 358.637 680.736 364.47C679.463 368.985 676.791 375.737 672.423 377.757C668.946 379.365 664.261 377.045 663.107 374.845C661.265 376.069 658.563 376.011 657.027 375.831C653.262 375.393 650.632 370.691 649.998 366.871C646.556 369.197 641.316 368.943 638.394 365.926C634.839 362.257 633.738 357.317 634.287 353.235C632.956 354.629 626.611 355.854 624.412 355.483C617.084 354.249 612.762 348.938 611.395 341.214" fill="#F79879"/>
<path d="M665.645 377.156C664.469 376.511 663.54 375.67 663.107 374.844C661.265 376.068 658.563 376.011 657.027 375.831C653.261 375.392 650.632 370.691 649.997 366.871C646.556 369.196 641.316 368.943 638.393 365.926C634.839 362.256 633.737 357.316 634.287 353.235C632.956 354.628 626.611 355.854 624.412 355.483C617.084 354.248 612.761 348.938 611.395 341.214" stroke="#040606" stroke-width="2" stroke-miterlimit="10" stroke-linejoin="round"/>
<path d="M619.224 335.949C623.535 326.847 626.488 317.024 627.941 306.957" stroke="#040606" stroke-width="2" stroke-miterlimit="10" stroke-linejoin="round"/>
<path d="M634.287 353.235C634.287 353.235 647.28 339.583 649.085 313.522" stroke="#040606" stroke-width="2" stroke-miterlimit="10" stroke-linejoin="round"/>
<path d="M664.054 327.992C664.054 327.992 661.833 353.304 649.997 366.871" stroke="#040606" stroke-width="2" stroke-miterlimit="10" stroke-linejoin="round"/>
<path d="M663.106 374.845C663.106 374.845 673.654 358.394 674.766 342.291" stroke="#040606" stroke-width="2" stroke-miterlimit="10" stroke-linejoin="round"/>
<path d="M564.592 422.449C564.592 422.449 571.917 412.304 580.609 391.067C587.126 375.144 593.064 340.396 595.465 327.089C596.848 319.428 597.413 311.493 596.364 303.728C595.685 298.7 591.246 289.908 596.234 286.327C601.009 282.899 607.635 285.187 611.463 289.953C618.331 298.507 619.128 311.784 619.273 322.52C619.364 329.176 619.376 335.231 621.149 341.724C623.912 351.839 629.637 360.517 632.552 370.383C635.548 380.521 635.892 391.541 633.434 401.847" fill="#F79879"/>
<path d="M617.889 305.419C618.965 311.148 619.201 317.152 619.273 322.52C619.364 329.176 619.376 335.231 621.149 341.724C623.912 351.839 629.637 360.517 632.552 370.383C635.548 380.521 635.892 391.541 633.434 401.847" stroke="#040606" stroke-width="2" stroke-miterlimit="10" stroke-linejoin="round"/>
<path d="M577.597 398.124L515.18 499.134L482.931 500.232C482.931 500.232 493.132 543.456 499.857 565.139C505.691 583.947 515.18 607.27 541.923 607.27C571.529 607.27 594.115 576.503 609.441 534.917C624.768 493.331 645.928 426.507 645.928 426.507" fill="#F79879"/>
<path d="M508.185 402.838C483.576 461.46 453.8 545.65 439.891 607.27H187.247C201.067 568.927 239.025 476.271 252.845 437.928C264.565 405.412 276.863 371.943 301.212 346.27C308.663 338.415 317.129 331.43 326.153 325.18C335.425 318.758 345.361 313.07 356.124 309.178L392.185 304.84L474.029 334.514L508.185 402.838Z" fill="#3B2B79"/>
<path d="M522.68 486.31C522.68 486.31 510.943 504.847 506.983 511.346C498.176 525.802 499.261 539.39 499.261 539.39" stroke="#040606" stroke-width="2" stroke-miterlimit="10" stroke-linejoin="round"/>
<path d="M476.076 483.262C486.207 459.271 492.319 425.65 513.459 406.047" stroke="#040606" stroke-width="2" stroke-miterlimit="10" stroke-linejoin="round"/>
<path d="M530.901 607.27H439.844V491.42H530.901V607.27Z" fill="#02607C"/>
<path d="M498.68 447.452H407.624L439.844 491.42H530.901L498.68 447.452Z" fill="#046D8C"/>
<path d="M530.901 607.27H725.612V491.42H530.901V607.27Z" fill="#00A3D4"/>
<path d="M563.121 447.452H757.832L725.612 491.42H530.901L563.121 447.452Z" fill="#00526A"/>
<path d="M651.248 447.452H682.909L659.499 479.397H627.837L651.248 447.452Z" fill="#00455A"/>
<path d="M468.721 447.452H437.06L460.471 479.397H492.132L468.721 447.452Z" fill="#00556F"/>
<path d="M713.704 544.664H673.734V508.283H713.704V544.664Z" fill="#007EA4"/>
<path d="M693.719 514.394C683.593 514.394 678.75 524.142 678.75 524.142C678.75 524.142 681.077 523.281 682.586 523.281C684.096 523.281 686.361 524.142 686.361 524.142C686.361 524.142 688.436 523.281 690.008 523.281C690.92 523.281 692.01 523.569 692.776 523.813V535.602C692.776 536.187 692.299 536.665 691.711 536.665C691.123 536.665 690.647 536.187 690.647 535.602V533.969H688.757V535.602C688.757 537.229 690.083 538.553 691.711 538.553C693.339 538.553 694.664 537.229 694.664 535.602V523.811C695.429 523.569 696.519 523.281 697.429 523.281C699.001 523.281 701.077 524.142 701.077 524.142C701.077 524.142 703.341 523.281 704.85 523.281C706.36 523.281 708.688 524.142 708.688 524.142C708.688 524.142 703.845 514.394 693.719 514.394Z" fill="#18BDEF"/>
<path d="M664.878 516.996H609.152" stroke="#3EC2EA" stroke-width="2" stroke-miterlimit="10"/>
<path d="M664.878 529.586H609.152" stroke="#3EC2EA" stroke-width="2" stroke-miterlimit="10"/>
<path d="M664.879 542.177H626.6" stroke="#3EC2EA" stroke-width="2" stroke-miterlimit="10"/>
<path d="M708.688 592.904H663.834V577.792H708.688V592.904Z" fill="white"/>
<path d="M704.668 580.97V590.4" stroke="#008CB6" stroke-width="1.33333" stroke-miterlimit="10"/>
<path d="M699.996 580.97V590.4" stroke="#008CB6" stroke-width="2.66667" stroke-miterlimit="10"/>
<path d="M690.643 580.97V590.4" stroke="#008CB6" stroke-width="1.33333" stroke-miterlimit="10"/>
<path d="M695.325 580.97V590.4" stroke="#008CB6" stroke-width="2.66667" stroke-miterlimit="10"/>
<path d="M672.656 580.97V590.4" stroke="#008CB6" stroke-width="2.66667" stroke-miterlimit="10"/>
<path d="M683.022 580.97V590.4" stroke="#008CB6" stroke-width="4" stroke-miterlimit="10"/>
<path d="M676.756 580.97V590.4" stroke="#008CB6" stroke-width="1.33333" stroke-miterlimit="10"/>
<path d="M668.668 580.97V590.4" stroke="#008CB6" stroke-width="1.33333" stroke-miterlimit="10"/>
<path d="M363.821 450.267L343.119 510.719L455.268 532.167L442.189 607.231C442.189 607.231 270.285 607.27 240.205 607.27C210.125 607.27 192.057 569.065 197.679 543.619C207.532 499.018 251.097 409.296 251.097 409.296" fill="#F79879"/>
<path d="M559.304 518.83C553.324 515.122 549.895 513.574 543.359 511.084C538.896 509.386 534.304 508.087 529.653 507.163C512.959 503.847 495.925 505.426 479.635 508.687C465.739 511.47 452.48 516.622 439.667 522.584C426.855 528.547 397.509 525.955 397.509 525.955L407.905 607.105C407.905 607.105 449.195 607.27 457.933 607.27C466.671 607.27 481.708 603.889 486.699 601.195C501.147 593.392 512.045 575.84 518.273 576.143C524.125 576.426 530.149 580.036 532.977 584.308C535.625 588.308 535.288 593.262 540.503 597.736C544.105 600.827 554.687 602.774 555.528 594.808C555.523 594.698 555.511 594.587 555.504 594.476C557.167 594.747 558.823 594.588 560.243 593.762C563.964 591.595 565.811 585.076 565.432 580.668C565.411 580.411 565.376 580.152 565.353 579.895C567.572 581.027 569.691 581.7 572.092 581.323C580.956 579.932 579.896 572.57 577.205 563.522C578.259 563.663 579.319 563.716 580.383 563.611C589.273 562.734 585.424 551.648 583.159 547.036C578.361 537.267 568.868 524.759 559.304 518.83Z" fill="#F79879"/>
<path d="M528.547 516.997C540.583 519.703 558.586 527.189 567.143 540.267C569.772 544.286 574.95 553.627 577.211 563.538" stroke="#040606" stroke-width="2" stroke-miterlimit="10" stroke-linejoin="round"/>
<path d="M524.677 532.167C530.46 533.178 541.756 536.831 546.743 540.051C560.063 548.653 565.461 562.23 565.461 585.812" stroke="#040606" stroke-width="2" stroke-miterlimit="10" stroke-linejoin="round"/>
<path d="M555.528 594.809C554.819 581.456 551.371 568.829 542.086 559.266C535.468 552.451 528.195 548.696 518.616 546.12" stroke="#040606" stroke-width="2" stroke-miterlimit="10" stroke-linejoin="round"/>
<path d="M553.277 582.965C552.017 583.152 550.759 583.339 549.499 583.525C548.083 583.734 546.485 584.059 545.733 585.277C545.484 585.681 545.356 586.151 545.299 586.621C545.073 588.461 545.941 590.36 547.391 591.516C548.839 592.672 550.801 593.104 552.632 592.82C553.583 592.672 554.504 592.343 555.332 591.853" stroke="#040606" stroke-width="2" stroke-miterlimit="10" stroke-linejoin="round"/>
<path d="M564.327 575.748C561.805 576.114 557.273 576.919 556.931 580.045C556.724 581.938 557.744 583.477 559.489 584.163C561.245 584.852 563.241 584.91 565.033 584.326" stroke="#040606" stroke-width="2" stroke-miterlimit="10" stroke-linejoin="round"/>
<path d="M569.165 570.49C568.53 571.565 568.72 573.031 569.532 573.978C570.606 575.232 572.145 575.305 573.638 574.878C574.649 574.59 577.221 574.068 577.473 572.814C577.52 572.578 577.453 572.337 577.384 572.106C577.018 570.896 576.605 569.082 575.793 568.091C574.896 566.994 574.109 567.881 573.013 568.02C571.75 568.453 569.662 569.068 569.165 570.49Z" stroke="#040606" stroke-width="2" stroke-miterlimit="10" stroke-linejoin="round"/>
<path d="M585.964 556.737C585.964 556.737 582.505 558.173 580.751 557.768C578.784 557.313 577.777 555.359 578.101 553.44C578.579 550.62 582.088 550.508 584.137 549.413" stroke="#040606" stroke-width="2" stroke-miterlimit="10" stroke-linejoin="round"/>
<path d="M392.185 304.84C392.185 304.84 355.708 293.438 329.075 298.839C310.816 302.54 295.328 309.93 284.297 324.246C261.592 353.708 222.999 453.8 222.999 453.8L353.543 486.598L391.291 375.067" fill="#3B2B79"/>
<path d="M380.144 318.054C389.884 339.4 416.389 362.558 441.316 364.675C459.213 366.195 483.657 361.659 481.052 335.926" stroke="#040606" stroke-width="2" stroke-miterlimit="10" stroke-linejoin="round"/>
<path d="M353.542 486.598L391.29 375.067" stroke="#040606" stroke-width="2" stroke-miterlimit="10" stroke-linejoin="round"/>
<path d="M343.119 510.719C343.119 510.719 304.579 504.157 293.041 505.326C281.504 506.497 258.429 511.393 258.429 511.393" stroke="#040606" stroke-width="2" stroke-miterlimit="10" stroke-linejoin="round"/>
<path d="M236.123 421.259L364.455 454.356" stroke="#040606" stroke-width="2" stroke-miterlimit="10" stroke-linejoin="round"/>
<path d="M456.032 240.715L412.152 264.244L389.695 307.379C389.695 307.379 406.375 348.026 438.993 353.128C472.469 358.364 476.793 339.098 476.793 339.098L486.073 281.04L456.032 240.715Z" fill="#F79879"/>
<path d="M511.829 202.489C517.543 219.637 520.649 237.651 521.908 255.755C523.076 272.555 525.007 292.633 518.219 308.46C505.625 337.825 457.131 328.428 439.293 310.008C430.125 300.54 424.428 287.953 419.432 275.728C415.421 265.916 412.529 258.823 410.621 248.331C407.036 228.627 410.681 204.035 426.603 190.268C448.089 171.688 480.787 162.179 501.609 184.633C506.332 189.727 509.624 195.869 511.829 202.489Z" fill="#F79879"/>
<path d="M426.632 246.439C444.844 240.5 458.05 225.991 454.507 209.811C476.528 224.48 502.344 232.909 531.419 223.847C543.744 220.005 553.943 212.344 555.91 198.907C557.56 187.615 552.888 174.765 540.903 171.665C532.596 169.516 523.307 174.443 515.454 170.14C509.75 167.015 507.344 162.933 500.212 163.027C492.663 163.125 485.44 166.177 477.916 166.796C472.766 167.22 467.6 166.496 462.451 166.052C451.315 165.091 439.963 165.463 429.167 168.359C393.031 178.052 381.363 212.292 385.959 245.621C387.603 257.54 396.494 271.669 403.331 281.42C404.47 283.043 424.86 262.836 426.632 246.439Z" fill="#4B2220"/>
<path d="M501.713 245.621C499.541 255.404 507.34 264.045 507.047 273.604C507.023 274.397 506.904 275.204 506.461 275.867C504.597 278.659 495.844 276.836 492.787 276.32" stroke="#040606" stroke-width="2" stroke-miterlimit="10" stroke-linejoin="round"/>
<path d="M502.123 286.578L479.544 278.789C479.544 278.789 473.82 301.067 487.657 304.451C498.688 307.15 502.123 286.578 502.123 286.578Z" fill="white"/>
<path d="M505.925 244.816C509.631 242.715 513.315 241.208 517.461 242.179C520.647 242.924 523.6 244.963 525.716 247.875" stroke="#040606" stroke-width="2.66667" stroke-miterlimit="10" stroke-linejoin="round"/>
<path d="M521.193 255.664C521.476 258.485 519.989 260.945 517.872 261.157C515.756 261.369 513.811 259.255 513.528 256.433C513.244 253.611 514.731 251.152 516.848 250.94C518.964 250.728 520.909 252.843 521.193 255.664Z" fill="#040606"/>
<path d="M479.595 254.735C479.877 257.557 478.391 260.017 476.273 260.229C474.157 260.441 472.212 258.326 471.929 255.505C471.645 252.682 473.132 250.223 475.249 250.011C477.365 249.798 479.311 251.914 479.595 254.735Z" fill="#040606"/>
<path d="M458.049 249.104C461.3 244.116 466.599 240.442 472.445 239.12C478.291 237.8 484.612 238.851 489.615 241.974" stroke="#040606" stroke-width="2.66667" stroke-miterlimit="10" stroke-linejoin="round"/>
<path d="M441.523 254.315C439.063 247.33 433.044 241.847 426.632 240.715C421.836 239.868 416.819 241.455 412.906 246.668C405.042 257.143 406.904 274.827 414.706 284.8C419.538 290.976 424.86 293.116 431.264 292.034C437.02 291.06 440.763 286.375 441.868 281.42" fill="#F79879"/>
<path d="M441.847 281.4C440.999 285.481 437.711 288.831 433.8 290.272C428.831 292.101 422.735 291.273 418.491 288.099C414.559 285.157 412.219 280.66 409.999 276.4" stroke="#040606" stroke-width="2" stroke-miterlimit="10" stroke-linejoin="round"/>
<path d="M418.357 256.048C425.576 261.711 432.481 267.775 439.028 274.203" stroke="#040606" stroke-width="2" stroke-miterlimit="10" stroke-linejoin="round"/>
<path d="M441.522 254.315C439.062 247.33 433.044 241.847 426.632 240.715" stroke="#040606" stroke-width="2" stroke-miterlimit="10" stroke-linejoin="round"/>
<path d="M438.311 308.442C450.623 322.361 466.221 326.174 478.371 327.798" stroke="#040606" stroke-width="2" stroke-miterlimit="10" stroke-linejoin="round"/>
<path d="M540.055 249.984L582.259 233.926" stroke="#040606" stroke-width="2" stroke-miterlimit="10" stroke-linejoin="round"/>
<path d="M543.553 264.919L588.805 261.868" stroke="#040606" stroke-width="2" stroke-miterlimit="10" stroke-linejoin="round"/>
<path d="M542.271 278.045L583.673 289.078" stroke="#040606" stroke-width="2" stroke-miterlimit="10" stroke-linejoin="round"/>
<path d="M888.289 174.796H873.228V170.68H888.289V174.796Z" fill="#26252A"/>
<path d="M783.067 174.796H766.784V166.564H783.067V174.796Z" fill="#26252A"/>
<path d="M866.984 174.796H852.627V169.205H866.984V174.796Z" fill="#26252A"/>
<path d="M720.46 215.01C720.46 229.79 729.404 241.772 740.437 241.772C751.471 241.772 760.415 229.79 760.415 215.01C760.415 200.228 751.471 188.246 740.437 188.246C729.404 188.246 720.46 200.228 720.46 215.01Z" fill="#26252A"/>
<path d="M749.52 188.245H768.097V241.424H749.52C738.486 241.424 729.542 229.789 729.542 215.009C729.542 200.228 738.486 188.245 749.52 188.245Z" fill="#3F3E47"/>
<path d="M758.066 192.998H773.346V236.735H758.066V237.021C748.992 237.021 741.636 227.166 741.636 215.01C741.636 202.853 748.992 192.998 758.066 192.998Z" fill="#26252A"/>
<path d="M763.913 192.998H779.193V236.735H763.913V237.021C754.838 237.021 747.482 227.166 747.482 215.01C747.482 202.853 754.838 192.998 763.913 192.998Z" fill="#3F3E47"/>
<path d="M753.396 251.912H788.28V174.796H753.396V251.912Z" fill="#26252A"/>
<path d="M898.063 251.912H774.925V174.796H898.063V251.912Z" fill="#3F3E47"/>
<path d="M856.715 247.107H785.885C783.52 247.107 781.603 245.19 781.603 242.825V186.155C781.603 183.79 783.52 181.873 785.885 181.873H856.715C859.08 181.873 860.997 183.79 860.997 186.155V242.825C860.997 245.19 859.08 247.107 856.715 247.107Z" fill="#6B6B77"/>
<path d="M852.764 243.861H789.836C787.471 243.861 785.553 241.944 785.553 239.579V189.4C785.553 187.035 787.471 185.117 789.836 185.117H852.764C855.129 185.117 857.047 187.035 857.047 189.4V239.579C857.047 241.944 855.129 243.861 852.764 243.861Z" fill="#CFC1BF"/>
<path d="M830.757 231.827C830.613 229.375 830.469 226.924 830.327 224.472C830.284 223.747 830.241 223.018 830.313 222.295C830.404 221.375 830.68 220.483 830.928 219.592C831.836 216.334 832.401 212.951 832.237 209.572C830.512 208.547 828.351 210.018 827.177 211.646C826.004 213.274 824.996 215.291 823.08 215.89C822.324 214.091 821.566 212.292 820.809 210.494C820.617 210.036 820.42 209.552 820.478 209.059C820.553 208.444 821.001 207.955 821.355 207.449C825.193 201.947 818.795 195.204 812.967 196.368C809.161 197.128 806.353 201.543 807.755 205.162C808.063 205.96 808.548 206.718 808.6 207.572C808.807 210.952 804.882 210.81 802.937 212.071C800.134 213.887 798.29 218.142 797.25 221.158C796.064 224.599 795.498 228.211 795.028 231.827H830.757Z" fill="#B5B0AF"/>
<path d="M803.905 231.827H791.468V217.988H803.905V231.827Z" fill="#B5B0AF"/>
<path d="M847.847 231.827H828.472V223.107H847.847V231.827Z" fill="#B5B0AF"/>
<path d="M843.18 223.729H833.139V215.01H843.18V223.729Z" fill="#B5B0AF"/>
<path d="M803.905 218.391H793.865V209.671H803.905V218.391Z" fill="#B5B0AF"/>
<path d="M884.044 196.059C884.044 200.373 880.547 203.872 876.232 203.872C871.916 203.872 868.419 200.373 868.419 196.059C868.419 191.744 871.916 188.245 876.232 188.245C880.547 188.245 884.044 191.744 884.044 196.059Z" fill="#6B6B77"/>
<path d="M889.676 226.871C889.676 232.74 884.918 237.499 879.047 237.499C873.178 237.499 868.419 232.74 868.419 226.871C868.419 221.002 873.178 216.243 879.047 216.243C884.918 216.243 889.676 221.002 889.676 226.871Z" fill="#6B6B77"/>
<path d="M871.895 211.332C871.895 212.688 870.795 213.787 869.439 213.787C868.083 213.787 866.984 212.688 866.984 211.332C866.984 209.976 868.083 208.876 869.439 208.876C870.795 208.876 871.895 209.976 871.895 211.332Z" fill="#26252A"/>
<path d="M873.228 243.214C873.228 244.938 871.829 246.335 870.105 246.335C868.381 246.335 866.984 244.938 866.984 243.214C866.984 241.49 868.381 240.091 870.105 240.091C871.829 240.091 873.228 241.49 873.228 243.214Z" fill="#26252A"/>
<path d="M814.7 606.46L805.784 605.819L818.28 432.232L827.196 432.873L814.7 606.46Z" fill="#735143"/>
<path d="M817.104 606.634L803.38 605.646L804.871 584.929L818.596 585.917L817.104 606.634Z" fill="#45332D"/>
<path d="M761.397 605.826L752.976 602.83L813.761 431.989L822.183 434.985L761.397 605.826Z" fill="#735143"/>
<path d="M763.668 606.634L750.704 602.022L757.232 583.674L770.196 588.287L763.668 606.634Z" fill="#45332D"/>
<path d="M869.312 310.981L817.927 276.387L823.759 267.551L875.143 302.145L869.312 310.981Z" fill="#735143"/>
<path d="M829.536 431.353H814.655V251.913H829.536V431.353Z" fill="#735143"/>
<path d="M893.509 329.312L842.429 295.604L850.433 283.476L901.513 317.184C904.133 318.914 904.855 322.439 903.127 325.059L901.384 327.699C899.654 330.319 896.129 331.042 893.509 329.312Z" fill="#45332D"/>
<path d="M882.795 605.826L891.216 602.83L830.431 431.989L822.009 434.985L882.795 605.826Z" fill="#735143"/>
<path d="M880.523 606.634L893.487 602.022L886.959 583.674L873.995 588.287L880.523 606.634Z" fill="#45332D"/>
<path d="M810.642 436.429H832.755V414.314H810.642V436.429Z" fill="#45332D"/>
<path d="M810.642 271.603H832.755V252.232H810.642V271.603Z" fill="#45332D"/>
<path d="M847.161 185.642H804.904C802.877 185.642 801.233 183.998 801.233 181.971V172.247H850.832V181.971C850.832 183.998 849.188 185.642 847.161 185.642Z" fill="#45332D"/>
<path d="M804.904 240.41H847.161C849.188 240.41 850.832 242.054 850.832 244.081V253.805H801.233V244.081C801.233 242.054 802.877 240.41 804.904 240.41Z" fill="#45332D"/>
<path d="M822.596 244.81H843.051C845.113 244.81 846.787 246.482 846.787 248.545V253.805" stroke="#040606" stroke-width="2" stroke-miterlimit="10" stroke-linejoin="round"/>
<path d="M813.837 176.312C814.204 176.312 843.601 176.312 843.601 176.312" stroke="#040606" stroke-width="2" stroke-miterlimit="10" stroke-linejoin="round"/>
<path d="M829.536 284.685V271.603" stroke="#040606" stroke-width="2" stroke-miterlimit="10" stroke-linejoin="round"/>
<path d="M810.642 254.815H832.755" stroke="#040606" stroke-width="2" stroke-miterlimit="10" stroke-linejoin="round"/>
<path d="M216.106 448.302H95.2061V338.167H216.106V448.302Z" fill="#E19B70"/>
<path d="M216.106 448.302H284.35V338.167H216.106V448.302Z" fill="#F5B07C"/>
<path d="M276.747 418.102H239.562V384.424H276.747V418.102Z" fill="#FBC29C"/>
<path d="M183.246 375.123H130.792V338.167H183.246V375.123Z" fill="#CE7B57"/>
<path d="M266.856 375.934H243.359V338.167H266.856V375.934Z" fill="#DB8F6A"/>
<path d="M157.02 338.167V375.123" stroke="#040606" stroke-width="2" stroke-miterlimit="10" stroke-linejoin="round"/>
<path d="M257.343 338.167V375.934" stroke="#040606" stroke-width="2" stroke-miterlimit="10" stroke-linejoin="round"/>
<path d="M109.379 212.169C144.335 234.967 170.758 275.368 180.635 321.117" stroke="#804F3C" stroke-width="2.66667" stroke-miterlimit="10" stroke-linejoin="round"/>
<path d="M186.108 241.288C197.272 261.643 203.348 285.219 203.528 308.876" stroke="#804F3C" stroke-width="2.66667" stroke-miterlimit="10" stroke-linejoin="round"/>
<path d="M115.891 166.967C121.065 167.38 125.535 170.947 129.353 174.741C141.377 186.699 149.992 202.1 157.383 217.844C169.861 244.425 179.333 272.651 185.523 301.693" stroke="#804F3C" stroke-width="2.66667" stroke-miterlimit="10" stroke-linejoin="round"/>
<path d="M229.242 144.333C221.999 152.857 219.21 164.649 217.18 176.009C208.815 222.815 209.084 270.864 209.831 318.525" stroke="#804F3C" stroke-width="2.66667" stroke-miterlimit="10" stroke-linejoin="round"/>
<path d="M246.224 214.461C240.227 218.128 237.06 225.404 234.519 232.323C225.523 256.808 219.684 282.643 217.223 308.851" stroke="#804F3C" stroke-width="2.66667" stroke-miterlimit="10" stroke-linejoin="round"/>
<path d="M290.163 218.61C259.543 238.432 238.809 275.035 236.411 313.503" stroke="#804F3C" stroke-width="2.66667" stroke-miterlimit="10" stroke-linejoin="round"/>
<path d="M259.499 296.473H130.441C130.441 296.473 124.163 322.241 149.58 337.828H240.36C265.778 322.241 259.499 296.473 259.499 296.473Z" fill="white"/>
<path d="M129.755 303.9H260.182" stroke="#DEA84E" stroke-width="2" stroke-miterlimit="10"/>
<path d="M208.551 186.752C199.063 182.426 188.155 180.212 179.16 185.304C178.413 185.728 190.239 210.622 191.425 212.866C196.116 221.742 201.709 229.835 208.577 236.882C222.015 250.67 238.408 258.925 255.219 266.817C265.335 271.565 272.881 279.376 282.063 285.327C284.976 269.472 283.847 252.876 282.68 236.758C281.629 222.247 281.135 206.895 273.164 194.503C269.744 189.184 265.228 184.771 260.349 181.006C251.855 174.447 242.144 169.732 231.963 167.226C234.44 179.21 237.747 190.994 241.844 202.449C230.879 200.273 221.372 193.23 211.295 188.079C210.396 187.621 209.48 187.176 208.551 186.752Z" fill="#565E3A"/>
<path d="M220.377 210.168C213.897 212.685 208.268 216.435 201.956 219.279C195.953 221.983 189.58 223.483 183.512 225.993C181.576 226.793 179.66 227.737 177.817 228.821C174.299 221.321 168.648 214.907 167.04 206.62C166.859 205.685 166.381 204.461 165.544 204.695C165.304 204.763 165.108 204.949 164.921 205.131C152.049 217.74 144.969 235.037 142.908 253.668C140.977 271.121 139.571 289.961 146.532 306.26C146.792 306.869 147.081 307.499 147.575 307.891C148.851 308.903 150.605 307.849 151.889 306.816C167.253 294.445 182.7 281.971 196.216 267.076C202.253 260.424 209.488 252.696 213.891 244.599C219.052 235.105 220.292 220.965 220.377 210.168Z" fill="#302715"/>
<path d="M136.439 218.3C136.057 218.848 135.669 219.39 135.276 219.926C127.917 229.95 117.258 241.146 105.849 245.472C93.2799 250.239 82.2882 258.919 70.5575 265.97C68.2152 267.378 48.1548 276.979 48.1808 278.703C48.0152 267.802 50.7928 257.191 55.7772 247.755C60.1142 239.544 63.1408 230.562 67.4314 222.163C77.096 203.243 87.1783 181.424 107.494 174.066C108.187 173.815 109.102 173.66 109.518 174.31C109.837 174.806 109.654 175.479 109.465 176.047C107.459 182.075 105.271 188.802 105.086 195.251C104.913 201.258 104.516 204.907 101.296 210.294C114.777 202.782 130.052 201.876 144.053 195.674C143.9 199.32 143.5 202.98 142.467 206.455C141.185 210.766 138.965 214.671 136.439 218.3Z" fill="#565E3A"/>
<path d="M127.488 138.151C123.93 147.061 119.042 155.341 113.079 162.557C126.778 161.759 140.541 162.5 154.085 164.767C146.407 170.773 139.349 178.204 130.424 181.52C124.566 183.696 118.295 183.939 112.145 184.572C89.2421 186.932 67.1463 194.928 45.2811 202.871C44.6879 203.085 48.2911 194.992 48.6723 194.285C50.5573 190.791 51.8879 187.403 54.3478 184.243C64.0349 171.795 75.4193 160.801 88.0655 152.099C94.3046 147.804 100.876 144.068 107.739 141.136C110.887 139.789 113.664 138.897 116.969 138.557C118.026 138.448 127.436 138.283 127.488 138.151Z" fill="#302715"/>
<path d="M257.343 212.267C270.085 210.313 283.008 209.719 295.859 210.499C289.217 204.365 285.163 195.085 284.999 185.649C301.524 195.971 318.512 206.727 329.996 223.198C337.243 233.591 341.929 245.767 346.229 257.922C336.347 252.571 325.544 246.657 314.764 243.779C304.143 240.943 293.349 237.281 283.717 231.71C274.183 226.197 266.127 218.643 257.343 212.267Z" fill="#302715"/>
<path d="M213.332 133.409C216.001 138.049 221.413 141.337 225.515 144.478C224.421 143.641 216.125 147.851 214.609 148.59C210.985 150.359 208.194 153.265 205.508 156.366C203.035 159.222 200.481 162.453 200.264 166.355C201.201 165.979 202.139 165.605 203.08 165.245C214.456 160.897 226.068 159.014 237.842 156.738C245.83 155.193 253.915 154.41 261.997 153.718C269.535 153.074 279.44 153.923 286.455 150.985C279.752 142.963 266.019 138.353 256.547 135.673C249.737 133.746 242.691 133.886 235.715 134.105C228.199 134.339 220.716 133.383 213.332 133.409Z" fill="#565E3A"/>
<path d="M173.361 231.789C173.729 233.044 175.067 233.669 176.284 233.731C177.867 233.811 179.471 233.18 180.635 232.017" stroke="#565E3A" stroke-width="2" stroke-miterlimit="10"/>
<path d="M104.37 162.64C104.343 164.342 106.076 165.503 107.649 165.592C109.113 165.675 110.601 165.132 111.717 164.104" stroke="#565E3A" stroke-width="2" stroke-miterlimit="10"/>
<path d="M293.344 212.936C294.968 213.708 296.83 213.973 298.54 213.457C300.248 212.941 301.768 211.591 302.384 209.795" stroke="#565E3A" stroke-width="2" stroke-miterlimit="10"/>
<path d="M93.1133 214.795C94.6893 215.084 96.2871 215.374 97.8789 215.211C99.4699 215.048 101.081 214.375 102.096 213.042" stroke="#414428" stroke-width="2" stroke-miterlimit="10"/>
<path d="M239.562 205.96C240.084 206.84 241.02 207.355 241.971 207.552C242.922 207.749 243.9 207.667 244.866 207.583C245.399 207.536 245.956 207.481 246.408 207.173C246.862 206.864 247.164 206.216 246.936 205.693" stroke="#414428" stroke-width="2" stroke-miterlimit="10"/>
<path d="M232.121 142.234C231.101 144.625 228.588 146.163 226.164 145.881" stroke="#414428" stroke-width="2" stroke-miterlimit="10"/>
<path d="M158.562 606.554H73.0742V448.351H158.562V606.554Z" fill="#FEE879"/>
<path d="M158.562 606.554H307.518V448.351H158.562V606.554Z" fill="#F7F8AC"/>
<path d="M210.072 487.448H176.615V465.654H210.072V487.448Z" fill="white"/>
<path d="M237.744 465.654H218.264V487.448H237.744V465.654ZM232.411 470.987V482.115H223.597V470.987H232.411Z" fill="#D3C478"/>
<path d="M192.367 475.275L186.451 467.755L180.533 475.275H183.223V484.397H189.677V475.275H192.367Z" fill="#D3C478"/>
<path d="M195.012 476.876L200.928 484.397L206.846 476.876H204.155V467.755H197.702V476.876H195.012Z" fill="#D3C478"/>
<path d="M176.615 496.445H224.999" stroke="#D3C478" stroke-width="2" stroke-miterlimit="10"/>
<path d="M176.615 505.443H224.999" stroke="#D3C478" stroke-width="2" stroke-miterlimit="10"/>
<path d="M176.615 514.441H210.072" stroke="#D3C478" stroke-width="2" stroke-miterlimit="10"/>
<path d="M134.795 505.443H93.1133V448.351H134.795V505.443Z" fill="#FCCC61"/>
<path d="M134.795 606.554H93.1133V572.114H134.795V606.554Z" fill="#FCCC61"/>
<path d="M113.954 505.443V448.302" stroke="#040606" stroke-width="2" stroke-miterlimit="10" stroke-linejoin="round"/>
<path d="M113.954 606.554V572.114" stroke="#040606" stroke-width="2" stroke-miterlimit="10" stroke-linejoin="round"/>
<path d="M296.906 554.187L265.822 565.246L262.66 556.358L293.743 545.298L296.906 554.187Z" fill="#FEE879"/>
<path d="M292.692 583.359L260.233 577.443L261.925 568.162L294.383 574.078L292.692 583.359Z" fill="#FEE879"/>
<path d="M290.498 598.96L257.542 600.515L257.096 591.091L290.052 589.536L290.498 598.96Z" fill="#FEE879"/>
<path d="M57.979 607.27H941.76" stroke="#040606" stroke-width="2" stroke-miterlimit="10"/>
</g>
<defs>
<clipPath id="clip0_329_429">
<rect width="1000" height="666.667" fill="white"/>
</clipPath>
</defs>
</svg>
