<svg width="983" height="598" viewBox="0 0 983 598" fill="none" xmlns="http://www.w3.org/2000/svg">
<path d="M110.862 551.151L110.965 551.533H77.9934L78.1078 551.247C77.7989 550.101 77.577 549.273 77.4397 548.767C76.719 546.097 74.6848 544.188 71.3762 543.042C68.0676 541.898 62.9536 541.326 56.071 541.326C46.7836 541.326 40.8116 542.376 38.0956 544.472C35.8441 546.318 34.7847 550.227 34.8785 556.203L35.2606 568.033C35.2561 570.829 35.5055 573.151 36.0043 574.996C36.8097 577.984 38.7226 580.034 41.736 581.148C44.7563 582.26 49.987 582.816 57.4416 582.816C65.6514 582.816 71.3029 581.977 74.385 580.29C77.4671 578.604 78.9292 575.602 78.7713 571.275H112.505C112.715 580.496 109.121 587.186 101.717 591.353C94.3168 595.518 81.897 597.602 64.4638 597.602H51.957C35.6611 597.602 23.6622 596.092 15.9605 593.069C8.26325 590.049 3.43989 584.946 1.50186 577.759C0.833734 575.284 0.467666 572.515 0.399023 569.463L0.014622 554.679C-0.257663 544.314 3.27287 537.036 10.604 532.835C17.9351 528.638 31.0757 526.542 50.0281 526.542H60.2606C76.5565 526.542 88.5141 527.892 96.1244 530.597C103.741 533.299 108.43 537.923 110.196 544.472C110.523 545.682 110.72 546.653 110.764 547.383C110.803 548.115 110.828 549.369 110.862 551.151Z" fill="black"/>
<path d="M244.774 596.744H209.34L202.746 584.249H156.318L150.408 596.744H114.969L151.595 527.4H205.407L244.774 596.744ZM196.909 571.753L181.572 540.179H176.076L161.853 571.753H196.909Z" fill="black"/>
<path d="M360.248 545.904L360.491 551.721C360.671 560.814 352.443 565.902 335.806 566.982L335.66 567.84C343.282 568.477 349.178 569.845 353.345 571.945C357.511 574.041 360.067 576.842 361.01 580.336C361.131 580.782 361.259 581.26 361.397 581.768C361.534 582.276 361.646 582.688 361.731 583.006L361.996 596.744H327.729L327.732 584.818C327.594 584.31 327.448 583.77 327.295 583.198C327.139 582.626 327.036 582.244 326.983 582.052C326.35 579.7 324.748 578.093 322.181 577.235C319.611 576.377 315.36 575.947 309.422 575.947H287.06L287.555 596.744H254.391L252.547 527.4H306.173C323.988 527.4 336.678 528.32 344.254 530.167C353.047 532.329 358.2 536.205 359.71 541.804C360.054 543.074 360.23 544.44 360.248 545.904ZM327.107 550.195C327.022 549.877 326.91 549.465 326.773 548.954C326.636 548.449 326.498 547.941 326.361 547.428C325.743 545.142 324.114 543.552 321.474 542.662C318.833 541.77 314.545 541.326 308.608 541.326H286.056L286.662 561.832H309.399C316.287 561.832 320.957 561.228 323.439 560.02C325.929 558.814 327.157 556.462 327.096 552.963L327.107 550.195Z" fill="black"/>
<path d="M472.13 527.4L472.477 541.326H437.229L438.73 596.744H405.186L403.69 541.326H368.254L367.906 527.4H472.13Z" fill="black"/>
<path d="M599.015 554.679L599.404 569.463C599.674 579.83 596.143 587.111 588.81 591.307C581.478 595.502 568.274 597.602 549.195 597.602H531.007C514.711 597.602 502.713 596.092 495.011 593.069C487.314 590.049 482.49 584.946 480.552 577.759C479.884 575.284 479.518 572.515 479.449 569.463L479.065 554.679C478.793 544.314 482.323 537.036 489.654 532.835C496.985 528.638 510.126 526.542 529.078 526.542H547.269C563.439 526.542 575.438 528.053 583.263 531.073C591.093 534.091 595.965 539.166 597.887 546.284C598.573 548.829 598.946 551.629 599.015 554.679ZM565.128 556.203C564.956 554.169 564.848 552.725 564.807 551.867C564.768 551.009 564.636 550.165 564.411 549.336C563.572 546.222 561.579 544.106 558.437 542.996C555.291 541.882 549.804 541.326 541.972 541.326H535.153C525.424 541.326 519.265 542.264 516.675 544.138C514.089 546.017 512.865 550.039 513.016 556.203L513.366 568.033C513.361 570.829 513.611 573.151 514.107 574.996C514.915 577.984 516.885 580.034 520.027 581.148C523.173 582.26 528.598 582.816 536.302 582.816H543.125C552.98 582.816 559.201 581.88 561.789 580.002C564.379 578.128 565.608 574.135 565.475 568.033L565.128 556.203Z" fill="black"/>
<path d="M955.802 569.058L982.918 596.744H944.785L937.795 588.53L955.802 569.058Z" fill="#00A3D4"/>
<path d="M978.036 527.318L952.933 554.771L930.091 579.473L920.329 568.001L896.025 596.744H858.459L892.927 560.647L861.543 527.318H898.73L920.398 553.485L940.659 527.318H978.036Z" fill="black"/>
<path d="M720.87 542.946L720.994 547.62C721.323 554.933 714.338 559.001 700.032 559.83L700.074 560.688C707.084 561.388 712.626 562.852 716.704 565.074C720.776 567.301 723.259 570.067 724.151 573.373C724.376 574.201 724.547 574.838 724.666 575.284L724.664 579.478C724.84 586.219 721.22 590.827 713.77 593.31C706.933 595.598 694.706 596.744 677.112 596.744H615.052L613.208 527.4H676.122C690.651 527.4 701.351 528.304 708.217 530.116C715.088 531.929 719.145 535.157 720.399 539.8L720.708 540.944C720.827 541.39 720.88 542.058 720.87 542.946ZM687.679 547.051C687.732 546.792 687.727 546.54 687.658 546.284C687.59 546.03 687.539 545.84 687.505 545.712C687.075 544.122 685.853 542.978 683.833 542.28C681.812 541.58 678.716 541.23 674.55 541.23H646.502L647.031 555.826H675.076C683.663 555.826 687.869 553.851 687.69 549.909L687.679 547.051ZM690.69 573.661C690.606 573.343 690.484 572.899 690.331 572.323C689.455 569.083 684.908 567.461 676.698 567.461H647.328L647.681 582.816H677.179C686.306 582.816 690.834 580.75 690.729 576.615L690.69 573.661Z" fill="#00A3D4"/>
<path d="M854.548 554.679L854.937 569.463C855.207 579.83 851.677 587.111 844.343 591.307C837.012 595.502 823.808 597.602 804.729 597.602H786.541C770.245 597.602 758.246 596.092 750.545 593.069C742.847 590.049 738.024 584.946 736.086 577.759C735.418 575.284 735.052 572.515 734.983 569.463L734.599 554.679C734.327 544.314 737.857 537.036 745.188 532.835C752.519 528.638 765.66 526.542 784.612 526.542H802.803C818.973 526.542 830.972 528.053 838.797 531.073C846.627 534.091 851.498 539.166 853.42 546.284C854.107 548.829 854.48 551.629 854.548 554.679ZM820.662 556.203C820.49 554.169 820.382 552.725 820.341 551.867C820.302 551.009 820.17 550.165 819.945 549.336C819.106 546.222 817.113 544.106 813.971 542.996C810.825 541.882 805.338 541.326 797.506 541.326H790.687C780.958 541.326 774.799 542.264 772.209 544.138C769.623 546.017 768.399 550.039 768.55 556.203L768.9 568.033C768.895 570.829 769.145 573.151 769.641 574.996C770.449 577.984 772.419 580.034 775.561 581.148C778.707 582.26 784.132 582.816 791.836 582.816H798.659C808.514 582.816 814.735 581.88 817.323 580.002C819.913 578.128 821.142 574.135 821.009 568.033L820.662 556.203Z" fill="#00A3D4"/>
<path fill-rule="evenodd" clip-rule="evenodd" d="M797.781 86.2046C692.361 73.1532 583.158 73.9701 473.198 77.5716C581.392 80.4478 689.585 83.3261 797.781 86.2046Z" fill="#00A3D4"/>
<path fill-rule="evenodd" clip-rule="evenodd" d="M495.281 144.384C529.323 89.7717 572.96 39.5088 640.237 0C591.917 48.1281 543.599 96.2563 495.281 144.384Z" fill="#00A3D4"/>
<path fill-rule="evenodd" clip-rule="evenodd" d="M599.28 251.214C578.754 202.528 543.741 169.535 499.056 147.025C532.465 181.754 565.869 216.485 599.28 251.214Z" fill="#00A3D4"/>
<path fill-rule="evenodd" clip-rule="evenodd" d="M601.166 247.441C660.817 209.332 712.359 164.774 738.761 100.222C692.896 149.292 647.031 198.366 601.166 247.441Z" fill="#00A3D4"/>
<path fill-rule="evenodd" clip-rule="evenodd" d="M640.237 0C689.544 21.9178 721.916 55.6514 738.761 100.222C705.92 66.8106 673.076 33.4064 640.237 0Z" fill="#00A3D4"/>
<path fill-rule="evenodd" clip-rule="evenodd" d="M430.166 99.0889C530.836 110.424 634.311 107.768 738.761 100.222C635.895 99.8394 533.03 99.4641 430.166 99.0889Z" fill="#00A3D4"/>
<path fill-rule="evenodd" clip-rule="evenodd" d="M325.977 159.674C416.092 177.779 507.653 175.169 600.033 160.804C508.682 160.429 417.33 160.049 325.977 159.674Z" fill="#00A3D4"/>
<path fill-rule="evenodd" clip-rule="evenodd" d="M426.201 104.18C368.533 141.183 323.041 192.677 281.246 248.573C329.565 200.441 377.883 152.313 426.201 104.18Z" fill="#00A3D4"/>
<path fill-rule="evenodd" clip-rule="evenodd" d="M281.246 248.574C385.081 264.991 493.176 263.858 595.502 248.574C490.75 248.574 385.998 248.574 281.246 248.574C300.384 223.823 318.08 198.26 319.751 163.639C307.722 190.167 293.273 222.038 281.246 248.574Z" fill="#00A3D4"/>
<path fill-rule="evenodd" clip-rule="evenodd" d="M281.246 248.574C264.646 206.44 234.805 172.736 184.986 151.745C217.072 184.024 249.16 216.293 281.246 248.574Z" fill="#00A3D4"/>
<path fill-rule="evenodd" clip-rule="evenodd" d="M334.47 10.1867C376.308 32.1731 407.957 62.001 430.166 99.089C398.267 69.4534 366.369 39.8223 334.47 10.1867Z" fill="#00A3D4"/>
<path fill-rule="evenodd" clip-rule="evenodd" d="M738.761 100.222C720.907 178.553 726.398 243.858 741.026 304.065C740.271 236.112 739.514 168.167 738.761 100.222Z" fill="#00A3D4"/>
<path fill-rule="evenodd" clip-rule="evenodd" d="M189.516 150.047C220.467 86.232 268.131 39.9321 330.791 9.33774C283.697 56.2417 236.607 103.143 189.516 150.047Z" fill="#00A3D4"/>
<path fill-rule="evenodd" clip-rule="evenodd" d="M470.08 79.2692C453.53 81.1112 442.403 88.0578 434.408 97.9539C446.299 91.7256 458.191 85.4952 470.08 79.2692Z" fill="#00A3D4"/>
<path fill-rule="evenodd" clip-rule="evenodd" d="M281.246 248.574C302.208 313.977 303.633 380.73 280.812 449.156C280.958 382.295 281.102 315.434 281.246 248.574Z" fill="#00A3D4"/>
<path fill-rule="evenodd" clip-rule="evenodd" d="M588.842 451.421C487.664 430.332 387.275 430.995 287.608 451.421C388.019 451.421 488.428 451.421 588.842 451.421Z" fill="#00A3D4"/>
<path fill-rule="evenodd" clip-rule="evenodd" d="M596.768 451.421C631.989 380.119 677.433 329.264 738.326 309.298C691.141 356.675 643.953 404.046 596.768 451.421Z" fill="#00A3D4"/>
<path fill-rule="evenodd" clip-rule="evenodd" d="M596.2 254.941C596.189 256.074 596.175 257.207 596.164 258.337C575.342 327.852 577.008 389.269 593.935 445.195C594.693 381.778 595.448 318.359 596.2 254.941Z" fill="#00A3D4"/>
<path fill-rule="evenodd" clip-rule="evenodd" d="M738.761 100.221C753.819 91.6844 763.761 78.8847 797.781 86.2044C778.108 90.8744 758.434 95.5468 738.761 100.221Z" fill="#00A3D4"/>
<path fill-rule="evenodd" clip-rule="evenodd" d="M426.2 104.18C420.945 128.388 422.109 152.599 426.921 176.8C426.681 152.599 426.443 128.388 426.2 104.18Z" fill="#00A3D4"/>
</svg>
