<svg width="151" height="69" viewBox="0 0 151 69" fill="none" xmlns="http://www.w3.org/2000/svg">
<path fill-rule="evenodd" clip-rule="evenodd" d="M0.5 4.5C0.5 2.01472 2.51472 0 5 0H146C148.485 0 150.5 2.01472 150.5 4.5C150.5 6.98528 148.485 9 146 9H5C2.51472 9 0.5 6.98528 0.5 4.5Z" fill="black"/>
<path fill-rule="evenodd" clip-rule="evenodd" d="M20.5 35C20.5 32.5147 22.5147 30.5 25 30.5L146 30.5C148.485 30.5 150.5 32.5147 150.5 35C150.5 37.4853 148.485 39.5 146 39.5L25 39.5C22.5147 39.5 20.5 37.4853 20.5 35Z" fill="black"/>
<path fill-rule="evenodd" clip-rule="evenodd" d="M15 64.5C15 62.0147 17.0147 60 19.5 60H146C148.485 60 150.5 62.0147 150.5 64.5C150.5 66.9853 148.485 69 146 69H19.5C17.0147 69 15 66.9853 15 64.5Z" fill="black"/>
</svg>
