<svg width="500" height="500" viewBox="0 0 500 500" fill="none" xmlns="http://www.w3.org/2000/svg">
<path d="M302.862 99.766L230.317 70L4.39434 114.459C3.51662 114.631 3.28992 115.781 4.03644 116.274L70.6077 160.227M302.862 99.766L388.902 116.605M302.862 99.766L230.317 118.651M498 137.956L478.88 287.348L263.497 430M498 137.956L267.433 233.486M498 137.956L388.902 116.605M263.497 430V235.117M263.497 430L243.814 418.046M263.497 235.117L65.5465 161.544M263.497 235.117L267.433 233.486M65.5465 161.544L84.1043 321.045L103.787 333M65.5465 161.544L70.6077 160.227M70.6077 160.227L173.519 133.437M103.787 333L163.974 385.157C164.301 385.44 164.772 385.482 165.143 385.259L175.769 378.892M103.787 333L183.642 381.5M183.642 381.5L170.1 387.468C169.285 387.827 169.311 388.992 170.14 389.315L243.814 418.046M183.642 381.5L243.814 418.046M267.433 233.486L157.082 191.215C156.197 190.876 156.236 189.611 157.14 189.327L257.311 157.896M388.902 116.605L315.796 139.544M173.519 133.437L257.311 157.896M173.519 133.437L230.317 118.651M257.311 157.896L315.796 139.544M230.317 118.651L315.796 139.544" stroke="#00A3D4" stroke-width="3"/>
</svg>
