<svg width="500" height="500" viewBox="0 0 500 500" fill="none" xmlns="http://www.w3.org/2000/svg">
<path d="M259 450.5L461 285L491 57.5M259 450.5L156 474.5M259 450.5V334.5M259 172L93.5 116.5M259 172L491 57.5M259 172V323.5M93.5 116.5L344 25L491 57.5M93.5 116.5L105.648 252M156 474.5L100.5 440C110.667 431.333 115.8 413.2 55 410L9 377.5M156 474.5C161.477 458.744 172.115 434.477 187.011 410M259 334.5V323.5M259 334.5C229.749 349.895 205.204 380.104 187.011 410M9 377.5C17 350 47.7 288.3 106.5 261.5L105.648 252M9 377.5L120.5 368M259 323.5L218 304.384M105.648 252L146.5 271.047M120.5 368L146.5 271.047M120.5 368L218 304.384M120.5 368L187.011 410M146.5 271.047L218 304.384" stroke="#00A3D4" stroke-width="3"/>
</svg>
