<svg width="500" height="500" viewBox="0 0 500 500" fill="none" xmlns="http://www.w3.org/2000/svg">
<path d="M282.561 398L25.7928 278.362L14.3964 230.414M282.561 398L481.185 215.052M282.561 398L281.631 330.5M282.561 398L351.87 239.259L341.637 229.483M481.185 215.052H483.486C485.356 215.052 486.93 213.651 487.147 211.793V211.793M481.185 215.052C480.874 212.569 480.44 207.603 481.185 207.603M497 127.534L265.815 101L234.716 112.172M497 127.534L487.147 211.793M497 127.534L474.672 142.431M76.4953 162.448L229.533 114.034L234.716 112.172M76.4953 162.448L71.8437 160.586L3 182.466M76.4953 162.448L118.36 172.754M3 182.466L7.97902 203.414M3 182.466L276.514 265.873M279.305 296.052H280.151C281.234 296.052 282.12 296.914 282.15 297.996L282.996 328.464C283.015 329.151 282.679 329.801 282.106 330.183L281.631 330.5M279.305 296.052L276.582 295.556C275.342 295.331 274.206 296.294 274.224 297.553L274.636 325.596C274.647 326.324 275.052 326.989 275.694 327.331L281.631 330.5M279.305 296.052V268.586M14.3964 230.414L14.6383 229.86C15.5363 227.806 15.718 225.51 15.1543 223.34L10.4799 205.348C10.184 204.209 9.15583 203.414 7.97902 203.414V203.414M14.3964 230.414L7.97902 203.414M487.147 211.793L485.371 207.603M478.859 192.241C477.773 187.741 475.137 178.462 473.277 177.345M478.859 192.241L485.371 207.603M478.859 192.241C478.114 191.497 476.378 192.552 475.603 193.172M473.277 177.345C471.416 176.228 468.16 166.328 466.765 161.517M473.277 177.345C472.812 177.655 471.509 178.276 470.021 178.276M466.765 161.517L474.672 142.431M466.765 161.517L464.439 161.284M474.672 142.431H471.881M481.185 207.603C482.115 207.603 484.977 206.672 485.371 207.603M481.185 207.603L475.603 193.172M475.603 193.172C473.122 188.207 468.532 178.276 470.021 178.276M470.021 178.276L462.113 161.052M462.113 161.052L470.486 142.897M462.113 161.052L464.439 161.284M470.486 142.897L471.881 142.431M470.486 142.897L340.241 225.293L341.637 229.483M464.439 161.284L471.881 142.431M471.881 142.431H464.439M341.637 229.483L279.305 268.586M279.305 268.586V266.724L276.514 265.873M276.514 265.873L339.311 227.155L330.008 224.852M330.008 224.852L215.113 196.57M330.008 224.852L381.64 193.196M464.439 142.431L270.932 116.943M464.439 142.431L381.64 193.196M234.716 112.172L267.676 116.514M118.36 172.754L267.676 122.879V116.514M118.36 172.754L215.113 196.57M267.676 116.514L270.932 116.943M270.932 116.943V171.759M270.932 171.759L215.113 196.57M270.932 171.759L381.64 193.196" stroke="#00A3D4" stroke-width="3"/>
</svg>
