<svg width="500" height="500" viewBox="0 0 500 500" fill="none" xmlns="http://www.w3.org/2000/svg">
<g clip-path="url(#clip0_308_180)">
<path fill-rule="evenodd" clip-rule="evenodd" d="M385.782 63.6943L30.3877 289.163C29.2456 289.252 28.3668 289.834 27.7126 290.687C27.0461 291.556 26.606 292.71 26.3203 293.941C25.8786 295.842 25.7878 298.004 25.8556 299.773L19.706 291.419C79.7703 253.652 169.468 196.916 244.525 149.337C282.133 125.497 316.066 103.955 340.752 88.2506C353.096 80.3983 363.128 74.0051 370.153 69.5133C373.665 67.2674 376.426 65.4966 378.348 64.2564C379.309 63.6363 380.061 63.1485 380.592 62.8C381.112 62.4591 381.443 62.2375 381.54 62.1614C382.11 61.7124 382.615 61.5409 383.049 61.525C383.485 61.509 383.893 61.6479 384.27 61.8937C384.929 62.322 385.455 63.0509 385.782 63.6943ZM386.494 63.2429C386.119 62.5284 385.521 61.7058 384.728 61.1901C384.239 60.8714 383.663 60.6624 383.019 60.6861C382.373 60.7098 381.702 60.9655 381.021 61.5019C380.961 61.549 380.673 61.7436 380.132 62.0979C379.603 62.4447 378.853 62.9313 377.893 63.551C375.972 64.7903 373.213 66.5603 369.7 68.806C362.677 73.2973 352.645 79.6902 340.302 87.5423C315.616 103.247 281.684 124.788 244.076 148.628C168.86 196.308 78.941 253.183 18.8767 290.949L18.7095 291.054L4.43789 400.685C4.26175 402.038 4.82892 403.381 5.92162 404.198L11.3145 408.231L83.1655 353.993L178.452 441.642C180.013 443.078 182.449 442.948 183.848 441.355L189.586 434.82L497.502 134.475C499.198 132.821 498.97 130.033 497.03 128.675L397.473 59.0298C396.224 58.1558 394.571 58.1185 393.284 58.9353L386.494 63.2429ZM189.272 433.954L496.916 133.874C498.235 132.588 498.058 130.419 496.548 129.363L396.992 59.7176C396.02 59.0379 394.735 59.0089 393.734 59.6442L31.2103 289.635L189.272 433.954ZM30.3727 290.007C29.5475 290.094 28.8987 290.52 28.3787 291.198C27.8144 291.933 27.4103 292.958 27.138 294.13C26.609 296.408 26.6052 299.117 26.7728 300.98L179.021 441.024C180.234 442.141 182.129 442.04 183.217 440.801L188.695 434.563L30.3727 290.007ZM25.9303 301.29L10.9969 406.945L6.42435 403.526C5.57447 402.89 5.13334 401.846 5.27034 400.793L19.3815 292.395L25.9303 301.29ZM11.8711 406.759L82.5375 353.415L26.6737 302.029L11.8711 406.759Z" fill="#00A3D4" stroke="#00A3D4" stroke-width="3"/>
<path fill-rule="evenodd" clip-rule="evenodd" d="M187.236 436.963L27.2911 292.433L27.854 291.81L187.799 436.34L187.236 436.963Z" fill="#00A3D4" stroke="#00A3D4"/>
<path fill-rule="evenodd" clip-rule="evenodd" d="M182.53 442.073L25.9073 297.686L26.4763 297.068L183.099 441.455L182.53 442.073Z" fill="#00A3D4" stroke="#00A3D4"/>
<path fill-rule="evenodd" clip-rule="evenodd" d="M184.86 439.452L26.0263 295.117L26.5908 294.496L185.425 438.831L184.86 439.452Z" fill="#00A3D4" stroke="#00A3D4"/>
<path fill-rule="evenodd" clip-rule="evenodd" d="M8.14443 405.366L23.0381 297.56L23.8696 297.675L8.976 405.481L8.14443 405.366Z" fill="#00A3D4" stroke="#00A3D4"/>
<path fill-rule="evenodd" clip-rule="evenodd" d="M5.90076 404.096L20.3368 293.778L21.1692 293.887L6.73313 404.204L5.90076 404.096Z" fill="#00A3D4" stroke="#00A3D4"/>
</g>
<defs>
<clipPath id="clip0_308_180">
<rect width="500" height="500" fill="white"/>
</clipPath>
</defs>
</svg>
