<svg width="500" height="500" viewBox="0 0 500 500" fill="none" xmlns="http://www.w3.org/2000/svg">
<path fill-rule="evenodd" clip-rule="evenodd" d="M165.288 15H172.023L331.352 36.1568L343.05 86.8876L358.404 244.546L348.104 447.112L190.832 485L141 451.753V244.533L165.288 19.139V15ZM166.182 15.8921V19.1869L142.282 240.982L183.623 128.232C180.3 91.8526 176.396 57.8288 173.434 32.0079C172.767 26.1985 172.148 20.8044 171.594 15.8921H166.182ZM172.914 19.6031C173.352 23.4522 173.823 27.5614 174.321 31.9029C177.287 57.7473 181.196 91.8224 184.523 128.251C188.309 169.713 191.34 214.235 191.365 253.155L357.466 244.136L346.819 134.805L346.263 139.741C345.656 145.137 341.741 149.582 336.457 150.877L336.35 150.444V150.89H218.762L216.845 150.712C204.493 149.562 194.341 140.502 191.821 128.382L191.817 128.361L191.814 128.339C187.606 89.4314 180.102 42.5368 172.914 19.6031ZM336.295 149.998C341.19 148.776 344.812 144.648 345.375 139.641L346.401 130.518L342.166 87.0313L330.62 36.9594L172.659 15.9843C180.208 37.5382 188.278 87.3402 192.701 128.222C195.148 139.948 204.975 148.711 216.928 149.824L218.803 149.998H336.295ZM357.485 245.029L191.365 254.048V483.954L347.245 446.401L357.485 245.029ZM190.471 483.686V253.997L141.894 245.092V451.276L190.471 483.686ZM142.049 244.213L190.471 253.09C190.443 214.844 187.511 171.175 183.812 130.313L142.049 244.213Z" fill="#00A3D4" stroke="#00A3D4" stroke-width="3"/>
<path d="M284.464 118.51L284.835 120.542C284.903 120.916 284.61 121.327 284.128 121.327H258.454C258.415 121.327 258.389 121.313 258.371 121.296C258.362 121.287 258.358 121.279 258.355 121.274C258.354 121.27 258.352 121.266 258.352 121.258V115.448C258.352 109.254 263.486 104.182 269.883 104.182C270.889 104.182 271.883 104.385 272.803 104.779L273.717 105.17C279.362 107.586 283.386 112.596 284.464 118.51ZM269.883 100.306C261.393 100.306 254.458 107.056 254.458 115.448V121.258C254.458 123.465 256.276 125.203 258.454 125.203H284.128C286.964 125.203 289.181 122.676 288.666 119.85L288.296 117.818C286.981 110.606 282.08 104.53 275.255 101.609L274.341 101.218C272.934 100.616 271.416 100.306 269.883 100.306Z" fill="#00A3D4" stroke="#00A3D4" stroke-width="3"/>
<path d="M287.824 79.0971H242.072C237.217 79.0971 233.324 75.2348 233.324 70.5246C233.324 65.8144 237.217 61.952 242.072 61.952H287.824C291.699 61.952 295.094 64.4467 296.201 68.0565C297.878 73.5235 293.722 79.0971 287.824 79.0971ZM242.072 82.973H287.824C296.264 82.973 302.385 74.9501 299.922 66.9236C298.306 61.6564 293.381 58.0762 287.824 58.0762H242.072C235.117 58.0762 229.433 63.6252 229.433 70.5246C229.433 77.424 235.117 82.973 242.072 82.973Z" fill="#00A3D4" stroke="#00A3D4" stroke-width="3"/>
</svg>
