<svg width="500" height="500" viewBox="0 0 500 500" fill="none" xmlns="http://www.w3.org/2000/svg">
<path d="M221.264 434L470.63 274.648L497 104.405M221.264 434L214.958 199.558M221.264 434L31.5163 304.455L4 121.601M497 104.405L224.13 196.692M497 104.405L435.088 93.285M214.958 199.558L4 121.601M214.958 199.558L224.13 196.692M4 121.601L11.4523 120.3M11.4523 120.3L283.176 66L325.597 73.6192M11.4523 120.3L50.4337 133.639L111.772 120.3M325.597 73.6192L435.088 93.285M325.597 73.6192L290.055 81.3785M224.13 196.692L156.486 171.47L217.251 154.418M435.088 93.285L394.96 104.546M217.251 154.418L111.772 120.3M217.251 154.418L300.947 130.93M111.772 120.3L283.176 82.8803M290.055 81.3785L300.947 83.7839M290.055 81.3785L283.176 82.8803M394.96 104.546L300.947 83.7839M394.96 104.546L300.947 130.93M300.947 83.7839V130.93M283.176 82.8803V133.639" stroke="#00A3D4" stroke-width="3"/>
</svg>
