<svg width="500" height="500" viewBox="0 0 500 500" fill="none" xmlns="http://www.w3.org/2000/svg">
<path d="M41.5 388.5L35 205.5M41.5 388.5L301.5 495M41.5 388.5L84.5 403.051L295 476.5L301 477.447M35 205.5L253 44M35 205.5L305 270.319M35 205.5L144 166.571M312 272L465 163.5M312 272L304.5 478M312 272L305 270.319M465 163.5L449.5 318.5L445.5 322.886M465 163.5L246.5 128M304.5 478L445.5 322.886M304.5 478L301 477.447M301.5 495L445.5 332.5V322.886M301.5 495L301 477.447M253 44L426.5 4L446.885 40.8493C449.842 46.1955 447.356 52.9208 441.633 55.0581L307.226 105.248C299.815 108.015 291.48 105.197 287.269 98.5V98.5M253 44L287.269 98.5M168 158L246.5 128M168 158L401.5 200L456 162.038M168 158L144 166.571M246.5 128L287.269 98.5M305 270.319L388.5 211.5L144 166.571" stroke="#00A3D4" stroke-width="3"/>
</svg>
