<svg width="500" height="500" viewBox="0 0 500 500" fill="none" xmlns="http://www.w3.org/2000/svg">
<g clip-path="url(#clip0_255_838)">
<path d="M228.759 482L393.924 313.91L409.671 250.418M228.759 482L223.999 373.365M228.759 482L101.315 370.429L96.5546 320.134M409.671 250.418L495 167.841L423.587 186.925M409.671 250.418L280.762 373.365H223.999M423.587 186.925L474.858 96.6409L325.807 17L284.425 96.6409M423.587 186.925L284.425 96.6409M423.587 186.925L349.245 256.215M284.425 96.6409L240.478 17L21.1136 155.362L76.683 242.621M284.425 96.6409L78.6099 245.646M78.6099 245.646L5 235.37L96.5546 320.134M78.6099 245.646L76.683 242.621M223.999 373.365H154.051L96.5546 320.134M223.999 373.365L217.04 367.19M223.999 373.365L284.425 316.92M76.683 242.621L168.7 324.287M168.7 324.287L217.04 367.19M168.7 324.287C170.626 321.06 173.521 316.694 177.227 311.708M217.04 367.19C215.868 366.15 224.365 359.374 228.759 356.116L223.999 266.566C204.351 278.899 187.608 297.74 177.227 311.708M177.227 311.708L164.671 197.935L223.999 245.345M284.425 292.257V316.92M284.425 292.257L229.587 249.684M284.425 292.257L290.65 190.962M284.425 316.92L312.225 290.788M223.999 245.345L229.587 249.684M223.999 245.345C225.64 243.157 228.709 239.455 233.52 234.625M290.65 190.962C254.907 209.166 235.292 238.306 229.587 249.684M290.65 190.962C261.536 207.749 243.774 224.331 233.52 234.625M290.65 190.962L310.716 213.864C314.75 218.468 316.782 224.491 316.362 230.598L312.225 290.788M349.245 256.215V229.131L339.357 221.946M349.245 256.215L312.225 290.788M233.52 234.625V150.591L304.567 198.809M304.567 198.809C307.02 195.077 316.731 188.121 336.715 187.62C340.001 187.538 342.579 190.3 342.358 193.58C341.677 203.696 340.08 217.462 339.357 221.946M304.567 198.809L339.357 221.946" stroke="#00A3D4" stroke-width="3"/>
</g>
<defs>
<clipPath id="clip0_255_838">
<rect width="500" height="500" fill="white"/>
</clipPath>
</defs>
</svg>
