<svg width="500" height="500" viewBox="0 0 500 500" fill="none" xmlns="http://www.w3.org/2000/svg">
<path d="M259.313 425L357.764 343.1V296.3M259.313 425L94.3402 345.759L81.036 251.627M259.313 425L256.12 319.7M357.764 296.3L408.321 285.664L494 217.591L361.49 245.245M357.764 296.3L284.325 308L256.12 319.7M361.49 245.245L425.35 102.718L254.523 74L212.482 155.9M361.49 245.245L359.361 246.75M212.482 155.9L181.084 147.391L160.862 167.6M212.482 155.9L249.473 165.259C251.25 165.708 251.559 168.208 250.203 169.441C241.809 177.084 258.036 182.847 265.615 174.199C267.731 171.784 270.807 169.844 273.911 170.668L354.571 192.064M160.862 167.6L108.177 122.395L6 159.091L82.6325 231.95L81.036 251.627M160.862 167.6L81.036 251.627M81.036 251.627L256.12 319.7M256.12 319.7L354.571 192.064M256.12 319.7L359.361 246.75M354.571 192.064L347.121 218.655L332.22 238.864M332.22 238.864L359.361 246.75M332.22 238.864L285.389 299.018" stroke="#00A3D4" stroke-width="3"/>
</svg>
