<svg width="500" height="500" viewBox="0 0 500 500" fill="none" xmlns="http://www.w3.org/2000/svg">
<path fill-rule="evenodd" clip-rule="evenodd" d="M487.782 211.101L476.268 208.038L476.64 206.653L492 210.74L186.998 350.976L9 225.88L20.8593 223.024L21.1979 224.417L12.4215 226.53L187.15 349.328L487.782 211.101Z" fill="#00A3D4" stroke="#00A3D4" stroke-width="3"/>
<path fill-rule="evenodd" clip-rule="evenodd" d="M292.421 147L492 200.379L186.998 341.355L9 215.599L292.421 147ZM12.4215 216.252L187.15 339.698L487.782 200.742L292.403 148.486L12.4215 216.252Z" fill="#00A3D4" stroke="#00A3D4" stroke-width="3"/>
<path fill-rule="evenodd" clip-rule="evenodd" d="M9 225.896V216.274H10.9243V225.896H9Z" fill="#00A3D4" stroke="#00A3D4" stroke-width="3"/>
<path fill-rule="evenodd" clip-rule="evenodd" d="M20.1918 224.68C20.1568 224.541 20.0111 224.461 19.8736 224.504L11.3766 227.152L10.9243 225.739L19.4213 223.091C20.3841 222.791 21.4039 223.353 21.6488 224.32L24.3944 235.158L22.9374 235.518L20.1918 224.68Z" fill="#00A3D4" stroke="#00A3D4" stroke-width="3"/>
<path fill-rule="evenodd" clip-rule="evenodd" d="M101.802 281.47C101.802 281.331 101.682 281.221 101.54 281.228L88.9395 281.898L88.8584 280.45L101.459 279.78C102.454 279.727 103.291 280.499 103.291 281.47V290.361H101.802V281.47Z" fill="#00A3D4" stroke="#00A3D4" stroke-width="3"/>
<path fill-rule="evenodd" clip-rule="evenodd" d="M187.655 341.429L180.507 345.118L179.847 343.839L186.994 340.15C187.323 339.98 187.699 339.924 188.063 339.99L201.485 342.415L201.229 343.832L187.807 341.407C187.755 341.397 187.702 341.405 187.655 341.429Z" fill="#00A3D4" stroke="#00A3D4" stroke-width="3"/>
<path fill-rule="evenodd" clip-rule="evenodd" d="M279.767 299.427C279.649 299.357 279.496 299.401 279.432 299.523L273.806 310.35L272.528 309.686L278.155 298.859C278.599 298.004 279.67 297.698 280.5 298.188L288.096 302.677L287.363 303.916L279.767 299.427Z" fill="#00A3D4" stroke="#00A3D4" stroke-width="3"/>
<path fill-rule="evenodd" clip-rule="evenodd" d="M365.18 260.081C365.061 260.011 364.908 260.055 364.845 260.177L359.218 271.004L357.941 270.34L363.567 259.513C364.012 258.658 365.083 258.352 365.912 258.842L373.508 263.331L372.776 264.571L365.18 260.081Z" fill="#00A3D4" stroke="#00A3D4" stroke-width="3"/>
<path fill-rule="evenodd" clip-rule="evenodd" d="M61.4907 252.606C61.4907 252.467 61.3792 252.357 61.2465 252.364L49.4858 253.034L49.4102 251.585L61.1708 250.916C62.0995 250.863 62.8803 251.635 62.8803 252.606V261.497H61.4907V252.606Z" fill="#00A3D4" stroke="#00A3D4" stroke-width="3"/>
<path fill-rule="evenodd" clip-rule="evenodd" d="M140.288 308.409C140.288 308.271 140.168 308.16 140.026 308.168L127.426 308.837L127.344 307.389L139.945 306.719C140.94 306.666 141.777 307.438 141.777 308.409V317.3H140.288V308.409Z" fill="#00A3D4" stroke="#00A3D4" stroke-width="3"/>
<path fill-rule="evenodd" clip-rule="evenodd" d="M236.839 319.504C236.72 319.434 236.567 319.478 236.504 319.6L230.877 330.427L229.6 329.763L235.227 318.936C235.671 318.081 236.742 317.775 237.571 318.265L245.167 322.754L244.435 323.993L236.839 319.504Z" fill="#00A3D4" stroke="#00A3D4" stroke-width="3"/>
<path fill-rule="evenodd" clip-rule="evenodd" d="M323.211 279.676C323.093 279.606 322.94 279.65 322.876 279.772L317.249 290.599L315.972 289.935L321.599 279.108C322.043 278.253 323.114 277.947 323.944 278.437L331.54 282.926L330.807 284.165L323.211 279.676Z" fill="#00A3D4" stroke="#00A3D4" stroke-width="3"/>
<path fill-rule="evenodd" clip-rule="evenodd" d="M408.624 240.328C408.505 240.258 408.352 240.302 408.289 240.424L402.662 251.251L401.384 250.587L407.011 239.76C407.456 238.906 408.527 238.599 409.356 239.089L416.952 243.578L416.22 244.818L408.624 240.328Z" fill="#00A3D4" stroke="#00A3D4" stroke-width="3"/>
<path fill-rule="evenodd" clip-rule="evenodd" d="M36.3756 235.286C36.3756 235.147 36.2561 235.037 36.114 235.045L23.5132 235.714L23.4321 234.266L36.0329 233.596C37.0278 233.543 37.8644 234.315 37.8644 235.286V244.177H36.3756V235.286Z" fill="#00A3D4" stroke="#00A3D4" stroke-width="3"/>
<path fill-rule="evenodd" clip-rule="evenodd" d="M115.272 291.091C115.272 290.952 115.153 290.842 115.01 290.849L102.41 291.519L102.329 290.071L114.929 289.401C115.924 289.348 116.761 290.12 116.761 291.091V299.982H115.272V291.091Z" fill="#00A3D4" stroke="#00A3D4" stroke-width="3"/>
<path fill-rule="evenodd" clip-rule="evenodd" d="M205.792 333.49C205.667 333.445 205.528 333.51 205.484 333.635L202.035 343.364L200.679 342.883L204.127 333.154C204.439 332.275 205.407 331.819 206.283 332.137L216.165 335.726L215.674 337.079L205.792 333.49Z" fill="#00A3D4" stroke="#00A3D4" stroke-width="3"/>
<path fill-rule="evenodd" clip-rule="evenodd" d="M294.33 292.706C294.211 292.636 294.058 292.68 293.995 292.802L288.368 303.629L287.09 302.965L292.717 292.138C293.162 291.283 294.233 290.977 295.062 291.467L302.658 295.956L301.926 297.196L294.33 292.706Z" fill="#00A3D4" stroke="#00A3D4" stroke-width="3"/>
<path fill-rule="evenodd" clip-rule="evenodd" d="M379.742 253.359C379.624 253.289 379.471 253.332 379.407 253.455L373.78 264.282L372.503 263.618L378.13 252.791C378.574 251.936 379.645 251.629 380.475 252.119L388.071 256.609L387.338 257.848L379.742 253.359Z" fill="#00A3D4" stroke="#00A3D4" stroke-width="3"/>
<path fill-rule="evenodd" clip-rule="evenodd" d="M74.8619 263.189C74.8619 263.05 74.7424 262.94 74.6003 262.947L61.9995 263.617L61.9185 262.168L74.5192 261.499C75.5142 261.446 76.3507 262.218 76.3507 263.189V272.08H74.8619V263.189Z" fill="#00A3D4" stroke="#00A3D4" stroke-width="3"/>
<path fill-rule="evenodd" clip-rule="evenodd" d="M153.758 318.031C153.758 317.893 153.639 317.782 153.497 317.79L140.896 318.46L140.815 317.011L153.415 316.341C154.41 316.289 155.247 317.06 155.247 318.031V326.923H153.758V318.031Z" fill="#00A3D4" stroke="#00A3D4" stroke-width="3"/>
<path fill-rule="evenodd" clip-rule="evenodd" d="M251.401 312.782C251.283 312.711 251.13 312.755 251.066 312.877L245.44 323.704L244.162 323.041L249.789 312.214C250.233 311.359 251.304 311.052 252.134 311.542L259.73 316.031L258.997 317.271L251.401 312.782Z" fill="#00A3D4" stroke="#00A3D4" stroke-width="3"/>
<path fill-rule="evenodd" clip-rule="evenodd" d="M337.773 272.954C337.655 272.884 337.502 272.928 337.439 273.05L331.812 283.877L330.534 283.213L336.161 272.386C336.605 271.532 337.676 271.225 338.506 271.715L346.102 276.204L345.369 277.444L337.773 272.954Z" fill="#00A3D4" stroke="#00A3D4" stroke-width="3"/>
<path fill-rule="evenodd" clip-rule="evenodd" d="M423.186 233.608C423.068 233.538 422.915 233.581 422.851 233.704L417.224 244.531L415.947 243.867L421.574 233.04C422.018 232.185 423.089 231.878 423.918 232.368L431.514 236.858L430.782 238.097L423.186 233.608Z" fill="#00A3D4" stroke="#00A3D4" stroke-width="3"/>
<path fill-rule="evenodd" clip-rule="evenodd" d="M48.9834 243.945C48.9834 243.807 48.8719 243.696 48.7392 243.704L36.9785 244.374L36.9028 242.925L48.6635 242.255C49.5922 242.203 50.373 242.974 50.373 243.945V252.837H48.9834V243.945Z" fill="#00A3D4" stroke="#00A3D4" stroke-width="3"/>
<path fill-rule="evenodd" clip-rule="evenodd" d="M126.917 299.75C126.917 299.611 126.806 299.501 126.673 299.509L114.912 300.178L114.837 298.73L126.597 298.06C127.526 298.007 128.307 298.779 128.307 299.75V308.641H126.917V299.75Z" fill="#00A3D4" stroke="#00A3D4" stroke-width="3"/>
<path fill-rule="evenodd" clip-rule="evenodd" d="M222.398 326.018C222.28 325.948 222.127 325.992 222.064 326.114L216.437 336.941L215.159 336.277L220.786 325.45C221.23 324.595 222.301 324.288 223.131 324.779L230.727 329.268L229.994 330.507L222.398 326.018Z" fill="#00A3D4" stroke="#00A3D4" stroke-width="3"/>
<path fill-rule="evenodd" clip-rule="evenodd" d="M308.771 286.192C308.652 286.122 308.499 286.165 308.436 286.288L302.809 297.115L301.531 296.451L307.158 285.624C307.603 284.769 308.674 284.462 309.503 284.952L317.099 289.442L316.366 290.681L308.771 286.192Z" fill="#00A3D4" stroke="#00A3D4" stroke-width="3"/>
<path fill-rule="evenodd" clip-rule="evenodd" d="M394.183 246.843C394.064 246.773 393.911 246.817 393.848 246.939L388.221 257.766L386.944 257.102L392.571 246.275C393.015 245.42 394.086 245.114 394.915 245.604L402.511 250.093L401.779 251.332L394.183 246.843Z" fill="#00A3D4" stroke="#00A3D4" stroke-width="3"/>
<path fill-rule="evenodd" clip-rule="evenodd" d="M88.3319 271.848C88.3319 271.709 88.2124 271.599 88.0703 271.606L75.4695 272.276L75.3884 270.828L87.9892 270.158C88.9841 270.105 89.8207 270.877 89.8207 271.848V280.739H88.3319V271.848Z" fill="#00A3D4" stroke="#00A3D4" stroke-width="3"/>
<path fill-rule="evenodd" clip-rule="evenodd" d="M166.365 327.652C166.365 327.514 166.254 327.403 166.121 327.411L154.361 328.081L154.285 326.632L166.046 325.963C166.974 325.91 167.755 326.681 167.755 327.652V336.544H166.365V327.652Z" fill="#00A3D4" stroke="#00A3D4" stroke-width="3"/>
<path fill-rule="evenodd" clip-rule="evenodd" d="M179.736 336.313C179.736 336.174 179.617 336.064 179.475 336.071L166.874 336.741L166.793 335.292L179.394 334.623C180.389 334.57 181.225 335.342 181.225 336.313V345.204H179.736V336.313Z" fill="#00A3D4" stroke="#00A3D4" stroke-width="3"/>
<path fill-rule="evenodd" clip-rule="evenodd" d="M265.842 306.266C265.724 306.196 265.571 306.24 265.507 306.362L259.88 317.189L258.603 316.525L264.23 305.698C264.674 304.843 265.745 304.536 266.574 305.027L274.17 309.516L273.438 310.755L265.842 306.266Z" fill="#00A3D4" stroke="#00A3D4" stroke-width="3"/>
<path fill-rule="evenodd" clip-rule="evenodd" d="M352.215 266.44C352.096 266.37 351.943 266.413 351.88 266.536L346.253 277.363L344.975 276.699L350.602 265.872C351.047 265.017 352.118 264.71 352.947 265.2L360.543 269.69L359.811 270.929L352.215 266.44Z" fill="#00A3D4" stroke="#00A3D4" stroke-width="3"/>
<path fill-rule="evenodd" clip-rule="evenodd" d="M437.627 227.092C437.508 227.022 437.355 227.066 437.292 227.188L431.665 238.015L430.388 237.351L436.014 226.524C436.459 225.669 437.53 225.363 438.359 225.853L445.955 230.342L445.223 231.581L437.627 227.092Z" fill="#00A3D4" stroke="#00A3D4" stroke-width="3"/>
<path fill-rule="evenodd" clip-rule="evenodd" d="M451.552 220.375C451.433 220.305 451.28 220.349 451.217 220.471L445.59 231.298L444.313 230.634L449.939 219.807C450.384 218.952 451.455 218.646 452.284 219.136L459.88 223.625L459.148 224.865L451.552 220.375Z" fill="#00A3D4" stroke="#00A3D4" stroke-width="3"/>
<path fill-rule="evenodd" clip-rule="evenodd" d="M466.907 213.176C466.788 213.106 466.635 213.15 466.572 213.272L460.945 224.099L459.668 223.435L465.294 212.608C465.739 211.753 466.81 211.447 467.639 211.937L475.235 216.426L474.503 217.665L466.907 213.176Z" fill="#00A3D4" stroke="#00A3D4" stroke-width="3"/>
<path fill-rule="evenodd" clip-rule="evenodd" d="M479.076 207.8C478.948 207.75 478.804 207.817 478.761 207.948L475.485 217.786L474.119 217.332L477.395 207.493C477.698 206.581 478.704 206.11 479.599 206.459L488.499 209.931L487.976 211.272L479.076 207.8Z" fill="#00A3D4" stroke="#00A3D4" stroke-width="3"/>
<path fill-rule="evenodd" clip-rule="evenodd" d="M186.998 350.014V340.393H187.96V350.014H186.998Z" fill="#00A3D4" stroke="#00A3D4" stroke-width="3"/>
</svg>
