<svg width="500" height="500" viewBox="0 0 500 500" fill="none" xmlns="http://www.w3.org/2000/svg">
<path d="M4 190.982L32.4079 328.388M4 190.982L15.7691 185.535M4 190.982L94.6634 225.861M291.101 112.897L288.079 79L280.826 80.4989M291.101 112.897L297.145 114.421M291.101 112.897L185.931 167.474M448.855 139.531L496 103.212V144.373L378.742 252.119M448.855 139.531L330.388 236.986L335.828 288.437M448.855 139.531L387.204 136.163M378.742 252.119V264.83L210.713 421M378.742 252.119L335.828 288.437M210.713 421L120.654 387.708V374.391L114.609 370.759V384.076L32.4079 328.388M210.713 421L202.251 267.251M210.713 421L32.4079 328.388M202.251 267.251L335.828 288.437M202.251 267.251L94.6634 225.861M15.7691 185.535L211.921 94.7381L280.826 80.4989M15.7691 185.535L83.7838 176.455M83.7838 176.455L91.6413 216.405L185.931 167.474M83.7838 176.455L280.826 80.4989M94.6634 225.861L183.514 176.455L283.848 208.536M283.848 208.536L198.624 264.83M283.848 208.536L294.123 201.878M294.123 201.878L237.912 185.535V151.032M294.123 201.878L330.388 176.455M237.912 151.032L297.145 114.421M237.912 151.032L330.388 176.455M297.145 114.421L382.369 135.899L387.204 136.163M330.388 176.455L387.204 136.163M185.931 167.474L230.658 181.903V144.263" stroke="#00A3D4" stroke-width="3"/>
</svg>
