<svg width="500" height="500" viewBox="0 0 500 500" fill="none" xmlns="http://www.w3.org/2000/svg">
<path d="M272.5 121.5L216 79L22 154L70.5 202.042M272.5 121.5H275M272.5 121.5L75 206.5M275 121.5L338.5 81.5L477 140.5L416.5 188.5M275 121.5L416.5 188.5M275 121.5L274 205M275 121.5L288 136L285.5 213M416.5 188.5L498.5 182L410 235.184M416.5 188.5L337.5 232.854M209 305L288 308.5L410 235.184M209 305L134.5 263L75 218.208M209 305L170.047 276.366M209 305L216 301.07M209 305L212 421M75 206.5L70.5 202.042M75 206.5L155.5 265.674M70.5 202.042L1 162.5L75 218.208M274 205L218 175V247M274 205L275 205.696L282 210.565M285.5 213L293.5 217.741M285.5 213L282 210.565M328 238.188L337.5 232.854M328 238.188L293.5 217.741M328 238.188L282 264.014M337.5 232.854V192.014C337.5 191.297 336.769 190.812 336.111 191.097C320.9 197.688 293.112 211.335 293.5 217.741M218 247L212 243.123M218 247L224 251.195M260 276.366L216 301.07M260 276.366L224 251.195M260 276.366L279.045 265.674M155.5 265.674L153 205L212 243.123M155.5 265.674L170.047 276.366M170.047 276.366L194 265.674L216 286.5V301.07M212 243.123V267.5M224 251.195L279 222.5L279.045 265.674M279.045 265.674L282 264.014M282 210.565V264.014M75 218.208L89 315L212 421M212 421L402.5 296.5L410 235.184" stroke="#00A3D4" stroke-width="3"/>
</svg>
