<svg width="500" height="500" viewBox="0 0 500 500" fill="none" xmlns="http://www.w3.org/2000/svg">
<path d="M263.244 496L126.027 412.676L113 134.062M263.244 496L256.731 162.27M263.244 496L380.052 444.357L387 141.005M256.731 162.27L113 134.062M256.731 162.27L317.523 152.347M113 134.062L163.154 127.118M387 141.005L317.957 3H249.349M387 141.005L317.523 152.347M387 141.005L264.981 122.778M163.154 127.118L213.307 120.174V91.9657L158.594 3H213.307M163.154 127.118L205.057 134.062L213.307 132.793M213.307 132.793L216.347 132.326L217.934 89.095C218.017 86.858 219.918 85.1239 222.153 85.248L255.535 87.1014C260.835 87.3957 264.981 91.7786 264.981 97.0861V122.778M213.307 132.793L227.637 134.589M317.523 152.347L227.637 134.589M227.637 134.589L264.981 141.967V122.778M249.349 3V3C249.349 6.82781 247.559 10.4354 244.51 12.7507L233.749 20.9243C229.784 23.9363 224.941 25.5669 219.962 25.5669H209.102C206.645 25.5669 204.42 24.1126 203.435 21.8617V21.8617C202.557 19.855 202.805 17.5334 204.088 15.7579L213.307 3M249.349 3H213.307M242.744 71.6683L292.151 74.661C294.723 74.8168 296.363 71.9622 294.933 69.8185V69.8185C294.392 69.0073 293.503 68.4959 292.53 68.4365L243.123 65.4211C240.609 65.2677 238.953 67.9959 240.25 70.1554V70.1554C240.781 71.04 241.714 71.6059 242.744 71.6683Z" stroke="#00A3D4" stroke-width="3"/>
</svg>
