<svg width="500" height="500" viewBox="0 0 500 500" fill="none" xmlns="http://www.w3.org/2000/svg">
<path d="M392.357 388.568C392.357 396.844 385.648 403.553 377.372 403.553C369.096 403.553 362.387 396.844 362.387 388.568C362.387 380.292 369.096 373.583 377.372 373.583C385.648 373.583 392.357 380.292 392.357 388.568Z" fill="black"/>
<path fill-rule="evenodd" clip-rule="evenodd" d="M152.709 305.081H94.799C62.8775 305.081 37 330.958 37 362.88V412.116C37 444.037 62.8775 469.915 94.799 469.915H405.201C437.122 469.915 463 444.037 463 412.116V362.88C463 330.958 437.122 305.081 405.201 305.081H349.175L321.346 332.91H405.201C421.753 332.91 435.171 346.328 435.171 362.88V412.116C435.171 428.668 421.753 442.086 405.201 442.086H94.799C78.2471 442.086 64.8291 428.668 64.8291 412.116V362.88C64.8291 346.328 78.2471 332.91 94.799 332.91H180.538L152.709 305.081Z" fill="black"/>
<path fill-rule="evenodd" clip-rule="evenodd" d="M364.598 252.791L262.423 354.966C256.153 361.236 245.988 361.236 239.718 354.966L137.542 252.791C131.272 246.521 131.272 236.355 137.542 230.085C143.812 223.815 153.978 223.815 160.248 230.085L235.015 304.852L235.015 46.0553C235.015 37.1882 242.203 30 251.07 30C259.937 30 267.126 37.1882 267.126 46.0553L267.126 304.852L341.893 230.085C348.163 223.815 358.328 223.815 364.598 230.085C370.868 236.355 370.868 246.521 364.598 252.791Z" fill="black"/>
</svg>
