<svg width="500" height="500" viewBox="0 0 500 500" fill="none" xmlns="http://www.w3.org/2000/svg">
<path d="M8 165.553L151.104 165.553" stroke="#00A3D4" stroke-width="12" stroke-linecap="round"/>
<path d="M32.7896 250.063L174.767 250.063" stroke="#00A3D4" stroke-width="12" stroke-linecap="round"/>
<path d="M55.3257 332.32L199.556 332.32" stroke="#00A3D4" stroke-width="12" stroke-linecap="round"/>
<path d="M286.32 233.161L286.32 146.398" stroke="#00A3D4" stroke-width="12" stroke-linecap="round"/>
<path d="M362.942 318.798L286.32 233.161" stroke="#00A3D4" stroke-width="12" stroke-linecap="round"/>
<path d="M157.865 387.739C185.189 415.081 220.002 433.7 257.902 441.243C295.802 448.787 335.086 444.915 370.787 430.118C406.488 415.321 437.002 390.264 458.47 358.114C479.939 325.964 491.398 288.166 491.398 249.5C491.398 210.834 479.939 173.036 458.47 140.886C437.002 108.736 406.488 83.6786 370.787 68.8816C335.086 54.0847 295.802 50.2132 257.902 57.7566C220.002 65.3 185.189 83.9195 157.865 111.261" stroke="#00A3D4" stroke-width="12" stroke-linecap="round"/>
</svg>
