<svg width="140" height="140" viewBox="0 0 140 140" fill="none" xmlns="http://www.w3.org/2000/svg">
<path fill-rule="evenodd" clip-rule="evenodd" d="M87.5899 107.841C106.175 107.841 121.242 92.775 121.242 74.1897C121.242 55.6043 106.175 40.538 87.5899 40.538C69.0046 40.538 53.9382 55.6043 53.9382 74.1897C53.9382 92.775 69.0046 107.841 87.5899 107.841ZM87.5899 111.034C107.938 111.034 124.434 94.538 124.434 74.1897C124.434 53.8413 107.938 37.3457 87.5899 37.3457C67.2416 37.3457 50.746 53.8413 50.746 74.1897C50.746 94.538 67.2416 111.034 87.5899 111.034Z" fill="white"/>
<path d="M62.3304 48.9291C63.1478 48.248 64.3526 48.3143 65.0903 49.0809L69.2297 53.3826C69.9652 54.147 69.9369 55.3642 69.1667 56.0935V56.0935C68.4266 56.7945 67.2664 56.7905 66.531 56.0846L62.2243 51.9505C61.3519 51.1131 61.4014 49.7033 62.3304 48.9291V48.9291Z" fill="white"/>
<path d="M51.7928 74.3878C51.8798 73.3274 52.7715 72.5145 53.8355 72.5257L59.805 72.5883C60.8657 72.5994 61.714 73.4727 61.6944 74.5333V74.5333C61.6756 75.5525 60.8596 76.3772 59.8407 76.407L53.8734 76.5812C52.6647 76.6164 51.6938 75.593 51.7928 74.3878V74.3878Z" fill="white"/>
<path d="M123.244 74.7288C123.145 75.7882 122.245 76.5915 121.181 76.5689L115.213 76.4421C114.152 76.4195 113.313 75.5371 113.344 74.4769V74.4769C113.374 73.4579 114.199 72.642 115.218 72.6232L121.187 72.5132C122.396 72.4909 123.356 73.5248 123.244 74.7288V74.7288Z" fill="white"/>
<path d="M113.03 49.5439C113.686 50.3815 113.584 51.5837 112.795 52.2979L108.37 56.3052C107.584 57.0172 106.368 56.9521 105.662 56.1601V56.1601C104.984 55.3991 105.023 54.2396 105.751 53.5259L110.014 49.3463C110.877 48.4997 112.285 48.5919 113.03 49.5439V49.5439Z" fill="white"/>
<path d="M62.0286 99.3989C61.3612 98.5703 61.4475 97.3667 62.2264 96.6419L66.5967 92.575C67.3732 91.8523 68.5898 91.9009 69.3062 92.6832V92.6832C69.9946 93.435 69.9713 94.5949 69.2532 95.3184L65.0477 99.5555C64.1959 100.414 62.787 100.341 62.0286 99.3989V99.3989Z" fill="white"/>
<path d="M87.2491 110.133C86.1912 110.019 85.4015 109.106 85.44 108.043L85.6557 102.077C85.6941 101.017 86.5889 100.191 87.6486 100.238V100.238C88.667 100.283 89.4705 101.12 89.4741 102.139L89.4951 108.109C89.4994 109.318 88.4513 110.263 87.2491 110.133V110.133Z" fill="white"/>
<path d="M112.969 99.978C112.159 100.668 110.954 100.615 110.208 99.8571L106.02 95.6019C105.276 94.8459 105.291 93.6284 106.053 92.8905V92.8905C106.785 92.1813 107.945 92.1723 108.689 92.8699L113.041 96.9556C113.923 97.7832 113.889 99.1935 112.969 99.978V99.978Z" fill="white"/>
<path d="M87.925 38.6968C88.9838 38.8021 89.7813 39.7076 89.7519 40.7711L89.5871 46.7387C89.5578 47.799 88.6701 48.6323 87.61 48.5946V48.5946C86.5913 48.5583 85.7807 47.7283 85.7684 46.709L85.6964 40.7396C85.6818 39.5305 86.7217 38.5773 87.925 38.6968V38.6968Z" fill="white"/>
<path d="M85.5948 59.2928C85.5948 58.1909 86.4881 57.2976 87.59 57.2976V57.2976C88.6919 57.2976 89.5852 58.1909 89.5852 59.2928V73.924C89.5852 75.0258 88.6919 75.9191 87.59 75.9191V75.9191C86.4881 75.9191 85.5948 75.0258 85.5948 73.924V59.2928Z" fill="white"/>
<path d="M93.363 65.0907C94.1421 64.3116 95.4054 64.3116 96.1845 65.0907V65.0907C96.9637 65.8699 96.9637 67.1331 96.1845 67.9123L89.241 74.8558C88.4619 75.635 87.1986 75.635 86.4195 74.8558V74.8558C85.6403 74.0766 85.6403 72.8134 86.4195 72.0342L93.363 65.0907Z" fill="white"/>
<path d="M15.3651 51.7109C15.3651 50.5356 16.3179 49.5828 17.4933 49.5828H33.7206C34.8959 49.5828 35.8488 50.5356 35.8488 51.7109V51.7109C35.8488 52.8863 34.8959 53.8391 33.7206 53.8391H17.4933C16.3179 53.8391 15.3651 52.8863 15.3651 51.7109V51.7109Z" fill="white"/>
<path d="M15.3651 97.2007C15.3651 96.0253 16.3179 95.0725 17.4933 95.0725H33.7206C34.8959 95.0725 35.8488 96.0253 35.8488 97.2007V97.2007C35.8488 98.376 34.8959 99.3289 33.7206 99.3289H17.4933C16.3179 99.3289 15.3651 98.376 15.3651 97.2007V97.2007Z" fill="white"/>
<path d="M8.7146 85.7617C8.7146 84.5864 9.66741 83.6335 10.8428 83.6335H31.0604C32.2358 83.6335 33.1886 84.5864 33.1886 85.7617V85.7617C33.1886 86.9371 32.2358 87.8899 31.0604 87.8899H10.8428C9.66741 87.8899 8.7146 86.9371 8.7146 85.7617V85.7617Z" fill="white"/>
<path d="M8.7146 63.1499C8.7146 61.9745 9.66741 61.0217 10.8428 61.0217H31.0604C32.2358 61.0217 33.1886 61.9745 33.1886 63.1499V63.1499C33.1886 64.3253 32.2358 65.2781 31.0604 65.2781H10.8428C9.66741 65.2781 8.7146 64.3253 8.7146 63.1499V63.1499Z" fill="white"/>
<path d="M1 74.722C1 73.6201 1.89326 72.7268 2.99516 72.7268H28.7992C29.9011 72.7268 30.7944 73.6201 30.7944 74.722V74.722C30.7944 75.8239 29.9011 76.7171 28.7992 76.7171H2.99516C1.89326 76.7171 1 75.8239 1 74.722V74.722Z" fill="white"/>
<path fill-rule="evenodd" clip-rule="evenodd" d="M95.7037 18.8307H79.4763L79.4763 25.8537H95.7037V18.8307ZM79.4763 15C77.2726 15 75.486 16.7151 75.486 18.8307V23.9383C75.486 26.054 77.2726 27.769 79.4763 27.769H95.7037C97.9074 27.769 99.694 26.054 99.694 23.9383V18.8307C99.694 16.7151 97.9074 15 95.7037 15H79.4763Z" fill="white"/>
<path fill-rule="evenodd" clip-rule="evenodd" d="M50.8178 41.6362C51.5547 42.2436 51.6596 43.3334 51.0522 44.0703C43.8487 52.8088 40.0157 63.8396 40.2482 75.162C40.4807 86.4844 44.7634 97.3485 52.3196 105.784C59.8757 114.219 70.2048 119.667 81.4335 121.14C92.6622 122.612 104.047 120.011 113.522 113.809C114.321 113.286 115.393 113.51 115.916 114.309C116.439 115.108 116.215 116.18 115.416 116.703C105.249 123.358 93.0326 126.148 80.9839 124.569C68.9351 122.989 57.8516 117.143 49.7436 108.091C41.6356 99.0399 37.0401 87.3823 36.7906 75.233C36.5411 63.0836 40.6541 51.2472 48.3837 41.8705C48.9911 41.1336 50.0809 41.0287 50.8178 41.6362Z" fill="white"/>
<path fill-rule="evenodd" clip-rule="evenodd" d="M117.877 112.85C117.262 112.12 117.355 111.029 118.086 110.414C122.986 106.288 126.999 101.211 129.881 95.4901C132.762 89.7688 134.453 83.5223 134.851 77.1287C135.248 70.7351 134.344 64.3272 132.194 58.293C130.043 52.2588 126.69 46.7237 122.339 42.0227C117.987 37.3218 112.727 33.5526 106.876 30.9435C101.026 28.3344 94.7064 26.9395 88.3011 26.8433C81.8959 26.7471 75.5377 27.9515 69.6114 30.3838C63.6851 32.816 58.314 36.4254 53.823 40.9936C53.1535 41.6746 52.0587 41.6839 51.3777 41.0144C50.6967 40.3449 50.6874 39.2502 51.3569 38.5692C56.1758 33.6674 61.9392 29.7943 68.2984 27.1845C74.6575 24.5746 81.48 23.2822 88.3531 23.3854C95.2262 23.4887 102.007 24.9854 108.285 27.7851C114.563 30.5848 120.207 34.6292 124.877 39.6735C129.546 44.7178 133.144 50.6571 135.451 57.132C137.759 63.6069 138.729 70.4828 138.302 77.3433C137.875 84.2039 136.061 90.9066 132.969 97.0457C129.877 103.185 125.572 108.633 120.313 113.06C119.582 113.675 118.492 113.581 117.877 112.85Z" fill="white"/>
</svg>
