<svg width="100" height="100" viewBox="0 0 100 100" fill="none" xmlns="http://www.w3.org/2000/svg">
<g clip-path="url(#clip0_105_11)">
<path d="M22.3839 100H1.65179V33.2351H22.3839V100ZM12.0067 24.1278C5.37723 24.1278 0 18.6366 0 12.007C4.74509e-08 8.82252 1.26499 5.7685 3.51668 3.51676C5.76837 1.26502 8.82232 0 12.0067 0C15.1911 0 18.245 1.26502 20.4967 3.51676C22.7484 5.7685 24.0134 8.82252 24.0134 12.007C24.0134 18.6366 18.6339 24.1278 12.0067 24.1278ZM99.9777 100H79.2902V67.4993C79.2902 59.7536 79.1339 49.8203 68.5112 49.8203C57.7321 49.8203 56.0804 58.2357 56.0804 66.9412V100H35.3705V33.2351H55.2545V42.3425H55.5446C58.3125 37.0968 65.0737 31.561 75.1607 31.561C96.1429 31.561 100 45.3782 100 63.3251V100H99.9777Z" fill="white"/>
</g>
<defs>
<clipPath id="clip0_105_11">
<rect width="100" height="100" fill="white"/>
</clipPath>
</defs>
</svg>
