<svg width="50" height="67" viewBox="0 0 50 67" fill="none" xmlns="http://www.w3.org/2000/svg">
<path fill-rule="evenodd" clip-rule="evenodd" d="M43.7966 33.4722C45.249 30.0145 45.9635 27.1858 45.9635 25.125C45.9635 13.4943 36.5728 4.05664 25 4.05664C13.4272 4.05664 4.03646 13.4943 4.03646 25.125C4.03646 27.1858 4.751 30.0145 6.20341 33.4722C7.62766 36.8628 9.62812 40.5502 11.8882 44.2347C16.376 51.5511 21.6967 58.5491 25 62.7078C28.3033 58.5491 33.624 51.5511 38.1118 44.2347C40.3719 40.5502 42.3723 36.8628 43.7966 33.4722ZM21.9141 65.325C15.2344 56.9238 0 36.5621 0 25.125C0 11.2539 11.1979 0 25 0C38.8021 0 50 11.2539 50 25.125C50 36.5621 34.7656 56.9238 28.0859 65.325C26.4844 67.3272 23.5156 67.3272 21.9141 65.325ZM25 12.6934C28.2807 12.6934 31.427 14.0031 33.7468 16.3345C36.0666 18.6659 37.3698 21.8279 37.3698 25.125C37.3698 28.4221 36.0666 31.5841 33.7468 33.9155C31.427 36.2469 28.2807 37.5566 25 37.5566C21.7193 37.5566 18.573 36.2469 16.2532 33.9155C13.9334 31.5841 12.6302 28.4221 12.6302 25.125C12.6302 21.8279 13.9334 18.6659 16.2532 16.3345C18.573 14.0031 21.7193 12.6934 25 12.6934ZM30.8926 19.203C29.3298 17.6324 27.2101 16.75 25 16.75C22.7899 16.75 20.6702 17.6324 19.1074 19.203C17.5446 20.7736 16.6667 22.9038 16.6667 25.125C16.6667 27.3462 17.5446 29.4764 19.1074 31.047C20.6702 32.6176 22.7899 33.5 25 33.5C27.2101 33.5 29.3298 32.6176 30.8926 31.047C32.4554 29.4764 33.3333 27.3462 33.3333 25.125C33.3333 22.9038 32.4554 20.7736 30.8926 19.203Z" fill="white"/>
</svg>
