<svg width="140" height="140" viewBox="0 0 140 140" fill="none" xmlns="http://www.w3.org/2000/svg">
<g clip-path="url(#clip0_124_58)">
<path d="M113.75 56.875C113.75 69.4258 109.676 81.0195 102.812 90.4258L137.43 125.07C140.848 128.488 140.848 134.039 137.43 137.457C134.012 140.875 128.461 140.875 125.043 137.457L90.4258 102.813C81.0195 109.703 69.4258 113.75 56.875 113.75C25.457 113.75 0 88.293 0 56.875C0 25.457 25.457 0 56.875 0C88.293 0 113.75 25.457 113.75 56.875ZM56.875 96.25C62.0458 96.25 67.166 95.2315 71.9432 93.2528C76.7204 91.274 81.061 88.3736 84.7173 84.7173C88.3736 81.061 91.274 76.7204 93.2528 71.9432C95.2315 67.166 96.25 62.0458 96.25 56.875C96.25 51.7042 95.2315 46.584 93.2528 41.8068C91.274 37.0296 88.3736 32.689 84.7173 29.0327C81.061 25.3764 76.7204 22.476 71.9432 20.4972C67.166 18.5185 62.0458 17.5 56.875 17.5C51.7042 17.5 46.584 18.5185 41.8068 20.4972C37.0296 22.476 32.689 25.3764 29.0327 29.0327C25.3764 32.689 22.476 37.0296 20.4972 41.8068C18.5185 46.584 17.5 51.7042 17.5 56.875C17.5 62.0458 18.5185 67.166 20.4972 71.9432C22.476 76.7204 25.3764 81.061 29.0327 84.7173C32.689 88.3736 37.0296 91.274 41.8068 93.2528C46.584 95.2315 51.7042 96.25 56.875 96.25Z" fill="white"/>
</g>
<defs>
<clipPath id="clip0_124_58">
<rect width="140" height="140" fill="white"/>
</clipPath>
</defs>
</svg>
