<svg width="500" height="500" viewBox="0 0 500 500" fill="none" xmlns="http://www.w3.org/2000/svg">
<path fill-rule="evenodd" clip-rule="evenodd" d="M183.485 355.502C278.487 355.502 355.502 278.487 355.502 183.485C355.502 88.4824 278.487 11.4678 183.485 11.4678C88.4824 11.4678 11.4678 88.4824 11.4678 183.485C11.4678 278.487 88.4824 355.502 183.485 355.502ZM183.485 366.969C284.82 366.969 366.969 284.82 366.969 183.485C366.969 82.1489 284.82 0 183.485 0C82.1489 0 0 82.1489 0 183.485C0 284.82 82.1489 366.969 183.485 366.969Z" fill="#00A3D4"/>
<path fill-rule="evenodd" clip-rule="evenodd" d="M122.44 114.431C124.514 116.824 124.255 120.446 121.862 122.52C113.858 129.457 107.385 138.015 102.864 147.641C98.3433 157.268 95.8768 167.747 95.6257 178.401C95.3746 189.054 97.3447 199.642 101.407 209.479C105.47 219.315 111.533 228.18 119.203 235.5C121.494 237.686 121.578 241.315 119.392 243.606C117.206 245.897 113.576 245.982 111.285 243.795C102.455 235.367 95.4791 225.167 90.8078 213.856C86.1365 202.546 83.8725 190.375 84.1611 178.13C84.4496 165.886 87.2844 153.838 92.4837 142.767C97.6831 131.695 105.132 121.844 114.351 113.854C116.744 111.78 120.366 112.038 122.44 114.431Z" fill="#00A3D4"/>
<path fill-rule="evenodd" clip-rule="evenodd" d="M332.912 333.048C344.295 321.665 362.75 321.665 374.133 333.048L479.254 438.169C490.637 449.552 490.637 468.007 479.254 479.39C467.871 490.772 449.416 490.772 438.033 479.39L332.912 374.268C321.529 362.886 321.529 344.43 332.912 333.048Z" fill="#00A3D4"/>
<path fill-rule="evenodd" clip-rule="evenodd" d="M332.088 303.031L362.863 333.806L333.806 362.863L303.031 332.088L332.088 303.031Z" fill="#00A3D4"/>
</svg>
