<svg width="67" height="67" viewBox="0 0 67 67" fill="none" xmlns="http://www.w3.org/2000/svg">
<path fill-rule="evenodd" clip-rule="evenodd" d="M45.1576 41.706L39.8711 48.1571C30.659 43.7997 23.2003 36.341 18.8429 27.1289L25.294 21.8555C27.0867 20.3899 27.7017 17.9299 26.8119 15.797L21.5778 3.23504V3.22195C20.5702 0.788072 17.9139 -0.507379 15.3753 0.186146L3.86018 3.32663C1.58333 3.95473 0 6.02222 0 8.37758C0 40.7508 26.2492 67 58.6224 67C60.9778 67 63.0453 65.4167 63.6734 63.1398L66.8139 51.6247C67.5074 49.0861 66.2119 46.4298 63.778 45.4222L51.2161 40.1881C49.0832 39.2983 46.6101 39.9133 45.1576 41.706ZM61.2759 62.4816C61.2761 62.4806 61.2764 62.4796 61.2767 62.4787L64.4152 50.9705L64.4155 50.9695C64.7802 49.6346 64.0994 48.2461 62.8271 47.7194L62.8244 47.7183L62.8218 47.7172L50.2599 42.4831L50.2589 42.4827C49.1352 42.0139 47.8412 42.3431 47.0893 43.2711L47.085 43.2765L40.5633 51.2348L38.808 50.4046C29.076 45.8012 21.1988 37.924 16.5954 28.192L15.7641 26.4345L23.7204 19.9307C23.7204 19.9307 23.7204 19.9306 23.7204 19.9307C24.6627 19.1602 24.9836 17.8718 24.5173 16.7542L24.5169 16.7532L19.2092 4.01469C18.6365 2.84488 17.3089 2.23522 16.0305 2.58447L4.52134 5.72333C4.52037 5.7236 4.51939 5.72387 4.51842 5.72414C3.31317 6.05801 2.48622 7.15014 2.48622 8.37758C2.48622 39.3777 27.6223 64.5138 58.6224 64.5138C59.8499 64.5138 60.942 63.6868 61.2759 62.4816Z" fill="white"/>
</svg>
