<svg width="500" height="500" viewBox="0 0 500 500" fill="none" xmlns="http://www.w3.org/2000/svg">
<g clip-path="url(#clip0_245_14)">
<path fill-rule="evenodd" clip-rule="evenodd" d="M166.853 61.8151C168.519 58.9955 172.155 58.0599 174.975 59.7255C235.684 95.5874 257.382 152.983 264.495 206.108C268.049 232.652 267.991 258.292 267.316 279.872C267.118 286.203 266.872 292.112 266.646 297.566C266.086 311.051 265.641 321.752 266.314 329.15L254.504 330.224C253.755 321.989 254.252 310.032 254.832 296.091C255.051 290.814 255.283 285.252 255.463 279.501C256.131 258.153 256.166 233.269 252.74 207.681C245.894 156.544 225.344 103.253 168.943 69.9363C166.123 68.2707 165.188 64.6347 166.853 61.8151Z" fill="#00A3D4"/>
<path fill-rule="evenodd" clip-rule="evenodd" d="M499.444 250.959C499.063 252.345 498.517 253.742 497.944 255.027L431.784 403.422L431.705 403.575C430.265 406.358 428.253 409.282 425.991 412.163C416.739 423.947 404.653 432.127 391.886 438.581C381.628 443.766 370.605 447.984 360.084 452.011C357.604 452.96 355.151 453.899 352.743 454.836C348.441 456.513 343.963 458.303 339.341 460.152C317.128 469.036 291.567 479.259 265.962 484.537C254.28 486.944 242.056 487.387 230.1 484.905C214.718 481.712 199.182 475.855 183.235 468.997C175.425 465.638 167.447 462.008 159.314 458.306L158.769 458.058C150.427 454.262 141.907 450.39 133.11 446.6C97.9491 431.452 58.7047 417.783 11.7532 416.728C5.37886 416.585 0 411.422 0 404.804V324.42L1.56259 322.719C32.9422 288.556 64.2313 272.705 98.8781 273.365C133.083 274.016 169.362 290.776 210.859 318.855C223.127 327.155 242 329.967 264.585 330.824C273.854 331.176 283.475 331.199 293.259 331.222C295.243 331.227 297.234 331.232 299.229 331.239C310.998 331.283 322.9 331.424 334.236 332.259C340.569 332.725 348.7 333.503 355.521 337.97C359.975 340.887 363.12 344.507 365.215 348.49C370.416 343.332 375.625 337.825 380.811 332.249C387.92 324.604 394.538 316.752 401.273 308.76C406.056 303.083 410.9 297.336 416.021 291.542C428.071 277.911 441.072 264.756 456.515 254.457C469.56 245.757 481.683 241.171 489.076 239.401C490.789 238.991 493.33 238.688 495.768 239.924C498.643 241.382 499.696 244.054 499.934 246.078C500.149 247.909 499.8 249.667 499.444 250.959ZM368.64 361.693C375.7 354.999 382.709 347.623 389.495 340.325C396.67 332.61 403.743 324.227 410.719 315.959C415.494 310.3 420.222 304.696 424.907 299.397C436.718 286.035 448.921 273.777 463.095 264.323C471.795 258.521 479.92 254.818 486.004 252.684L421.096 398.27C420.124 400.116 418.627 402.339 416.664 404.839C408.877 414.757 398.449 421.975 386.536 427.997C376.876 432.88 366.569 436.827 356.091 440.839C353.548 441.813 350.995 442.79 348.439 443.786C343.939 445.539 339.323 447.383 334.611 449.267C312.4 458.142 288.036 467.878 263.568 472.922C253.182 475.062 242.616 475.391 232.511 473.294C218.309 470.345 203.642 464.864 187.92 458.103C180.226 454.793 172.347 451.208 164.174 447.488L163.681 447.264C155.35 443.473 146.726 439.553 137.802 435.708C102.078 420.317 61.1972 405.977 12.0197 404.872C11.9864 404.871 11.9619 404.865 11.9403 404.856C11.9155 404.845 11.8923 404.829 11.8743 404.811C11.8673 404.804 11.8624 404.798 11.8592 404.793V329.056C41.1759 297.728 68.9707 284.656 98.6522 285.222C129.302 285.806 163.19 300.918 204.213 328.677C219.565 339.064 241.604 341.82 264.135 342.675C273.635 343.036 283.509 343.059 293.294 343.082C295.263 343.086 297.228 343.091 299.185 343.098C310.942 343.142 322.48 343.284 333.365 344.086C339.875 344.565 345.071 345.303 349.023 347.891C357.697 353.572 358.749 365.026 354.249 375.63C352.071 380.76 347.804 383.851 341.603 385.719C335.236 387.637 327.531 388.033 319.654 388.088C292.496 388.279 261.571 388.81 235.908 389.886C223.083 390.424 211.509 391.1 202.35 391.945C197.775 392.367 193.738 392.837 190.417 393.364C187.214 393.872 184.281 394.492 182.144 395.332C179.096 396.529 177.596 399.971 178.793 403.019C179.991 406.067 183.432 407.567 186.48 406.37C187.341 406.031 189.191 405.566 192.277 405.076C195.244 404.605 199 404.163 203.44 403.754C212.313 402.935 223.663 402.269 236.404 401.735C261.872 400.667 292.644 400.137 319.737 399.947C327.666 399.892 336.879 399.527 345.023 397.074C353.332 394.572 361.168 389.683 365.165 380.263C367.488 374.791 368.933 368.226 368.64 361.693ZM492.084 250.889C492.083 250.891 492.056 250.895 492.007 250.899C492.06 250.889 492.085 250.888 492.084 250.889Z" fill="#00A3D4"/>
<path fill-rule="evenodd" clip-rule="evenodd" d="M343.261 164.406C344.759 167.318 343.611 170.893 340.699 172.39C314.587 185.814 296.422 214.397 284.431 245.892C272.506 277.213 267.12 310.286 265.833 331.042L253.996 330.308C255.344 308.57 260.928 274.292 273.348 241.672C285.701 209.226 305.255 177.277 335.277 161.843C338.189 160.346 341.764 161.493 343.261 164.406Z" fill="#00A3D4"/>
<path fill-rule="evenodd" clip-rule="evenodd" d="M303.708 219.736C315.05 223.451 325.468 223.342 334.394 220.883C351.841 216.076 362.799 196.65 368.754 172.567C374.066 151.078 374.561 135.865 373.513 127.778C373.449 127.782 373.383 127.787 373.315 127.794C345.733 130.322 319.065 134.948 299.04 152.703C287.063 166.826 284.336 184.046 288.327 202.181C290.166 210.536 296.108 217.247 303.708 219.736ZM290.551 144.386C275.218 162.019 272.077 183.518 276.745 204.73C279.425 216.907 288.167 227.125 300.016 231.006C313.551 235.439 326.349 235.401 337.545 232.316C361.851 225.618 374.215 199.888 380.266 175.413C386.386 150.662 386.729 132.57 384.72 122.921C383.553 117.312 377.937 115.461 372.232 115.984C344.31 118.544 313.792 123.379 290.551 144.386Z" fill="#00A3D4"/>
<path fill-rule="evenodd" clip-rule="evenodd" d="M225.354 100.967C231.407 87.2623 232.346 74.6713 230.229 64.0616C228.357 54.6771 222.579 46.9043 213.681 40.4013C204.68 33.8219 193.036 28.9887 180.999 25.7083C156.704 19.0872 139.647 18.5839 131.194 19.8853C131.177 20.1174 131.17 20.3746 131.174 20.6553C131.63 51.2741 134.327 81.0327 152.101 103.529C166.859 117.321 186.208 120.47 207.397 115.555C215.45 113.686 222.145 108.232 225.354 100.967ZM143.347 111.571C161.829 129.308 185.885 132.719 210.077 127.107C221.605 124.433 231.421 116.584 236.203 105.759C243.192 89.9348 244.477 74.8655 241.859 61.7413C236.642 35.5913 209.844 21.2777 184.117 14.2664C156.872 6.84133 136.882 6.36984 126.624 8.68313C121.234 9.89875 119.233 15.3069 119.316 20.8321C119.775 51.6411 122.336 85.5237 143.347 111.571Z" fill="#00A3D4"/>
</g>
<defs>
<clipPath id="clip0_245_14">
<rect width="500" height="500" fill="white"/>
</clipPath>
</defs>
</svg>
