<svg width="140" height="140" viewBox="0 0 140 140" fill="none" xmlns="http://www.w3.org/2000/svg">
<g clip-path="url(#clip0_124_56)">
<path d="M140 8.75C140 39.8125 116.867 65.4883 86.8984 69.4531C84.957 54.8516 78.5313 41.6719 69.043 31.3633C79.5156 12.6602 99.5312 0 122.5 0H131.25C136.09 0 140 3.91016 140 8.75ZM0 26.25C0 21.4102 3.91016 17.5 8.75 17.5H17.5C51.3242 17.5 78.75 44.9258 78.75 78.75V87.5V131.25C78.75 136.09 74.8398 140 70 140C65.1602 140 61.25 136.09 61.25 131.25V87.5C27.4258 87.5 0 60.0742 0 26.25Z" fill="white"/>
</g>
<defs>
<clipPath id="clip0_124_56">
<rect width="140" height="140" fill="white"/>
</clipPath>
</defs>
</svg>
