<svg width="70" height="70" viewBox="0 0 70 70" fill="none" xmlns="http://www.w3.org/2000/svg">
<path d="M2.20129 35.5743C-0.888554 37.3379 -0.601445 42.041 2.69348 43.4082L21.8751 51.4063V65.5293C21.8751 68.0039 23.8712 70 26.3458 70C27.672 70 28.9298 69.4121 29.7775 68.3868L38.254 58.2286L55.1935 65.2832C57.7775 66.3633 60.7716 64.668 61.1954 61.9063L69.9454 5.03128C70.2052 3.37699 69.4806 1.70902 68.0997 0.76566C66.7189 -0.1777 64.9142 -0.259731 63.4513 0.574253L2.20129 35.5743ZM9.32434 39.0606L56.0138 12.3868L25.9904 45.9375L26.1544 46.0743L9.32434 39.0606ZM55.1388 58.1602L32.3614 48.6582L61.6329 15.9414L55.1388 58.1602Z" fill="white"/>
</svg>
